<?xml version="1.0" encoding="UTF-8" standalone="no"?>
<!DOCTYPE svg PUBLIC "-//W3C//DTD SVG 20010904//EN"
              "http://www.w3.org/TR/2001/REC-SVG-20010904/DTD/svg10.dtd">

<svg xmlns="http://www.w3.org/2000/svg"
     width="2.44444in" height="3.66667in"
     viewBox="0 0 220 330">
  <path id="Selection"
        fill="currentColor" stroke="black" stroke-width="1"
        d="M 132.50,42.40
           C 131.23,38.66 128.32,33.29 127.94,29.90
             127.39,25.24 129.25,10.38 125.50,7.42
             123.51,5.86 118.74,6.14 116.25,6.14
             116.25,6.14 91.25,6.14 91.25,6.14
             91.25,6.14 73.75,4.89 73.75,4.89
             73.75,4.89 23.75,1.14 23.75,1.14
             23.75,1.14 19.27,44.90 19.27,44.90
             18.84,48.20 16.71,57.37 20.00,58.65
             20.00,58.65 23.75,61.15 23.75,61.15
             23.75,61.15 16.96,72.41 16.96,72.41
             16.96,72.41 14.65,87.41 14.65,87.41
             14.65,87.41 11.25,119.92 11.25,119.92
             11.25,119.92 8.75,178.68 8.75,178.68
             8.75,178.68 7.50,208.68 7.50,208.68
             7.50,208.68 6.25,227.44 6.25,227.44
             6.25,227.44 3.75,267.45 3.75,267.45
             3.75,267.45 2.50,296.20 2.50,296.20
             2.50,296.20 1.25,322.46 1.25,322.46
             1.25,322.46 48.75,326.32 48.75,326.32
             48.75,326.32 120.00,328.71 120.00,328.71
             120.00,328.71 120.00,224.94 120.00,224.94
             120.00,224.94 120.75,216.19 120.75,216.19
             120.75,216.19 130.00,204.93 130.00,204.93
             130.00,204.93 147.99,186.18 147.99,186.18
             147.99,186.18 187.06,134.92 187.06,134.92
             187.06,134.92 218.75,92.41 218.75,92.41
             218.75,92.41 205.00,88.75 205.00,88.75
             199.60,86.63 196.16,83.76 190.00,83.76
             183.84,83.76 171.39,90.15 166.25,93.66
             166.25,93.66 167.50,89.91 167.50,89.91
             167.50,89.91 158.75,93.66 158.75,93.66
             165.69,89.20 165.64,81.96 162.98,74.91
             159.89,66.73 153.23,49.21 152.50,41.15
             145.85,40.90 141.91,39.46 136.25,43.65
             136.25,43.65 132.50,42.40 132.50,42.40 Z
           M 62.50,207.43
           C 47.39,207.37 48.45,203.12 52.83,191.18
             53.71,188.74 54.25,184.33 56.81,183.40
             58.41,182.59 62.02,183.24 63.75,183.40
             75.64,185.62 76.55,191.64 80.54,201.12
             84.11,209.60 81.75,209.05 83.00,213.90
             83.00,213.90 87.83,225.97 87.83,225.97
             87.83,225.97 89.14,234.95 89.14,234.95
             89.14,234.95 99.85,261.19 99.85,261.19
             100.91,265.27 97.81,271.56 101.25,281.20
             101.25,281.20 95.00,278.70 95.00,278.70
             94.77,285.31 94.34,288.04 87.50,289.95
             87.26,283.92 85.39,270.33 90.00,266.20
             90.00,266.20 90.00,263.69 90.00,263.69
             86.15,259.83 90.77,256.79 91.25,248.69
             91.25,248.69 81.25,256.19 81.25,256.19
             81.25,256.19 81.25,238.69 81.25,238.69
             81.25,238.69 76.25,241.19 76.25,241.19
             76.25,241.19 77.50,236.19 77.50,236.19
             77.50,236.19 73.75,242.44 73.75,242.44
             67.24,239.85 69.34,237.86 66.39,232.55
             61.60,223.94 56.75,220.30 53.75,209.93
             53.75,209.93 62.50,207.43 62.50,207.43 Z
           M 17.50,199.93
           C 22.16,201.57 22.84,201.57 27.50,199.93
             27.50,199.93 39.97,209.27 39.97,209.27
             43.84,215.12 39.66,224.06 38.40,229.94
             38.40,229.94 37.50,243.69 37.50,243.69
             39.29,241.59 39.29,242.87 40.00,244.94
             44.56,243.40 44.62,243.62 47.50,247.44
             47.50,247.44 48.75,243.69 48.75,243.69
             48.75,243.69 50.00,247.44 50.00,247.44
             50.00,247.44 55.00,246.19 55.00,246.19
             55.56,251.85 53.98,255.46 58.75,258.69
             58.75,258.69 56.25,262.44 56.25,262.44
             56.25,262.44 57.50,264.94 57.50,264.94
             53.77,271.68 66.84,273.50 67.98,284.92
             68.65,291.61 59.41,294.34 57.08,289.66
             57.08,289.66 55.30,279.94 55.30,279.94
             55.30,279.94 49.49,264.94 49.49,264.94
             47.84,257.67 48.90,253.73 42.50,248.69
             42.50,248.69 41.25,252.44 41.25,252.44
             41.25,252.44 32.41,244.77 32.41,244.77
             29.77,240.70 29.51,232.16 30.68,227.55
             30.68,227.55 32.85,220.97 32.85,220.97
             32.85,220.97 33.75,212.43 33.75,212.43
             33.75,212.43 31.25,217.44 31.25,217.44
             27.10,214.57 27.11,212.23 27.50,207.43
             27.50,207.43 23.75,213.68 23.75,213.68
             16.74,211.45 16.16,206.57 17.50,199.93 Z" />
</svg>
