<?xml version="1.0" encoding="UTF-8" standalone="no"?>
<!DOCTYPE svg PUBLIC "-//W3C//DTD SVG 20010904//EN"
              "http://www.w3.org/TR/2001/REC-SVG-20010904/DTD/svg10.dtd">

<svg xmlns="http://www.w3.org/2000/svg"
     width="3.92222in" height="6.2in"
     viewBox="0 0 353 558">
  <path id="Selection"
        fill="currentColor" stroke="black" stroke-width="1"
        d="M 352.00,1.28
           C 352.00,1.28 333.99,6.67 333.99,6.67
             333.99,6.67 332.00,10.03 332.00,10.03
             336.20,9.61 336.95,8.98 339.50,12.53
             339.50,12.53 344.50,10.03 344.50,10.03
             344.50,10.03 349.50,13.79 349.50,13.79
             349.50,13.79 352.00,1.28 352.00,1.28 Z
           M 322.00,15.04
           C 322.00,15.04 317.00,16.29 317.00,16.29
             317.00,16.29 319.50,25.04 319.50,25.04
             319.50,25.04 324.50,23.79 324.50,23.79
             324.50,23.79 322.00,15.04 322.00,15.04 Z
           M 347.00,20.17
           C 347.00,20.17 342.00,20.17 342.00,20.17
             339.56,20.04 335.58,19.97 333.27,20.17
             323.69,22.51 325.20,34.39 329.98,37.50
             332.64,39.23 342.73,39.73 343.81,33.76
             344.35,30.84 342.29,28.51 340.75,26.29
             345.02,24.41 345.47,24.50 347.00,20.17 Z
           M 302.00,30.04
           C 302.00,30.04 287.71,25.81 287.71,25.81
             287.71,25.81 270.75,36.51 270.75,36.51
             270.75,36.51 249.50,45.04 249.50,45.04
             249.50,45.04 248.25,53.79 248.25,53.79
             252.90,53.71 253.32,53.49 255.75,57.54
             255.75,57.54 262.00,51.29 262.00,51.29
             262.00,51.29 260.75,63.80 260.75,63.80
             271.24,61.39 266.83,58.53 273.25,51.29
             273.25,51.29 272.00,58.79 272.00,58.79
             272.00,58.79 278.25,55.04 278.25,55.04
             278.25,55.04 278.25,47.54 278.25,47.54
             278.25,47.54 282.00,48.79 282.00,48.79
             284.65,44.57 284.69,44.05 289.50,42.54
             285.65,49.13 283.09,51.14 285.75,58.79
             285.75,58.79 288.25,58.79 288.25,58.79
             288.25,58.79 290.75,51.29 290.75,51.29
             298.35,51.78 299.99,50.14 299.50,42.54
             299.50,42.54 303.25,43.79 303.25,43.79
             300.98,37.21 302.04,36.40 308.25,33.79
             308.25,33.79 305.75,25.04 305.75,25.04
             305.75,25.04 300.75,26.29 300.75,26.29
             300.75,26.29 302.00,30.04 302.00,30.04 Z
           M 317.00,52.54
           C 313.50,49.09 313.10,49.19 308.25,48.79
             310.91,53.22 312.00,53.39 317.00,52.54 Z
           M 309.50,60.04
           C 309.50,60.04 297.00,60.04 297.00,60.04
             297.00,60.04 297.00,63.80 297.00,63.80
             297.00,63.80 303.25,68.80 303.25,68.80
             296.92,65.61 296.61,65.23 289.50,65.05
             289.50,65.05 287.00,71.30 287.00,71.30
             287.00,71.30 300.75,76.30 300.75,76.30
             290.02,75.80 286.89,71.80 280.75,78.80
             280.75,78.80 297.00,81.30 297.00,81.30
             294.14,81.96 289.61,83.47 287.00,83.45
             284.30,83.62 281.00,82.36 278.44,83.45
             274.56,84.84 273.19,91.48 283.25,91.30
             283.25,91.30 285.75,98.80 285.75,98.80
             285.75,98.80 287.00,95.05 287.00,95.05
             287.00,95.05 289.50,96.30 289.50,96.30
             289.50,96.30 290.75,95.05 290.75,95.05
             290.75,95.05 289.50,101.30 289.50,101.30
             294.95,99.38 296.25,98.48 295.75,92.55
             295.75,92.55 298.25,95.05 298.25,95.05
             298.25,95.05 299.50,95.05 299.50,95.05
             299.50,95.05 300.75,90.05 300.75,90.05
             300.75,90.05 305.75,91.30 305.75,91.30
             305.75,91.30 302.00,98.80 302.00,98.80
             302.00,98.80 299.50,101.30 299.50,101.30
             305.54,101.23 306.09,101.62 310.75,97.55
             310.75,97.55 310.75,102.55 310.75,102.55
             310.75,102.55 322.00,101.30 322.00,101.30
             314.40,110.28 313.16,106.04 305.75,106.88
             305.75,106.88 292.00,110.05 292.00,110.05
             294.25,121.83 301.20,123.96 312.00,121.11
             315.47,120.19 319.42,119.04 322.08,116.52
             326.67,112.14 327.86,101.25 329.50,95.05
             327.81,94.44 324.26,93.39 323.06,92.18
             320.07,89.14 324.45,87.69 317.00,82.55
             317.00,82.55 320.75,81.30 320.75,81.30
             318.22,74.92 317.23,68.33 309.50,70.05
             309.50,70.05 309.50,60.04 309.50,60.04 Z
           M 283.25,62.54
           C 283.25,62.54 265.75,71.30 265.75,71.30
             265.75,71.30 265.75,73.80 265.75,73.80
             274.94,77.02 279.62,70.35 283.25,62.54 Z
           M 335.75,71.30
           C 335.75,71.30 334.50,71.30 334.50,71.30
             334.50,71.30 335.75,72.55 335.75,72.55
             335.75,72.55 335.75,71.30 335.75,71.30 Z
           M 245.75,112.55
           C 245.82,107.93 242.01,98.93 237.91,96.33
             237.91,96.33 213.25,90.05 213.25,90.05
             213.25,90.05 210.00,108.43 210.00,108.43
             210.00,108.43 194.50,122.56 194.50,122.56
             194.50,122.56 195.75,128.81 195.75,128.81
             195.75,128.81 189.50,127.56 189.50,127.56
             186.24,140.59 178.18,134.38 173.25,148.81
             177.24,151.31 177.01,152.30 179.16,156.31
             187.85,172.54 180.29,169.15 183.25,182.57
             183.25,182.57 200.75,177.57 200.75,177.57
             200.75,177.57 202.00,181.32 202.00,181.32
             202.00,181.32 210.24,178.81 210.24,178.81
             210.24,178.81 220.75,161.31 220.75,161.31
             229.93,164.63 230.02,158.05 237.05,154.16
             237.05,154.16 262.00,146.00 262.00,146.00
             265.85,144.99 271.95,144.95 272.70,139.92
             273.12,137.08 270.52,131.68 269.51,128.81
             267.59,123.34 264.24,111.14 255.96,113.60
             253.46,114.36 251.27,117.01 249.50,118.81
             249.50,118.81 250.75,111.30 250.75,111.30
             250.75,111.30 245.75,112.55 245.75,112.55 Z
           M 279.50,147.56
           C 268.54,149.76 256.99,151.15 247.00,156.30
             244.29,157.69 238.93,159.45 238.04,162.61
             237.61,164.15 239.09,168.30 239.50,170.07
             230.55,170.70 226.76,173.87 224.50,182.57
             224.50,182.57 229.50,186.32 229.50,186.32
             229.50,186.32 235.75,185.07 235.75,185.07
             235.75,185.07 235.75,190.07 235.75,190.07
             235.75,190.07 229.50,188.82 229.50,188.82
             230.85,192.58 230.80,192.33 234.50,193.82
             234.50,193.82 234.50,191.32 234.50,191.32
             234.50,191.32 237.00,191.32 237.00,191.32
             242.27,198.28 246.60,191.28 257.00,198.82
             257.00,198.82 248.25,198.82 248.25,198.82
             248.25,198.82 249.50,198.82 249.50,198.82
             249.50,198.82 250.75,201.32 250.75,201.32
             244.71,199.61 243.68,200.38 237.90,200.27
             230.33,200.12 219.30,199.68 225.71,211.20
             230.24,219.33 237.52,215.96 239.50,221.33
             239.50,221.33 261.99,225.35 261.99,225.35
             261.99,225.35 282.00,241.33 282.00,241.33
             268.39,244.06 265.91,238.88 254.50,234.82
             248.25,232.58 230.54,230.18 224.50,232.58
             244.20,239.14 272.09,248.57 292.00,252.58
             292.00,252.58 302.79,206.32 302.79,206.32
             304.96,197.58 308.40,189.89 304.50,181.32
             304.50,181.32 299.50,187.57 299.50,187.57
             297.02,184.94 296.69,185.54 293.25,186.32
             293.25,186.32 290.75,185.07 290.75,185.07
             293.41,182.43 299.15,179.48 299.77,176.13
             300.86,170.35 284.05,154.70 283.25,170.07
             283.25,170.07 282.00,171.32 282.00,171.32
             282.00,171.32 272.00,171.32 272.00,171.32
             277.56,161.84 284.26,159.29 279.50,147.56 Z
           M 67.00,160.06
           C 65.26,161.63 63.52,163.68 61.05,163.88
             54.24,164.39 43.66,157.34 44.50,170.07
             44.50,170.07 40.75,167.57 40.75,167.57
             41.93,173.65 42.69,173.83 40.75,180.07
             40.75,180.07 35.75,168.82 35.75,168.82
             35.75,168.82 18.10,192.52 18.10,192.52
             18.10,192.52 13.66,202.62 13.66,202.62
             13.66,202.62 7.00,213.82 7.00,213.82
             7.00,213.82 28.25,227.58 28.25,227.58
             25.08,232.62 22.15,235.19 23.25,241.33
             16.79,245.01 16.74,248.24 14.50,255.08
             14.50,255.08 19.50,255.08 19.50,255.08
             19.50,255.08 25.75,263.83 25.75,263.83
             20.42,267.79 22.85,269.10 19.69,273.42
             15.40,279.30 10.46,277.19 10.75,286.34
             0.96,292.63 10.01,303.35 11.46,310.14
             12.40,314.58 10.38,317.31 10.68,321.33
             10.92,324.77 12.69,326.92 13.04,329.20
             14.22,336.91 8.90,344.31 7.81,347.71
             7.81,347.71 6.75,353.64 6.75,353.64
             5.85,356.48 4.15,357.62 3.51,361.40
             3.51,361.40 3.51,370.11 3.51,370.11
             3.06,372.63 1.41,375.33 1.51,377.44
             1.66,380.80 4.67,381.60 6.30,385.22
             7.82,388.63 7.95,396.24 8.73,400.10
             10.34,408.11 18.18,410.80 9.50,420.12
             9.50,420.12 9.50,428.87 9.50,428.87
             9.50,428.87 22.00,431.37 22.00,431.37
             23.61,434.54 24.56,436.46 28.28,437.62
             31.64,438.67 36.29,436.84 37.80,440.47
             38.81,442.89 36.88,446.40 36.38,448.87
             35.61,452.67 35.08,466.20 37.71,468.92
             40.36,471.65 53.98,477.16 58.25,479.19
             58.25,479.19 112.00,501.62 112.00,501.62
             189.66,531.17 256.30,545.58 338.25,556.39
             338.25,556.39 346.80,480.13 346.80,480.13
             346.80,480.13 352.00,436.37 352.00,436.37
             352.00,436.37 293.25,414.88 293.25,414.88
             293.25,414.88 266.01,404.10 266.01,404.10
             260.16,399.65 256.99,386.23 252.46,382.38
             248.08,378.67 237.41,379.52 231.15,373.52
             231.15,373.52 211.47,343.85 211.47,343.85
             211.47,343.85 176.61,290.09 176.61,290.09
             173.82,285.75 167.71,277.69 168.26,272.59
             168.26,272.59 180.40,242.58 180.40,242.58
             184.55,232.95 187.61,227.86 176.95,221.03
             173.85,219.04 170.40,217.71 167.00,216.33
             160.89,225.80 158.51,225.64 148.25,222.58
             148.25,222.58 155.75,213.82 155.75,213.82
             155.75,213.82 152.00,212.57 152.00,212.57
             152.00,212.57 158.25,201.32 158.25,201.32
             158.25,201.32 143.25,210.07 143.25,210.07
             143.25,210.07 140.75,213.82 140.75,213.82
             140.75,213.82 143.25,217.58 143.25,217.58
             143.25,217.58 138.25,218.83 138.25,218.83
             136.21,214.02 133.61,209.14 133.41,203.82
             133.02,193.62 137.77,193.35 134.50,175.07
             128.15,177.38 130.16,180.54 133.25,185.07
             133.25,185.07 123.25,183.82 123.25,183.82
             123.25,183.82 123.25,188.82 123.25,188.82
             123.25,188.82 110.75,191.32 110.75,191.32
             110.75,191.32 112.00,186.32 112.00,186.32
             98.69,183.08 99.43,186.84 88.25,191.32
             92.16,186.17 93.12,183.96 99.50,181.63
             108.93,178.18 112.89,182.96 114.50,173.82
             114.50,173.82 103.14,172.22 103.14,172.22
             103.14,172.22 95.75,175.07 95.75,175.07
             95.75,175.07 94.38,173.53 94.38,173.53
             94.38,173.53 77.00,171.32 77.00,171.32
             70.49,175.95 69.75,174.03 62.00,173.82
             62.00,173.82 67.00,170.07 67.00,170.07
             67.00,170.07 64.50,165.07 64.50,165.07
             64.50,165.07 67.00,160.06 67.00,160.06 Z
           M 100.75,298.84
           C 100.75,298.84 107.00,302.59 107.00,302.59
             107.00,302.59 138.25,304.87 138.25,304.87
             138.25,304.87 149.50,303.44 149.50,303.44
             149.50,303.44 165.39,304.54 165.39,304.54
             165.39,304.54 174.50,312.59 174.50,312.59
             165.98,313.72 159.31,313.34 153.25,320.10
             153.25,320.10 171.47,327.50 171.47,327.50
             171.47,327.50 185.75,322.60 185.75,322.60
             185.75,322.60 182.00,328.85 182.00,328.85
             182.00,328.85 185.75,330.10 185.75,330.10
             185.75,330.10 179.50,338.85 179.50,338.85
             179.50,338.85 175.75,337.60 175.75,337.60
             175.75,337.60 170.75,343.85 170.75,343.85
             170.75,343.85 177.00,343.85 177.00,343.85
             177.00,343.85 174.50,348.85 174.50,348.85
             174.50,348.85 164.96,347.25 164.96,347.25
             164.96,347.25 158.12,341.82 158.12,341.82
             158.12,341.82 148.25,342.60 148.25,342.60
             148.25,342.60 152.00,352.35 152.00,352.35
             152.00,352.35 147.00,352.35 147.00,352.35
             147.00,352.35 124.50,357.60 124.50,357.60
             124.50,357.60 124.50,351.35 124.50,351.35
             129.47,351.94 134.27,350.28 138.11,346.90
             139.91,345.30 142.39,342.15 139.14,340.50
             132.75,337.26 125.71,347.05 122.99,348.44
             115.98,352.01 106.55,341.69 103.25,336.35
             103.25,336.35 114.50,336.35 114.50,336.35
             115.76,329.20 121.51,329.42 127.00,325.10
             127.00,325.10 122.00,318.85 122.00,318.85
             122.00,318.85 139.50,325.10 139.50,325.10
             139.50,325.10 139.50,322.60 139.50,322.60
             139.50,322.60 123.25,311.34 123.25,311.34
             123.25,311.34 118.25,315.09 118.25,315.09
             118.25,315.09 119.50,311.34 119.50,311.34
             110.96,310.54 111.54,308.97 104.50,305.09
             104.00,306.86 104.02,309.11 102.00,307.59
             102.00,307.59 99.50,310.09 99.50,310.09
             98.64,304.49 98.42,304.12 100.75,298.84 Z
           M 165.75,436.37
           C 165.75,436.37 168.25,436.37 168.25,436.37
             170.21,440.03 178.05,451.92 181.99,452.52
             183.50,452.75 184.51,451.95 185.75,451.37
             186.62,463.52 195.21,473.80 208.25,468.79
             219.21,464.56 220.14,458.67 227.11,454.92
             236.65,449.80 253.61,454.37 257.00,465.12
             257.00,465.12 250.75,467.62 250.75,467.62
             250.75,467.62 252.00,462.62 252.00,462.62
             252.00,462.62 243.25,462.62 243.25,462.62
             243.25,462.62 247.00,463.87 247.00,463.87
             247.00,463.87 232.00,468.87 232.00,468.87
             232.00,468.87 218.25,472.63 218.25,472.63
             216.58,480.68 201.04,487.84 193.25,488.88
             186.49,479.56 184.38,495.86 176.97,495.68
             176.97,495.68 171.10,494.77 171.10,494.77
             163.60,494.13 154.91,494.63 148.38,490.27
             145.09,488.07 144.21,485.82 141.54,483.42
             134.31,476.95 135.24,481.04 130.75,470.13
             135.98,474.00 138.27,478.01 142.00,472.63
             146.69,474.95 148.14,475.48 150.75,480.13
             150.75,480.13 154.50,478.88 154.50,478.88
             154.50,478.88 153.25,475.13 153.25,475.13
             153.25,475.13 154.50,473.88 154.50,473.88
             154.50,473.88 157.00,475.13 157.00,475.13
             159.38,470.75 163.65,463.86 168.25,470.13
             168.25,470.13 175.75,467.62 175.75,467.62
             175.75,467.62 173.25,456.37 173.25,456.37
             173.25,456.37 169.50,455.12 169.50,455.12
             169.50,455.12 172.00,447.62 172.00,447.62
             172.00,447.62 167.00,447.62 167.00,447.62
             167.00,447.62 165.75,436.37 165.75,436.37 Z" />
</svg>
