<?xml version="1.0" encoding="UTF-8" standalone="no"?>
<!DOCTYPE svg PUBLIC "-//W3C//DTD SVG 20010904//EN"
              "http://www.w3.org/TR/2001/REC-SVG-20010904/DTD/svg10.dtd">

<svg xmlns="http://www.w3.org/2000/svg"
     width="0.544444in" height="0.266667in"
     viewBox="0 0 49 24">
  <path id="Selection"
        fill="currentColor" stroke="black" stroke-width="1"
        d="M 47.75,1.19
           C 47.75,1.19 30.96,12.13 30.96,12.13
             30.96,12.13 21.50,16.19 21.50,16.19
             21.50,16.19 16.50,14.94 16.50,14.94
             17.86,24.16 20.62,22.93 29.00,22.44
             29.00,22.44 32.75,14.94 32.75,14.94
             32.75,14.94 31.50,18.69 31.50,18.69
             31.50,18.69 37.75,17.44 37.75,17.44
             37.75,17.44 36.50,21.19 36.50,21.19
             36.50,21.19 45.25,19.94 45.25,19.94
             45.25,19.94 45.25,14.94 45.25,14.94
             45.25,14.94 40.25,13.69 40.25,13.69
             40.25,13.69 47.75,1.19 47.75,1.19 Z
           M 4.00,6.19
           C 1.08,11.23 1.51,14.30 1.50,19.94
             1.50,19.94 9.00,17.44 9.00,17.44
             9.00,17.44 10.25,22.44 10.25,22.44
             10.25,22.44 15.25,19.94 15.25,19.94
             15.25,19.94 14.00,18.69 14.00,18.69
             14.00,18.69 11.50,19.94 11.50,19.94
             11.45,15.48 10.90,15.22 6.50,14.94
             6.50,14.94 4.00,6.19 4.00,6.19 Z" />
</svg>
