<?xml version="1.0" encoding="UTF-8" standalone="no"?>
<!DOCTYPE svg PUBLIC "-//W3C//DTD SVG 20010904//EN"
              "http://www.w3.org/TR/2001/REC-SVG-20010904/DTD/svg10.dtd">

<svg xmlns="http://www.w3.org/2000/svg"
     width="4.81111in" height="5.51111in"
     viewBox="0 0 433 496">
  <path id="Selection"
        fill="currentColor" stroke="black" stroke-width="1"
        d="M 56.50,0.87
           C 56.50,0.87 45.25,12.12 45.25,12.12
             45.25,12.12 47.75,14.62 47.75,14.62
             38.31,12.93 36.90,12.17 30.25,19.62
             30.25,19.62 32.75,14.74 32.75,14.74
             26.54,14.62 11.24,12.26 6.85,14.74
             -2.29,20.00 -0.15,32.85 6.85,38.61
             8.92,40.19 11.69,41.17 14.00,42.13
             14.00,42.13 11.50,45.88 11.50,45.88
             13.99,57.99 12.96,54.51 10.25,65.88
             10.25,65.88 19.00,62.13 19.00,62.13
             19.00,62.13 16.50,69.63 16.50,69.63
             16.50,69.63 22.75,69.63 22.75,69.63
             19.29,77.39 23.70,76.57 24.00,84.64
             24.00,84.64 30.25,83.39 30.25,83.39
             30.25,83.39 27.75,92.14 27.75,92.14
             27.75,92.14 25.25,95.89 25.25,95.89
             25.86,99.94 25.04,101.65 29.00,103.39
             29.00,103.39 21.29,122.39 21.29,122.39
             21.29,122.39 21.29,128.40 21.29,128.40
             38.08,134.47 50.69,141.62 60.31,157.15
             64.09,163.25 67.12,177.52 71.50,180.91
             71.50,180.91 70.25,178.40 70.25,178.40
             70.25,178.40 74.00,183.41 74.00,183.41
             74.00,183.41 81.50,185.91 81.50,185.91
             81.50,185.91 81.50,188.41 81.50,188.41
             81.50,188.41 70.25,190.91 70.25,190.91
             67.88,206.31 60.86,219.63 50.16,230.87
             44.29,237.03 36.61,241.08 32.75,247.17
             32.75,247.17 39.56,254.16 39.56,254.16
             39.56,254.16 45.53,258.82 45.53,258.82
             45.53,258.82 51.50,265.92 51.50,265.92
             49.80,273.41 56.64,290.49 62.75,294.68
             62.75,294.68 69.30,308.46 69.30,308.46
             69.30,308.46 67.75,324.68 67.75,324.68
             67.75,324.68 65.25,327.18 65.25,327.18
             70.26,331.57 71.01,333.11 70.25,339.69
             66.54,334.20 65.16,333.27 59.00,330.93
             58.82,337.46 65.90,361.64 67.91,369.69
             67.91,369.69 82.91,429.70 82.91,429.70
             87.95,449.90 88.20,462.84 106.51,476.63
             114.42,482.58 124.49,478.74 134.00,479.38
             141.91,479.89 143.06,483.87 150.25,485.97
             150.25,485.97 151.50,482.21 151.50,482.21
             151.50,482.21 161.50,492.22 161.50,492.22
             171.88,490.93 167.72,488.62 179.00,490.97
             183.67,485.32 192.76,477.73 200.25,476.63
             204.54,476.00 206.47,477.53 210.25,477.51
             210.25,477.51 222.75,477.51 222.75,477.51
             222.70,470.25 223.70,458.35 226.89,452.21
             228.82,448.48 232.45,445.42 235.01,441.99
             235.01,441.99 242.38,431.13 242.38,431.13
             246.41,426.50 249.41,427.13 253.39,422.13
             259.35,414.60 260.59,406.94 263.38,398.45
             268.03,384.33 269.00,388.55 269.00,372.19
             269.00,372.19 264.00,369.61 264.00,369.61
             265.69,369.92 266.69,370.51 268.46,369.61
             273.29,366.88 273.86,353.11 272.75,348.44
             272.75,348.44 279.00,342.19 279.00,342.19
             279.66,336.59 280.41,336.19 285.25,333.44
             282.81,324.77 292.96,325.05 295.88,318.22
             297.75,314.21 295.09,311.74 295.88,304.73
             296.34,298.78 299.70,292.06 301.50,285.78
             303.62,286.09 304.04,286.50 306.29,285.78
             306.29,285.78 320.25,276.81 320.25,276.81
             320.25,276.81 329.00,272.64 329.00,272.64
             329.00,272.64 345.25,263.73 345.25,263.73
             345.25,263.73 353.79,260.78 353.79,260.78
             358.58,258.28 356.10,257.35 370.25,251.09
             378.60,247.41 380.94,248.39 384.00,246.98
             387.20,245.52 391.00,241.42 394.00,239.07
             397.74,236.12 405.70,231.48 408.20,228.04
             409.76,225.89 415.38,206.26 415.60,203.41
             416.06,197.73 415.05,190.44 419.00,185.91
             419.00,185.91 417.75,182.16 417.75,182.16
             424.11,182.98 424.58,180.37 425.25,174.65
             435.38,171.28 431.47,165.20 427.75,158.40
             419.33,160.46 410.28,168.17 402.75,172.88
             402.75,172.88 350.25,204.66 350.25,204.66
             346.40,206.86 326.86,218.16 324.07,218.40
             318.51,218.86 321.44,213.69 312.75,212.16
             312.75,212.16 318.71,230.30 318.71,230.30
             318.71,230.30 317.75,237.17 317.75,237.17
             317.75,237.17 309.00,234.67 309.00,234.67
             309.00,234.67 297.75,238.42 297.75,238.42
             297.75,238.42 296.50,233.42 296.50,233.42
             296.50,233.42 291.50,235.92 291.50,235.92
             291.50,235.92 290.25,233.42 290.25,233.42
             290.25,233.42 289.00,233.42 289.00,233.42
             287.01,234.67 286.45,235.35 284.00,235.99
             272.54,238.92 272.17,224.76 266.50,218.41
             265.92,221.94 265.53,224.90 261.42,225.88
             256.12,227.15 248.58,222.41 249.66,217.30
             250.09,215.29 251.45,214.62 252.75,213.41
             252.75,213.41 250.25,205.91 250.25,205.91
             243.66,206.61 234.99,202.17 231.06,196.70
             228.56,193.20 230.85,192.46 225.25,184.66
             225.25,184.66 227.75,178.40 227.75,178.40
             227.75,178.40 231.50,178.40 231.50,178.40
             231.50,178.40 232.75,173.40 232.75,173.40
             232.75,173.40 222.75,168.40 222.75,168.40
             226.61,161.81 228.89,165.71 237.75,167.15
             237.75,167.15 229.00,152.15 229.00,152.15
             238.20,154.09 241.70,158.65 251.50,155.90
             251.50,155.90 255.25,159.65 255.25,159.65
             259.76,150.81 261.95,149.09 271.50,152.15
             275.86,148.96 277.70,149.69 282.75,150.90
             278.03,138.08 283.42,137.61 276.50,133.40
             276.50,133.40 277.75,129.65 277.75,129.65
             277.75,129.65 272.75,129.65 272.75,129.65
             271.85,123.26 270.81,121.68 265.25,118.39
             265.25,118.39 266.50,114.64 266.50,114.64
             260.48,113.99 254.09,110.24 256.50,103.39
             248.08,96.44 252.21,96.78 249.61,88.39
             249.61,88.39 244.00,72.13 244.00,72.13
             239.21,71.75 229.29,68.40 227.79,63.21
             227.02,60.62 228.48,54.93 229.00,52.13
             229.00,52.13 219.00,44.63 219.00,44.63
             219.00,44.63 211.50,48.38 211.50,48.38
             210.14,43.79 209.61,43.35 212.75,39.63
             212.75,39.63 202.23,30.18 202.23,30.18
             202.23,30.18 195.25,19.62 195.25,19.62
             192.86,33.10 191.50,30.66 204.00,35.88
             204.00,35.88 197.75,35.88 197.75,35.88
             197.75,35.88 201.50,39.63 201.50,39.63
             201.50,39.63 197.75,45.88 197.75,45.88
             197.75,45.88 204.00,47.13 204.00,47.13
             204.00,47.13 201.50,52.13 201.50,52.13
             201.50,52.13 200.25,54.63 200.25,54.63
             200.25,54.63 197.75,58.38 197.75,58.38
             197.75,58.38 204.00,60.88 204.00,60.88
             204.00,60.88 201.50,65.88 201.50,65.88
             199.71,60.79 197.80,60.61 192.75,59.63
             192.88,76.21 190.25,66.46 182.75,87.14
             182.75,87.14 180.25,82.14 180.25,82.14
             180.25,82.14 177.75,89.64 177.75,89.64
             178.21,83.36 178.27,81.97 174.00,77.13
             174.00,77.13 172.75,93.39 172.75,93.39
             173.58,85.97 172.10,77.49 164.79,73.53
             162.34,72.30 160.30,72.63 157.78,73.53
             150.74,75.82 149.46,80.36 149.00,87.14
             149.00,87.14 145.25,83.39 145.25,83.39
             145.25,83.39 141.50,84.64 141.50,84.64
             143.44,79.66 143.74,79.54 141.50,74.63
             141.50,74.63 149.00,79.64 149.00,79.64
             149.00,79.64 147.75,64.63 147.75,64.63
             147.75,64.63 140.25,67.13 140.25,67.13
             140.25,67.13 137.75,60.88 137.75,60.88
             137.75,60.88 140.25,55.88 140.25,55.88
             140.25,55.88 133.74,50.95 133.74,50.95
             133.74,50.95 114.00,53.38 114.00,53.38
             118.73,52.84 131.70,50.95 131.99,44.60
             132.12,41.44 128.66,39.16 127.50,33.38
             125.98,25.72 130.02,24.61 122.75,18.37
             122.75,18.37 125.25,24.62 125.25,24.62
             125.25,24.62 122.75,28.38 122.75,28.38
             122.75,28.38 116.50,22.12 116.50,22.12
             109.76,24.76 99.49,29.33 93.36,22.96
             90.34,19.81 90.40,18.51 91.50,14.62
             91.50,14.62 86.50,14.62 86.50,14.62
             86.50,14.62 82.75,17.12 82.75,17.12
             82.75,17.12 85.25,14.62 85.25,14.62
             85.25,14.62 82.75,13.37 82.75,13.37
             82.75,13.37 81.50,14.62 81.50,14.62
             78.29,9.81 76.57,11.33 72.75,14.62
             72.75,14.62 72.75,5.87 72.75,5.87
             66.09,6.16 62.16,4.18 56.50,0.87 Z
           M 185.25,195.91
           C 190.30,184.18 194.80,186.44 205.25,183.41
             205.25,183.41 206.50,190.91 206.50,190.91
             206.50,190.91 214.00,193.41 214.00,193.41
             214.00,193.41 207.75,193.41 207.75,193.41
             207.75,193.41 210.25,199.66 210.25,199.66
             210.25,199.66 202.75,197.16 202.75,197.16
             199.85,192.33 198.12,192.47 192.75,192.16
             192.75,192.16 197.75,194.66 197.75,194.66
             197.75,194.66 197.75,202.16 197.75,202.16
             197.75,202.16 202.75,200.91 202.75,200.91
             202.75,200.91 202.75,207.16 202.75,207.16
             202.75,207.16 209.00,207.16 209.00,207.16
             209.00,207.16 205.25,214.66 205.25,214.66
             205.25,214.66 199.00,214.66 199.00,214.66
             199.00,214.66 199.00,209.66 199.00,209.66
             199.00,209.66 192.75,212.16 192.75,212.16
             192.75,212.16 192.75,207.16 192.75,207.16
             192.75,207.16 184.00,205.91 184.00,205.91
             184.00,205.91 191.50,198.41 191.50,198.41
             191.50,198.41 185.25,195.91 185.25,195.91 Z
           M 90.25,243.42
           C 90.25,243.42 96.50,243.42 96.50,243.42
             96.50,243.42 97.75,249.67 97.75,249.67
             97.75,249.67 92.75,250.92 92.75,250.92
             92.75,250.92 94.00,254.67 94.00,254.67
             94.00,254.67 90.25,258.42 90.25,258.42
             90.25,258.42 101.50,255.92 101.50,255.92
             101.50,255.92 95.25,259.67 95.25,259.67
             95.25,259.67 100.25,258.42 100.25,258.42
             92.88,267.11 82.92,270.70 72.75,264.67
             72.75,264.67 87.75,250.92 87.75,250.92
             87.75,250.92 84.00,248.42 84.00,248.42
             84.00,248.42 91.50,247.17 91.50,247.17
             91.50,247.17 90.25,243.42 90.25,243.42 Z
           M 42.75,257.17
           C 42.75,257.17 41.50,257.17 41.50,257.17
             41.50,257.17 42.75,258.42 42.75,258.42
             42.75,258.42 42.75,257.17 42.75,257.17 Z
           M 359.00,304.68
           C 334.03,297.47 320.39,311.68 305.09,329.16
             294.30,341.46 281.83,357.90 276.45,373.44
             276.45,373.44 274.59,383.45 274.59,383.45
             273.45,388.41 268.45,405.91 266.09,409.65
             264.06,412.84 253.19,424.33 250.25,426.88
             250.25,426.88 243.65,432.17 243.65,432.17
             243.65,432.17 228.14,454.92 228.14,454.92
             224.23,461.85 224.78,473.91 223.19,476.64
             219.30,483.25 212.59,486.83 210.25,494.72
             210.25,494.72 254.00,478.85 254.00,478.85
             254.00,478.85 269.00,473.46 269.00,473.46
             269.29,465.17 271.45,463.09 279.00,459.71
             279.00,459.71 281.50,453.46 281.50,453.46
             281.50,453.46 283.06,438.46 283.06,438.46
             283.06,438.46 280.81,429.70 280.81,429.70
             280.81,429.70 280.81,412.20 280.81,412.20
             280.81,412.20 285.25,385.98 285.25,385.98
             286.78,386.03 288.69,386.28 290.20,385.98
             292.49,385.63 293.97,384.75 295.49,383.00
             302.21,375.31 292.91,371.07 297.84,364.22
             304.66,354.71 311.45,359.02 316.50,356.21
             322.12,353.09 326.29,345.33 332.75,344.69
             332.75,344.69 340.36,338.81 340.36,338.81
             340.36,338.81 351.23,336.44 351.23,336.44
             351.23,336.44 362.75,318.43 362.75,318.43
             361.06,311.02 359.98,309.84 352.75,308.43
             352.75,308.43 359.00,304.68 359.00,304.68 Z
           M 280.25,459.71
           C 280.25,459.71 279.00,459.71 279.00,459.71
             279.00,459.71 280.25,460.96 280.25,460.96
             280.25,460.96 280.25,459.71 280.25,459.71 Z" />
</svg>
