<?xml version="1.0" encoding="UTF-8" standalone="no"?>
<!DOCTYPE svg PUBLIC "-//W3C//DTD SVG 20010904//EN"
              "http://www.w3.org/TR/2001/REC-SVG-20010904/DTD/svg10.dtd">

<svg xmlns="http://www.w3.org/2000/svg"
     width="2.08889in" height="3.81111in"
     viewBox="0 0 188 343">
  <path id="Selection"
        fill="currentColor" stroke="black" stroke-width="1"
        d="M 179.50,81.15
           C 182.81,72.07 184.85,48.06 185.79,37.40
             186.20,33.58 188.15,24.97 185.79,21.89
             184.11,19.86 180.62,19.87 178.25,19.54
             178.25,19.54 157.00,16.65 157.00,16.65
             157.00,16.65 105.75,7.64 105.75,7.64
             105.75,7.64 75.75,1.14 75.75,1.14
             75.75,1.14 73.25,14.89 73.25,14.89
             83.18,10.40 80.20,13.52 89.50,16.14
             89.50,16.14 87.00,19.89 87.00,19.89
             98.19,19.13 99.98,22.02 109.50,26.08
             114.38,28.16 115.26,27.22 119.50,31.14
             115.81,29.92 108.08,27.09 104.50,27.04
             98.76,26.97 98.90,30.07 85.75,28.17
             81.65,27.58 72.75,25.64 69.70,29.36
             68.21,31.18 64.59,47.65 63.71,51.15
             63.71,51.15 50.29,107.41 50.29,107.41
             50.29,107.41 20.29,232.43 20.29,232.43
             20.29,232.43 0.75,314.95 0.75,314.95
             0.75,314.95 42.00,323.70 42.00,323.70
             42.00,323.70 123.25,337.46 123.25,337.46
             123.25,337.46 153.25,341.18 153.25,341.18
             155.67,341.42 161.65,342.62 163.49,341.18
             166.00,339.17 165.75,328.23 165.75,324.95
             165.75,324.95 165.75,319.95 165.75,319.95
             165.75,319.95 167.00,298.70 167.00,298.70
             167.00,298.70 169.50,252.44 169.50,252.44
             169.50,252.44 170.75,228.68 170.75,228.68
             170.75,228.68 171.67,214.21 171.67,214.21
             171.67,214.21 173.25,173.67 173.25,173.67
             173.25,173.67 174.50,149.92 174.50,149.92
             174.55,138.19 176.18,121.46 178.25,109.91
             178.25,109.91 174.50,109.91 174.50,109.91
             174.50,109.91 175.75,113.66 175.75,113.66
             170.83,116.02 166.29,119.06 163.25,123.66
             163.25,123.66 159.50,121.16 159.50,121.16
             159.50,121.16 157.00,123.66 157.00,123.66
             157.00,123.66 163.25,112.41 163.25,112.41
             163.25,112.41 160.75,118.66 160.75,118.66
             166.39,116.06 174.83,108.31 168.25,102.41
             168.25,102.41 169.50,94.91 169.50,94.91
             167.81,90.26 175.10,82.39 179.50,81.15 Z" />
</svg>
