<?xml version="1.0" encoding="UTF-8" standalone="no"?>
<!DOCTYPE svg PUBLIC "-//W3C//DTD SVG 20010904//EN"
              "http://www.w3.org/TR/2001/REC-SVG-20010904/DTD/svg10.dtd">

<svg xmlns="http://www.w3.org/2000/svg"
     width="2.27778in" height="4in"
     viewBox="0 0 205 360">
  <path id="Selection"
        fill="currentColor" stroke="black" stroke-width="1"
        d="M 204.00,44.89
           C 175.36,39.13 125.89,22.65 97.75,12.32
             97.75,12.32 69.00,1.13 69.00,1.13
             69.00,1.13 27.23,101.15 27.23,101.15
             27.23,101.15 10.06,142.41 10.06,142.41
             10.06,142.41 1.28,164.91 1.28,164.91
             1.28,164.91 1.28,178.45 1.28,178.45
             1.28,178.45 5.25,188.67 5.25,188.67
             5.25,188.67 9.71,189.64 9.71,189.64
             9.71,189.64 15.30,205.02 15.30,205.02
             15.30,205.02 15.30,214.92 15.30,214.92
             20.64,216.58 21.15,219.82 20.25,224.92
             20.25,224.92 26.50,227.42 26.50,227.42
             26.50,227.42 29.00,242.43 29.00,242.43
             29.00,242.43 33.26,243.40 33.26,243.40
             33.26,243.40 39.01,262.43 39.01,262.43
             39.01,262.43 43.67,271.18 43.67,271.18
             43.67,271.18 47.03,281.50 47.03,281.50
             47.03,281.50 53.40,293.69 53.40,293.69
             53.40,293.69 49.91,322.44 49.91,322.44
             49.91,322.44 55.25,338.70 55.25,338.70
             55.25,338.70 77.75,345.30 77.75,345.30
             77.75,345.30 129.00,358.70 129.00,358.70
             129.00,358.70 147.60,282.44 147.60,282.44
             147.60,282.44 176.65,162.41 176.65,162.41
             176.65,162.41 192.29,97.40 192.29,97.40
             192.29,97.40 197.75,74.89 197.75,74.89
             193.56,77.26 193.54,77.70 192.75,82.40
             192.75,82.40 180.25,78.65 180.25,78.65
             180.25,78.65 199.19,64.36 199.19,64.36
             199.19,64.36 204.00,44.89 204.00,44.89 Z" />
</svg>
