<?xml version="1.0" encoding="UTF-8" standalone="no"?>
<!DOCTYPE svg PUBLIC "-//W3C//DTD SVG 20010904//EN"
              "http://www.w3.org/TR/2001/REC-SVG-20010904/DTD/svg10.dtd">

<svg xmlns="http://www.w3.org/2000/svg"
     width="3.05556in" height="5.34444in"
     viewBox="0 0 275 481">
  <path id="Selection"
        fill="currentColor" stroke="black" stroke-width="1"
        d="M 42.00,1.85
           C 37.31,9.10 41.40,17.47 41.20,25.61
             41.10,30.11 39.03,33.00 37.00,36.86
             44.88,36.86 58.29,40.02 62.00,30.61
             62.00,30.61 77.00,34.36 77.00,34.36
             77.00,34.36 74.89,50.61 74.89,50.61
             74.89,50.61 76.15,59.36 76.15,59.36
             76.15,59.36 76.15,66.87 76.15,66.87
             76.15,66.87 79.50,85.62 79.50,85.62
             76.22,88.54 76.62,93.91 76.10,98.12
             74.76,109.02 75.73,118.24 70.75,128.13
             70.75,128.13 69.50,143.13 69.50,143.13
             74.38,147.97 79.29,159.01 81.96,165.52
             82.90,167.82 84.91,170.71 84.46,173.20
             83.94,176.11 80.45,178.89 78.59,182.00
             78.59,182.00 73.25,194.39 73.25,194.39
             73.25,194.39 79.50,191.89 79.50,191.89
             79.50,191.89 70.75,198.14 70.75,198.14
             70.75,198.14 70.75,200.64 70.75,200.64
             70.75,200.64 72.00,200.64 72.00,200.64
             72.00,200.64 74.50,203.14 74.50,203.14
             66.70,200.85 64.22,201.03 63.25,209.39
             63.25,209.39 58.25,204.39 58.25,204.39
             58.25,204.39 58.25,216.89 58.25,216.89
             58.25,216.89 55.75,206.89 55.75,206.89
             54.22,209.92 53.08,210.69 55.75,213.14
             55.75,213.14 54.50,219.40 54.50,219.40
             54.50,219.40 62.00,221.90 62.00,221.90
             62.00,221.90 54.50,220.65 54.50,220.65
             54.50,220.65 52.00,240.65 52.00,240.65
             52.00,240.65 49.50,225.65 49.50,225.65
             46.71,230.78 48.26,241.64 48.25,248.15
             48.25,248.15 54.50,241.90 54.50,241.90
             54.50,241.90 56.14,244.20 56.14,244.20
             56.14,244.20 62.05,240.64 62.05,240.64
             62.05,240.64 74.50,235.65 74.50,235.65
             74.50,235.65 73.25,238.15 73.25,238.15
             73.25,238.15 72.00,238.15 72.00,238.15
             72.00,238.15 72.00,240.65 72.00,240.65
             72.00,240.65 74.50,241.90 74.50,241.90
             74.50,241.90 74.50,243.15 74.50,243.15
             69.34,241.19 65.61,243.61 67.77,249.06
             69.51,253.46 71.68,249.78 75.75,260.65
             75.75,260.65 73.25,254.40 73.25,254.40
             73.25,254.40 62.01,245.65 62.01,245.65
             62.01,245.65 62.01,259.74 62.01,259.74
             62.01,259.74 62.01,270.66 62.01,270.66
             62.01,270.66 67.00,268.15 67.00,268.15
             67.00,268.15 67.00,269.40 67.00,269.40
             67.00,269.40 64.50,271.91 64.50,271.91
             64.50,271.91 67.00,275.66 67.00,275.66
             67.00,275.66 64.50,273.16 64.50,273.16
             64.50,273.16 63.25,273.16 63.25,273.16
             63.25,273.16 58.25,280.66 58.25,280.66
             58.25,280.66 62.00,279.41 62.00,279.41
             62.00,279.41 59.50,285.66 59.50,285.66
             59.50,285.66 60.75,285.66 60.75,285.66
             60.75,285.66 63.25,283.16 63.25,283.16
             63.25,283.16 60.75,288.16 60.75,288.16
             60.75,288.16 69.50,288.16 69.50,288.16
             69.50,288.16 69.50,283.16 69.50,283.16
             69.50,283.16 70.75,288.16 70.75,288.16
             76.77,285.81 79.43,284.73 83.25,279.41
             81.51,285.12 80.34,285.95 74.50,286.91
             74.50,286.91 73.25,291.91 73.25,291.91
             73.25,291.91 79.50,295.66 79.50,295.66
             79.50,295.66 75.75,294.41 75.75,294.41
             75.75,294.41 75.75,304.41 75.75,304.41
             75.75,304.41 73.25,293.16 73.25,293.16
             73.25,293.16 65.75,296.91 65.75,296.91
             55.58,295.55 53.15,298.77 52.00,308.16
             52.00,308.16 55.75,304.41 55.75,304.41
             55.75,304.41 63.25,304.41 63.25,304.41
             63.25,304.41 59.50,305.66 59.50,305.66
             59.50,305.66 59.50,306.91 59.50,306.91
             59.50,306.91 62.00,309.41 62.00,309.41
             56.31,308.66 55.36,310.06 50.75,313.16
             50.75,313.16 55.75,318.16 55.75,318.16
             55.75,318.16 47.00,315.66 47.00,315.66
             47.00,315.66 49.50,320.67 49.50,320.67
             48.44,327.09 49.70,327.89 53.25,333.17
             53.25,333.17 58.25,330.67 58.25,330.67
             58.25,330.67 59.50,334.42 59.50,334.42
             59.50,334.42 64.50,331.92 64.50,331.92
             64.50,331.92 68.25,338.17 68.25,338.17
             68.25,338.17 62.00,335.67 62.00,335.67
             62.00,335.67 68.25,339.42 68.25,339.42
             68.25,339.42 69.50,343.17 69.50,343.17
             69.50,343.17 65.75,344.42 65.75,344.42
             73.29,347.07 72.61,345.98 79.50,343.17
             79.50,343.17 80.75,338.17 80.75,338.17
             80.56,348.16 70.41,347.55 63.25,348.17
             63.25,348.17 69.50,354.42 69.50,354.42
             69.50,354.42 78.25,350.67 78.25,350.67
             74.35,353.02 73.08,354.92 74.50,359.42
             74.50,359.42 77.00,354.42 77.00,354.42
             77.00,354.42 78.25,359.42 78.25,359.42
             78.25,359.42 92.00,350.67 92.00,350.67
             92.00,350.67 88.25,351.92 88.25,351.92
             87.64,356.62 86.09,357.40 82.00,359.42
             82.00,359.42 82.00,365.67 82.00,365.67
             82.00,365.67 93.25,365.67 93.25,365.67
             93.25,365.67 85.75,365.67 85.75,365.67
             85.75,365.67 85.75,371.93 85.75,371.93
             85.75,371.93 79.50,373.18 79.50,373.18
             80.52,377.05 81.93,384.30 87.02,384.34
             87.02,384.34 97.00,380.68 97.00,380.68
             97.00,380.68 97.00,375.68 97.00,375.68
             97.00,375.68 98.25,381.93 98.25,381.93
             98.25,381.93 93.25,381.93 93.25,381.93
             93.25,381.93 92.00,393.18 92.00,393.18
             92.00,393.18 95.75,394.43 95.75,394.43
             90.40,396.33 90.88,398.14 94.50,401.93
             94.50,401.93 103.25,395.68 103.25,395.68
             100.84,399.89 95.51,409.60 105.75,405.68
             105.75,405.68 104.50,410.68 104.50,410.68
             104.50,410.68 97.00,409.43 97.00,409.43
             97.00,409.43 102.00,413.18 102.00,413.18
             102.00,413.18 97.00,414.43 97.00,414.43
             97.00,414.43 107.01,420.81 107.01,420.81
             107.01,420.81 135.75,433.54 135.75,433.54
             176.36,451.07 217.59,465.47 259.50,479.45
             259.50,479.45 254.09,461.89 254.09,461.89
             254.09,461.89 257.23,449.44 257.23,449.44
             257.23,449.44 257.23,430.69 257.23,430.69
             257.23,430.69 253.25,431.94 253.25,431.94
             253.25,431.94 248.05,413.40 248.05,413.40
             248.05,413.40 242.53,402.46 242.53,402.46
             242.53,402.46 239.50,388.18 239.50,388.18
             233.11,387.25 234.09,380.78 231.84,375.81
             228.29,367.95 222.96,371.65 225.75,360.67
             225.75,360.67 218.25,360.67 218.25,360.67
             221.39,347.06 217.35,345.57 217.00,334.42
             210.89,332.93 211.44,331.08 208.46,326.19
             207.00,323.78 205.60,322.40 204.82,319.50
             202.54,311.08 210.90,293.66 214.31,285.66
             214.31,285.66 250.03,199.39 250.03,199.39
             250.03,199.39 273.25,141.88 273.25,141.88
             273.25,141.88 242.00,127.74 242.00,127.74
             242.00,127.74 192.00,102.73 192.00,102.73
             144.00,76.77 82.99,37.41 42.00,1.85 Z
           M 13.25,191.89
           C 13.25,191.89 10.75,191.89 10.75,191.89
             4.99,201.50 3.44,207.64 8.25,218.14
             8.25,218.14 3.25,216.89 3.25,216.89
             3.25,216.89 3.25,221.90 3.25,221.90
             3.25,221.90 8.25,224.40 8.25,224.40
             8.25,224.40 8.25,221.90 8.25,221.90
             8.25,221.90 13.14,222.61 13.14,222.61
             13.14,222.61 20.50,215.77 20.50,215.77
             20.50,215.77 30.75,205.64 30.75,205.64
             30.75,205.64 23.25,204.39 23.25,204.39
             18.86,209.99 17.96,211.37 10.75,211.89
             10.75,211.89 12.00,210.64 12.00,210.64
             12.00,210.64 10.75,208.14 10.75,208.14
             13.15,208.13 17.93,208.47 19.83,206.91
             25.38,202.33 18.01,199.83 14.50,199.39
             14.50,199.39 18.25,196.89 18.25,196.89
             18.25,196.89 13.25,191.89 13.25,191.89 Z
           M 73.25,194.39
           C 73.25,194.39 68.25,198.14 68.25,198.14
             68.25,198.14 73.25,194.39 73.25,194.39 Z
           M 48.25,218.14
           C 48.25,218.14 44.50,219.40 44.50,219.40
             44.50,219.40 44.50,224.40 44.50,224.40
             48.74,222.90 48.84,222.57 48.25,218.14 Z
           M 3.25,223.15
           C 3.25,223.15 2.00,223.15 2.00,223.15
             2.00,223.15 3.25,224.40 3.25,224.40
             3.25,224.40 3.25,223.15 3.25,223.15 Z
           M 14.50,225.65
           C 14.50,225.65 3.25,224.40 3.25,224.40
             3.25,224.40 3.25,225.65 3.25,225.65
             3.25,225.65 5.75,228.15 5.75,228.15
             5.75,228.15 2.00,229.40 2.00,229.40
             2.00,229.40 2.00,234.40 2.00,234.40
             2.00,234.40 5.75,233.15 5.75,233.15
             2.96,240.64 2.23,244.31 8.25,250.65
             6.17,241.90 7.05,240.52 8.25,231.90
             8.25,231.90 12.00,236.90 12.00,236.90
             12.00,236.90 9.50,229.40 9.50,229.40
             9.50,229.40 14.50,231.90 14.50,231.90
             14.50,231.90 14.50,225.65 14.50,225.65 Z
           M 40.75,229.40
           C 39.58,235.04 41.03,243.37 45.75,246.90
             45.69,239.46 45.46,235.50 40.75,229.40 Z
           M 5.75,249.40
           C 4.25,253.98 5.22,255.84 8.25,259.40
             8.25,259.40 5.75,249.40 5.75,249.40 Z
           M 58.25,250.65
           C 58.25,250.65 50.75,260.65 50.75,260.65
             50.75,260.65 55.75,258.15 55.75,258.15
             55.75,258.15 49.50,261.90 49.50,261.90
             49.50,261.90 50.75,268.15 50.75,268.15
             50.75,268.15 58.25,263.15 58.25,263.15
             58.25,263.15 53.25,271.91 53.25,271.91
             61.57,265.32 62.20,260.15 58.25,250.65 Z
           M 9.50,255.65
           C 9.50,255.65 8.25,255.65 8.25,255.65
             8.25,255.65 9.50,256.90 9.50,256.90
             9.50,256.90 9.50,255.65 9.50,255.65 Z
           M 53.25,271.91
           C 51.78,274.89 51.83,274.93 54.50,276.91
             54.50,276.91 53.25,271.91 53.25,271.91 Z
           M 72.00,289.41
           C 72.00,289.41 57.00,293.16 57.00,293.16
             57.00,293.16 58.25,296.91 58.25,296.91
             58.25,296.91 72.00,289.41 72.00,289.41 Z
           M 79.50,400.68
           C 78.21,393.77 73.84,392.60 72.66,386.93
             72.21,384.84 72.69,382.78 72.66,380.69
             72.66,380.69 70.70,359.64 70.70,359.64
             67.90,354.25 55.56,345.67 50.78,340.31
             41.81,330.30 44.79,322.64 29.50,321.92
             29.94,325.73 29.00,329.55 33.25,330.67
             34.35,334.23 36.20,334.07 39.50,333.17
             39.50,333.17 34.50,328.17 34.50,328.17
             34.50,328.17 43.25,335.67 43.25,335.67
             43.25,335.67 39.50,339.42 39.50,339.42
             39.50,339.42 33.25,334.42 33.25,334.42
             33.25,334.42 33.25,341.92 33.25,341.92
             33.25,341.92 29.50,343.17 29.50,343.17
             29.50,343.17 37.00,345.67 37.00,345.67
             37.00,345.67 35.75,350.67 35.75,350.67
             35.75,350.67 39.50,348.17 39.50,348.17
             39.50,348.17 39.50,349.42 39.50,349.42
             39.50,349.42 42.00,351.92 42.00,351.92
             42.00,351.92 38.25,356.92 38.25,356.92
             38.25,356.92 43.25,355.67 43.25,355.67
             43.25,355.67 47.00,359.42 47.00,359.42
             47.00,359.42 44.50,365.67 44.50,365.67
             44.50,365.67 49.50,365.67 49.50,365.67
             48.10,369.75 50.42,370.30 53.25,373.18
             48.01,370.39 45.44,368.51 42.00,374.43
             42.00,374.43 45.75,378.18 45.75,378.18
             48.61,375.46 50.34,381.10 50.75,383.18
             50.75,383.18 54.50,389.43 54.50,389.43
             54.50,389.43 50.75,390.68 50.75,390.68
             50.75,390.68 52.00,395.68 52.00,395.68
             52.00,395.68 55.75,394.43 55.75,394.43
             55.75,394.43 57.00,398.18 57.00,398.18
             57.00,398.18 58.25,398.18 58.25,398.18
             58.25,398.18 60.75,395.68 60.75,395.68
             60.75,395.68 62.00,399.43 62.00,399.43
             62.00,399.43 69.50,394.43 69.50,394.43
             64.62,400.41 63.75,400.13 57.00,403.18
             59.65,407.83 60.61,407.54 65.75,408.18
             65.75,408.18 62.00,409.43 62.00,409.43
             62.00,409.43 77.00,429.44 77.00,429.44
             77.00,429.44 84.50,429.44 84.50,429.44
             84.50,429.44 85.75,424.44 85.75,424.44
             85.75,424.44 82.00,424.44 82.00,424.44
             84.56,417.41 86.86,405.31 79.50,400.68 Z" />
</svg>
