<?xml version="1.0" encoding="UTF-8" standalone="no"?>
<!DOCTYPE svg PUBLIC "-//W3C//DTD SVG 20010904//EN"
              "http://www.w3.org/TR/2001/REC-SVG-20010904/DTD/svg10.dtd">

<svg xmlns="http://www.w3.org/2000/svg"
     width="1.27778in" height="1.03333in"
     viewBox="0 0 115 93">
  <path id="Selection"
        fill="currentColor" stroke="black" stroke-width="1"
        d="M 74.25,0.94
           C 74.25,0.94 65.50,0.94 65.50,0.94
             65.50,0.94 60.50,10.94 60.50,10.94
             58.36,9.58 55.39,7.41 53.00,6.78
             49.70,5.89 39.80,6.75 37.17,8.94
             33.78,11.76 33.10,16.49 26.55,19.78
             21.80,22.17 19.16,20.67 15.61,21.72
             12.62,22.60 10.38,25.25 8.00,27.19
             8.00,27.19 10.17,37.19 10.17,37.19
             10.17,37.19 1.75,50.95 1.75,50.95
             10.12,48.46 10.56,42.06 16.80,41.92
             24.45,41.73 27.91,47.53 30.83,53.45
             30.83,53.45 44.25,83.45 44.25,83.45
             44.25,83.45 53.00,82.20 53.00,82.20
             53.00,82.20 54.25,83.45 54.25,83.45
             54.25,83.45 53.00,87.20 53.00,87.20
             56.09,90.67 57.88,95.36 61.75,89.70
             61.75,89.70 64.25,92.20 64.25,92.20
             64.25,92.20 65.50,92.20 65.50,92.20
             65.50,92.20 70.50,92.20 70.50,92.20
             70.50,92.20 75.50,85.95 75.50,85.95
             80.61,84.88 80.90,82.99 83.00,78.45
             90.41,77.04 91.91,71.79 95.57,65.95
             100.31,58.42 106.99,54.23 99.25,45.95
             99.25,45.95 106.75,49.70 106.75,49.70
             107.89,41.81 108.79,41.29 113.00,34.69
             99.70,36.48 99.16,40.47 89.25,28.44
             81.81,27.03 83.26,24.63 81.75,18.44
             81.75,18.44 71.75,23.44 71.75,23.44
             77.58,8.76 74.19,14.08 74.25,0.94 Z
           M 114.25,33.44
           C 114.25,33.44 113.00,33.44 113.00,33.44
             113.00,33.44 114.25,34.69 114.25,34.69
             114.25,34.69 114.25,33.44 114.25,33.44 Z" />
</svg>
