<?xml version="1.0" encoding="UTF-8" standalone="no"?>
<!DOCTYPE svg PUBLIC "-//W3C//DTD SVG 20010904//EN"
              "http://www.w3.org/TR/2001/REC-SVG-20010904/DTD/svg10.dtd">

<svg xmlns="http://www.w3.org/2000/svg"
     width="4.24444in" height="3.02222in"
     viewBox="0 0 382 272">
  <path id="Selection"
        fill="currentColor" stroke="black" stroke-width="1"
        d="M 4.75,0.87
           C 4.75,0.87 2.25,0.87 2.25,0.87
             2.25,0.87 1.00,13.38 1.00,13.38
             1.00,13.38 9.75,10.87 9.75,10.87
             8.40,7.11 8.45,7.36 4.75,5.87
             4.75,5.87 4.75,0.87 4.75,0.87 Z
           M 12.25,7.12
           C 6.83,16.08 11.89,25.38 22.25,25.88
             22.25,25.88 22.25,23.38 22.25,23.38
             22.25,23.38 18.50,23.38 18.50,23.38
             18.50,23.38 24.75,14.63 24.75,14.63
             24.75,14.63 21.00,15.88 21.00,15.88
             21.00,15.88 22.25,13.38 22.25,13.38
             22.25,13.38 21.00,12.13 21.00,12.13
             21.00,12.13 18.50,15.88 18.50,15.88
             17.04,12.78 16.90,13.30 13.50,13.38
             13.50,13.38 16.00,8.37 16.00,8.37
             16.00,8.37 12.25,7.12 12.25,7.12 Z
           M 27.25,17.13
           C 27.25,17.13 22.25,23.38 22.25,23.38
             30.54,23.24 30.90,25.97 26.00,32.13
             32.39,36.34 29.50,37.36 27.25,48.38
             34.72,51.33 35.38,53.62 43.50,50.88
             43.50,50.88 50.01,72.14 50.01,72.14
             50.01,72.14 51.45,80.68 51.45,80.68
             51.45,80.68 56.00,92.14 56.00,92.14
             63.12,94.90 61.91,95.72 69.75,94.64
             67.10,104.11 68.88,102.17 73.50,110.89
             73.50,110.89 81.00,109.64 81.00,109.64
             81.00,109.64 81.00,130.90 81.00,130.90
             81.00,130.90 86.00,133.40 86.00,133.40
             86.00,133.40 76.00,142.15 76.00,142.15
             76.00,142.15 82.25,145.90 82.25,145.90
             82.25,145.90 91.00,147.15 91.00,147.15
             91.00,147.15 88.50,144.65 88.50,144.65
             88.50,144.65 94.75,135.90 94.75,135.90
             96.44,140.79 98.95,142.45 103.50,144.65
             103.50,144.65 97.25,149.65 97.25,149.65
             97.25,149.65 99.75,150.90 99.75,150.90
             99.75,150.90 87.25,158.40 87.25,158.40
             84.46,154.74 84.19,154.92 79.75,155.90
             79.75,155.90 74.75,167.16 74.75,167.16
             74.75,167.16 67.25,168.41 67.25,168.41
             65.14,162.49 64.52,163.29 66.00,157.15
             66.00,157.15 71.00,158.40 71.00,158.40
             71.00,158.40 74.75,154.65 74.75,154.65
             73.46,151.06 73.55,151.27 76.00,148.40
             76.00,148.40 73.50,138.40 73.50,138.40
             65.08,140.78 67.58,139.38 59.75,138.40
             59.75,138.40 58.50,145.90 58.50,145.90
             58.50,145.90 54.02,147.71 54.02,147.71
             54.02,147.71 33.50,143.40 33.50,143.40
             33.50,143.40 39.75,155.90 39.75,155.90
             39.75,155.90 32.25,155.90 32.25,155.90
             32.25,155.90 33.50,165.91 33.50,165.91
             25.08,169.69 29.59,171.02 29.75,180.91
             36.70,183.70 36.76,184.98 40.95,186.92
             40.95,186.92 48.54,189.17 48.54,189.17
             53.36,191.85 53.94,198.54 53.50,203.41
             53.50,203.41 48.50,202.16 48.50,202.16
             48.50,202.16 51.00,207.16 51.00,207.16
             51.00,207.16 59.75,208.41 59.75,208.41
             59.75,208.41 61.00,195.91 61.00,195.91
             61.00,195.91 69.75,199.66 69.75,199.66
             69.92,210.53 74.33,213.00 82.25,218.49
             91.62,210.21 93.25,218.13 99.86,218.49
             105.25,219.07 104.07,215.88 112.25,218.49
             112.25,218.49 113.50,214.67 113.50,214.67
             108.59,209.95 108.26,203.61 105.99,197.16
             105.15,194.80 103.24,190.82 103.49,188.46
             103.85,185.08 106.59,184.35 108.50,177.16
             108.50,177.16 111.00,177.16 111.00,177.16
             111.00,177.16 118.50,182.16 118.50,182.16
             113.99,186.36 111.60,187.38 109.75,193.41
             118.31,194.79 118.59,198.67 123.50,198.47
             127.38,198.31 144.06,188.08 148.50,185.56
             148.50,185.56 198.50,155.38 198.50,155.38
             198.50,155.38 220.99,141.04 220.99,141.04
             226.90,139.29 228.60,146.44 234.75,152.15
             234.75,152.15 241.70,130.01 241.70,130.01
             242.10,127.15 242.41,123.30 239.91,121.26
             237.74,119.50 232.69,119.97 229.75,119.65
             234.56,118.61 235.54,118.72 238.50,114.65
             238.50,114.65 224.75,118.40 224.75,118.40
             224.75,118.40 229.75,115.90 229.75,115.90
             229.75,115.90 228.50,110.89 228.50,110.89
             228.50,110.89 223.50,109.64 223.50,109.64
             223.50,109.64 228.50,105.89 228.50,105.89
             228.50,105.89 222.45,105.89 222.45,105.89
             222.69,103.79 223.32,101.96 222.45,99.78
             220.64,93.39 204.75,92.67 200.04,96.03
             196.90,98.25 197.89,102.78 196.00,108.39
             196.00,108.39 194.75,103.39 194.75,103.39
             194.75,103.39 191.00,104.64 191.00,104.64
             191.85,102.77 193.05,100.79 192.86,98.62
             192.47,94.40 186.01,91.42 182.25,91.64
             177.06,91.95 172.48,95.53 169.75,99.64
             169.75,99.64 179.75,97.14 179.75,97.14
             168.29,101.89 169.29,107.14 165.90,116.93
             163.29,124.43 158.10,134.44 152.32,139.65
             152.32,139.65 152.32,124.60 152.32,124.60
             152.32,124.60 163.50,109.64 163.50,109.64
             163.50,109.64 162.25,108.39 162.25,108.39
             162.25,108.39 153.50,113.40 153.50,113.40
             167.11,104.94 166.20,94.73 176.00,87.14
             176.00,87.14 174.75,83.39 174.75,83.39
             174.75,83.39 177.25,79.64 177.25,79.64
             177.25,79.64 159.75,83.39 159.75,83.39
             158.81,87.11 153.14,87.88 149.95,86.24
             149.95,86.24 144.75,82.14 144.75,82.14
             144.75,82.14 142.25,87.14 142.25,87.14
             142.25,87.14 141.00,82.14 141.00,82.14
             141.00,82.14 137.25,99.64 137.25,99.64
             137.25,99.64 138.50,85.89 138.50,85.89
             138.50,85.89 131.00,89.64 131.00,89.64
             131.00,89.64 133.50,84.64 133.50,84.64
             133.50,84.64 127.25,94.64 127.25,94.64
             127.25,94.64 127.25,89.64 127.25,89.64
             127.25,89.64 122.25,98.39 122.25,98.39
             122.25,98.39 123.50,94.64 123.50,94.64
             123.50,94.64 118.50,82.14 118.50,82.14
             118.50,82.14 117.25,82.14 117.25,82.14
             117.25,82.14 114.75,84.64 114.75,84.64
             114.75,84.64 113.50,80.89 113.50,80.89
             113.50,80.89 109.75,82.14 109.75,82.14
             109.75,82.14 109.75,79.64 109.75,79.64
             109.75,79.64 102.25,82.14 102.25,82.14
             102.25,82.14 103.50,79.64 103.50,79.64
             103.50,79.64 97.25,80.89 97.25,80.89
             97.25,80.89 94.75,75.89 94.75,75.89
             94.75,75.89 84.75,79.64 84.75,79.64
             84.75,79.64 86.00,74.64 86.00,74.64
             86.00,74.64 79.75,75.89 79.75,75.89
             79.75,75.89 82.25,70.89 82.25,70.89
             82.25,70.89 77.25,72.14 77.25,72.14
             76.17,69.40 74.94,70.39 72.25,70.89
             72.25,70.89 84.75,65.89 84.75,65.89
             84.75,65.89 78.50,64.64 78.50,64.64
             78.50,64.64 82.25,62.13 82.25,62.13
             82.25,62.13 82.25,52.13 82.25,52.13
             82.25,52.13 71.00,54.63 71.00,54.63
             71.00,54.63 71.00,48.38 71.00,48.38
             71.00,48.38 59.75,50.88 59.75,50.88
             64.50,49.04 64.71,46.81 66.00,42.13
             62.75,40.54 60.29,38.33 57.25,40.88
             57.25,40.88 52.25,40.88 52.25,40.88
             52.25,40.88 54.75,35.88 54.75,35.88
             45.73,36.93 47.09,39.41 42.25,45.88
             42.25,45.88 46.00,37.13 46.00,37.13
             46.00,37.13 47.25,29.63 47.25,29.63
             47.25,29.63 43.50,27.13 43.50,27.13
             43.50,27.13 37.25,32.13 37.25,32.13
             37.25,32.13 34.75,38.38 34.75,38.38
             34.59,28.99 40.67,26.42 36.00,24.63
             36.00,24.63 37.25,20.88 37.25,20.88
             37.25,20.88 31.00,22.13 31.00,22.13
             31.00,22.13 27.25,17.13 27.25,17.13 Z
           M 61.00,37.13
           C 61.00,37.13 59.75,37.13 59.75,37.13
             59.75,37.13 61.00,38.38 61.00,38.38
             61.00,38.38 61.00,37.13 61.00,37.13 Z
           M 256.00,133.40
           C 256.00,133.40 252.25,135.90 252.25,135.90
             252.25,135.90 254.75,138.40 254.75,138.40
             254.75,138.40 248.50,137.15 248.50,137.15
             246.64,141.54 242.75,148.96 242.39,153.40
             242.06,161.93 245.49,165.27 242.39,174.66
             242.39,174.66 244.75,175.91 244.75,175.91
             244.75,175.91 246.00,174.66 246.00,174.66
             242.69,181.86 245.88,195.05 251.00,200.91
             247.62,206.23 251.01,207.58 256.00,208.41
             256.00,208.41 249.75,210.91 249.75,210.91
             249.97,217.30 250.24,220.42 257.25,217.17
             257.25,217.17 259.75,218.42 259.75,218.42
             259.75,218.42 256.00,223.42 256.00,223.42
             256.00,223.42 262.25,224.67 262.25,224.67
             251.59,226.09 250.88,227.56 254.75,242.17
             254.75,242.17 261.00,240.92 261.00,240.92
             261.00,240.92 253.50,267.18 253.50,267.18
             261.86,272.46 267.59,273.69 271.00,262.17
             271.00,262.17 273.50,263.42 273.50,263.42
             273.50,263.42 274.75,262.17 274.75,262.17
             274.75,262.17 273.50,257.17 273.50,257.17
             273.50,257.17 276.00,259.67 276.00,259.67
             276.00,259.67 277.25,259.67 277.25,259.67
             277.25,259.67 282.25,254.67 282.25,254.67
             287.56,255.12 288.07,253.99 292.25,250.92
             292.25,250.92 292.25,247.17 292.25,247.17
             292.25,247.17 293.50,250.92 293.50,250.92
             293.50,250.92 303.50,245.92 303.50,245.92
             303.50,245.92 302.25,243.42 302.25,243.42
             302.25,243.42 307.25,242.17 307.25,242.17
             307.25,242.17 304.75,239.67 304.75,239.67
             304.75,239.67 309.75,240.92 309.75,240.92
             309.75,240.92 307.25,235.92 307.25,235.92
             307.25,235.92 309.75,238.42 309.75,238.42
             309.75,238.42 311.00,238.42 311.00,238.42
             311.00,238.42 309.75,232.17 309.75,232.17
             309.75,232.17 313.50,234.67 313.50,234.67
             313.50,234.67 314.75,224.67 314.75,224.67
             314.75,224.67 316.00,233.42 316.00,233.42
             316.00,233.42 321.00,229.67 321.00,229.67
             321.00,229.67 319.75,233.42 319.75,233.42
             319.75,233.42 321.00,234.67 321.00,234.67
             321.00,234.67 326.00,234.67 326.00,234.67
             326.00,234.67 323.50,225.92 323.50,225.92
             328.78,224.99 328.71,224.39 331.00,219.67
             331.00,219.67 332.25,224.67 332.25,224.67
             332.25,224.67 336.00,219.67 336.00,219.67
             336.00,219.67 332.69,230.92 332.69,230.92
             332.69,230.92 332.69,240.87 332.69,240.87
             332.69,240.87 327.25,250.92 327.25,250.92
             336.88,252.16 339.15,244.96 339.75,237.17
             339.75,237.17 337.25,237.17 337.25,237.17
             337.25,237.17 338.50,225.92 338.50,225.92
             345.24,224.13 342.28,212.25 341.00,207.16
             341.00,207.16 356.00,213.41 356.00,213.41
             355.31,220.14 356.00,228.43 362.25,232.17
             362.25,232.17 364.75,215.92 364.75,215.92
             366.12,219.82 365.84,220.59 369.75,222.17
             369.56,227.09 370.04,228.06 374.75,229.67
             374.75,229.67 376.00,223.42 376.00,223.42
             376.00,223.42 381.00,224.67 381.00,224.67
             381.00,224.67 375.19,207.16 375.19,207.16
             375.19,207.16 371.34,197.44 371.34,197.44
             371.34,197.44 366.00,193.41 366.00,193.41
             366.00,193.41 367.25,207.16 367.25,207.16
             367.25,207.16 359.75,203.41 359.75,203.41
             359.75,203.41 356.00,185.91 356.00,185.91
             352.62,201.81 354.05,194.69 357.25,209.66
             357.25,209.66 346.00,205.91 346.00,205.91
             346.00,205.91 347.25,198.41 347.25,198.41
             347.25,198.41 342.25,202.16 342.25,202.16
             342.25,202.16 338.50,198.41 338.50,198.41
             338.50,198.41 338.50,195.91 338.50,195.91
             345.11,193.49 345.31,191.31 344.75,184.66
             349.22,181.56 348.04,179.53 344.75,175.91
             344.75,175.91 344.75,182.16 344.75,182.16
             344.75,182.16 339.75,180.91 339.75,180.91
             339.75,180.91 339.75,189.66 339.75,189.66
             339.75,189.66 337.25,185.91 337.25,185.91
             337.25,185.91 332.25,195.91 332.25,195.91
             332.25,195.91 336.00,187.16 336.00,187.16
             336.00,187.16 332.25,188.41 332.25,188.41
             332.25,188.41 332.25,183.41 332.25,183.41
             329.81,185.73 330.45,185.62 327.25,184.66
             327.25,184.66 324.75,187.16 324.75,187.16
             324.75,187.16 327.25,167.16 327.25,167.16
             321.72,167.16 316.19,165.76 314.75,172.16
             314.75,172.16 311.00,172.16 311.00,172.16
             311.00,172.16 311.00,177.16 311.00,177.16
             311.00,177.16 306.00,173.41 306.00,173.41
             305.85,178.03 306.05,183.02 301.00,184.66
             301.00,184.66 302.25,192.16 302.25,192.16
             302.25,192.16 297.25,184.66 297.25,184.66
             297.25,184.66 293.50,187.16 293.50,187.16
             293.50,187.16 292.25,183.41 292.25,183.41
             292.25,183.41 292.25,188.41 292.25,188.41
             286.07,188.08 285.64,188.16 282.25,193.41
             282.25,193.41 281.00,184.66 281.00,184.66
             281.00,184.66 278.50,189.66 278.50,189.66
             278.50,189.66 282.25,174.66 282.25,174.66
             282.25,174.66 274.75,175.91 274.75,175.91
             274.75,175.91 272.25,180.91 272.25,180.91
             272.25,180.91 272.25,175.91 272.25,175.91
             272.25,175.91 269.75,175.91 269.75,175.91
             269.75,175.91 268.50,198.41 268.50,198.41
             268.50,198.41 263.16,185.91 263.16,185.91
             263.16,185.91 261.00,162.15 261.00,162.15
             261.00,162.15 257.25,157.15 257.25,157.15
             257.25,157.15 259.75,159.65 259.75,159.65
             259.75,159.65 261.00,159.65 261.00,159.65
             260.75,154.24 260.64,150.33 257.25,145.90
             257.25,145.90 256.00,149.65 256.00,149.65
             256.00,149.65 249.75,144.65 249.75,144.65
             249.75,144.65 258.50,140.90 258.50,140.90
             258.50,140.90 256.00,133.40 256.00,133.40 Z" />
</svg>
