<?xml version="1.0" encoding="UTF-8" standalone="no"?>
<!DOCTYPE svg PUBLIC "-//W3C//DTD SVG 20010904//EN"
              "http://www.w3.org/TR/2001/REC-SVG-20010904/DTD/svg10.dtd">

<svg xmlns="http://www.w3.org/2000/svg"
     width="1.06667in" height="1.65556in"
     viewBox="0 0 96 149">
  <path id="Selection"
        fill="currentColor" stroke="black" stroke-width="1"
        d="M 66.50,1.18
           C 62.01,10.93 65.12,18.31 64.69,24.72
             64.44,28.55 62.54,32.33 63.72,36.19
             65.99,43.55 76.34,50.10 80.25,37.44
             80.25,37.44 74.00,41.19 74.00,41.19
             74.00,41.19 75.25,36.19 75.25,36.19
             72.27,35.43 72.42,33.98 73.52,31.18
             74.60,28.41 76.49,26.79 76.86,23.60
             77.42,18.77 73.64,7.91 72.75,2.43
             72.75,2.43 66.50,1.18 66.50,1.18 Z
           M 91.50,14.93
           C 91.50,14.93 85.25,16.19 85.25,16.19
             85.25,16.19 81.50,19.94 81.50,19.94
             81.50,19.94 80.25,31.19 80.25,31.19
             80.25,31.19 84.00,24.94 84.00,24.94
             84.00,24.94 81.50,39.94 81.50,39.94
             88.90,37.56 91.64,32.45 90.25,24.94
             90.25,24.94 95.25,19.94 95.25,19.94
             95.25,19.94 91.50,21.19 91.50,21.19
             91.50,21.19 91.50,14.93 91.50,14.93 Z
           M 59.00,46.19
           C 54.03,52.34 53.05,56.42 45.25,59.94
             45.25,59.94 46.50,57.44 46.50,57.44
             34.58,59.42 40.21,63.37 26.50,62.44
             26.50,62.44 19.00,63.69 19.00,63.69
             19.00,63.69 9.00,88.70 9.00,88.70
             9.00,88.70 14.00,88.70 14.00,88.70
             17.38,82.62 32.25,76.10 39.00,73.70
             34.49,77.86 25.42,83.21 29.00,89.95
             29.00,89.95 22.75,91.20 22.75,91.20
             22.75,91.20 21.50,87.45 21.50,87.45
             15.26,92.15 10.76,99.10 7.55,106.20
             5.04,111.72 7.09,114.13 1.50,117.46
             2.62,129.98 -2.59,132.61 9.00,144.96
             9.00,144.96 10.25,142.46 10.25,142.46
             10.25,142.46 9.00,141.21 9.00,141.21
             9.00,141.21 20.25,147.46 20.25,147.46
             20.25,147.46 24.00,146.21 24.00,146.21
             24.00,146.21 22.75,138.71 22.75,138.71
             22.75,138.71 25.25,134.96 25.25,134.96
             25.25,134.96 30.25,134.96 30.25,134.96
             30.09,130.35 33.64,115.73 36.50,112.45
             32.10,105.48 34.56,103.70 39.00,97.45
             39.00,97.45 40.25,102.45 40.25,102.45
             40.25,102.45 47.75,99.95 47.75,99.95
             47.75,99.95 42.75,93.70 42.75,93.70
             42.75,93.70 51.50,92.45 51.50,92.45
             51.50,92.45 50.25,88.70 50.25,88.70
             50.25,88.70 52.75,89.95 52.75,89.95
             52.75,89.95 51.50,86.20 51.50,86.20
             51.50,86.20 57.75,86.20 57.75,86.20
             57.75,86.20 56.50,82.45 56.50,82.45
             60.74,80.99 60.99,80.64 61.50,76.20
             67.55,74.82 70.83,67.31 74.00,62.44
             74.00,62.44 71.50,59.94 71.50,59.94
             71.50,59.94 79.00,58.69 79.00,58.69
             79.00,58.69 77.75,54.94 77.75,54.94
             77.75,54.94 84.00,49.94 84.00,49.94
             84.00,49.94 74.00,54.94 74.00,54.94
             74.00,54.94 76.50,47.44 76.50,47.44
             76.50,47.44 67.75,46.19 67.75,46.19
             63.84,49.92 62.97,49.74 59.00,46.19 Z" />
</svg>
