<?xml version="1.0" encoding="UTF-8" standalone="no"?>
<!DOCTYPE svg PUBLIC "-//W3C//DTD SVG 20010904//EN"
              "http://www.w3.org/TR/2001/REC-SVG-20010904/DTD/svg10.dtd">

<svg xmlns="http://www.w3.org/2000/svg"
     width="7.54444in" height="10.1333in"
     viewBox="0 0 679 912">
  <path id="Selection"
        fill="currentColor" stroke="black" stroke-width="1"
        d="M 392.00,1.25
           C 392.00,1.25 389.50,1.25 389.50,1.25
             389.50,1.25 385.75,2.50 385.75,2.50
             385.75,2.50 383.25,3.75 383.25,3.75
             380.91,9.84 380.24,11.61 374.50,15.01
             378.06,9.96 378.84,8.67 379.50,2.50
             379.50,2.50 371.39,5.04 371.39,5.04
             365.94,6.01 365.92,2.78 360.75,7.51
             360.75,7.51 364.50,11.26 364.50,11.26
             364.50,11.26 359.50,6.26 359.50,6.26
             351.90,10.56 355.11,14.77 360.75,18.76
             348.80,15.29 356.30,12.52 339.50,12.51
             341.12,18.02 343.92,21.91 349.50,23.76
             349.50,23.76 348.25,28.76 348.25,28.76
             342.38,18.08 339.34,20.68 329.50,20.01
             329.50,20.01 335.75,27.51 335.75,27.51
             335.75,27.51 330.75,28.76 330.75,28.76
             330.75,28.76 325.75,25.01 325.75,25.01
             325.75,25.01 330.75,33.76 330.75,33.76
             330.75,33.76 323.25,31.26 323.25,31.26
             323.25,31.26 327.00,35.01 327.00,35.01
             319.48,41.49 331.45,44.86 337.00,50.01
             337.00,50.01 328.25,47.51 328.25,47.51
             328.25,47.51 325.70,48.60 325.70,48.60
             325.70,48.60 318.07,42.37 318.07,42.37
             318.07,42.37 312.00,38.76 312.00,38.76
             312.10,44.99 311.74,44.80 307.00,48.76
             307.00,48.76 318.25,56.27 318.25,56.27
             318.25,56.27 313.25,53.76 313.25,53.76
             313.25,53.76 314.50,57.52 314.50,57.52
             314.50,57.52 308.25,52.51 308.25,52.51
             308.25,52.51 307.00,57.52 307.00,57.52
             301.99,49.80 298.81,54.33 298.25,61.27
             291.06,58.49 287.20,62.79 288.25,70.02
             288.25,70.02 294.50,65.02 294.50,65.02
             294.50,65.02 297.00,68.77 297.00,68.77
             297.00,68.77 292.00,73.77 292.00,73.77
             292.00,73.77 293.25,75.02 293.25,75.02
             299.12,70.93 300.10,67.68 307.00,70.02
             300.65,71.06 299.62,72.59 295.75,77.52
             295.75,77.52 300.75,80.02 300.75,80.02
             300.75,80.02 294.50,81.27 294.50,81.27
             295.35,82.75 295.51,83.90 297.36,84.73
             300.24,86.03 309.01,83.07 311.54,81.28
             311.54,81.28 319.50,73.77 319.50,73.77
             319.50,73.77 320.75,75.02 320.75,75.02
             320.75,75.02 315.75,82.52 315.75,82.52
             315.75,82.52 332.00,76.27 332.00,76.27
             323.55,83.13 312.56,85.23 315.75,98.77
             315.75,98.77 317.00,98.77 317.00,98.77
             317.00,98.77 318.25,96.27 318.25,96.27
             322.64,99.26 323.59,98.40 328.25,96.27
             328.25,96.27 328.25,87.52 328.25,87.52
             328.25,87.52 332.00,90.02 332.00,90.02
             332.00,90.02 337.00,86.27 337.00,86.27
             337.00,86.27 332.00,95.02 332.00,95.02
             342.70,92.23 350.20,83.35 344.50,72.52
             344.50,72.52 348.25,73.77 348.25,73.77
             349.99,67.88 350.94,66.37 355.75,62.52
             351.36,70.28 350.69,72.48 349.50,81.27
             349.50,81.27 367.00,72.52 367.00,72.52
             367.00,72.52 360.40,79.23 360.40,79.23
             360.40,79.23 348.25,90.02 348.25,90.02
             348.25,90.02 357.00,88.77 357.00,88.77
             357.00,88.77 357.00,91.27 357.00,91.27
             348.00,92.21 340.94,98.14 333.25,102.52
             337.11,108.21 338.12,109.81 344.50,112.53
             344.25,120.49 348.45,120.18 354.50,117.53
             350.67,122.82 350.45,122.04 344.50,123.78
             342.70,119.56 341.14,117.21 338.04,113.78
             329.89,104.77 326.80,106.27 315.75,106.27
             316.25,114.64 317.46,113.95 324.50,117.53
             324.50,117.53 318.25,116.28 318.25,116.28
             318.25,116.28 318.25,122.53 318.25,122.53
             328.80,125.68 331.05,134.81 338.25,142.53
             338.25,142.53 332.00,140.03 332.00,140.03
             332.00,140.03 330.75,141.28 330.75,141.28
             337.62,147.58 344.31,145.70 349.50,138.78
             349.50,138.78 349.50,146.28 349.50,146.28
             349.50,146.28 340.75,148.78 340.75,148.78
             340.75,148.78 347.00,148.78 347.00,148.78
             347.00,148.78 348.25,155.03 348.25,155.03
             337.38,148.96 340.71,149.81 328.25,147.53
             328.25,147.53 321.15,154.22 321.15,154.22
             317.45,160.16 319.06,166.47 319.50,172.54
             324.84,170.74 325.42,168.42 328.25,163.79
             328.25,163.79 327.00,173.79 327.00,173.79
             334.74,167.25 330.52,166.02 334.50,157.53
             334.50,157.53 334.50,167.54 334.50,167.54
             334.50,167.54 338.25,168.79 338.25,168.79
             338.25,168.79 334.50,172.54 334.50,172.54
             334.50,172.54 338.25,172.54 338.25,172.54
             338.25,172.54 330.75,177.54 330.75,177.54
             330.75,177.54 339.50,177.54 339.50,177.54
             335.35,180.13 334.25,181.98 337.00,186.29
             337.00,186.29 339.50,181.29 339.50,181.29
             339.50,181.29 338.25,187.54 338.25,187.54
             348.49,186.69 345.48,182.21 349.50,170.04
             351.38,184.18 344.17,185.48 348.25,192.54
             348.25,192.54 340.75,195.04 340.75,195.04
             337.76,193.95 335.09,193.23 332.86,190.77
             330.25,187.88 329.49,182.69 324.45,181.03
             320.25,179.65 315.31,182.38 316.44,187.23
             317.17,190.35 318.53,190.00 319.50,196.29
             319.50,196.29 325.75,195.04 325.75,195.04
             325.75,195.04 324.50,200.04 324.50,200.04
             324.50,200.04 325.75,200.04 325.75,200.04
             325.75,200.04 327.00,202.54 327.00,202.54
             327.00,202.54 323.25,201.29 323.25,201.29
             323.25,201.29 316.49,205.01 316.49,205.01
             309.32,210.16 307.62,219.03 314.50,225.05
             314.50,225.05 317.00,213.80 317.00,213.80
             317.51,220.11 316.95,225.30 324.50,225.05
             324.50,225.05 324.50,218.80 324.50,218.80
             324.50,218.80 329.50,225.05 329.50,225.05
             329.50,225.05 332.00,218.80 332.00,218.80
             332.00,218.80 329.50,216.30 329.50,216.30
             329.50,216.30 332.00,222.55 332.00,222.55
             337.06,224.66 340.45,225.89 345.75,223.80
             345.75,223.80 339.50,215.05 339.50,215.05
             339.50,215.05 347.00,220.05 347.00,220.05
             347.00,220.05 347.00,213.80 347.00,213.80
             347.00,213.80 353.25,220.05 353.25,220.05
             353.25,220.05 350.75,212.55 350.75,212.55
             350.75,212.55 357.00,220.05 357.00,220.05
             357.00,220.05 360.75,218.80 360.75,218.80
             360.75,218.80 360.75,213.80 360.75,213.80
             360.75,213.80 357.00,207.54 357.00,207.54
             357.00,207.54 362.00,215.05 362.00,215.05
             362.00,215.05 368.25,212.55 368.25,212.55
             368.25,212.55 372.00,223.80 372.00,223.80
             379.34,218.68 382.39,216.67 383.25,207.54
             383.25,207.54 387.00,210.05 387.00,210.05
             387.88,203.38 389.89,199.03 383.25,195.04
             383.25,195.04 383.25,201.29 383.25,201.29
             383.25,201.29 379.50,198.79 379.50,198.79
             379.50,198.79 375.75,200.04 375.75,200.04
             378.25,189.38 374.65,190.04 368.25,196.29
             368.25,196.29 369.50,192.54 369.50,192.54
             364.36,192.03 363.44,191.67 360.75,196.29
             360.75,196.29 358.25,196.29 358.25,196.29
             358.25,196.29 355.75,191.29 355.75,191.29
             355.75,191.29 360.75,191.29 360.75,191.29
             360.75,191.29 354.50,181.29 354.50,181.29
             356.81,182.96 361.36,187.02 363.46,187.87
             369.96,190.48 374.15,186.07 379.50,185.04
             381.26,174.69 380.27,174.53 374.50,166.29
             380.59,166.17 383.81,167.04 387.00,161.29
             387.00,161.29 390.75,162.54 390.75,162.54
             390.75,162.54 390.75,157.53 390.75,157.53
             390.75,157.53 382.00,158.79 382.00,158.79
             382.00,158.79 382.00,155.03 382.00,155.03
             382.00,155.03 390.75,155.03 390.75,155.03
             390.75,155.03 392.00,150.03 392.00,150.03
             392.00,150.03 380.75,147.53 380.75,147.53
             380.75,147.53 392.00,142.53 392.00,142.53
             387.76,135.71 387.76,134.63 379.50,137.53
             379.50,137.53 382.00,133.78 382.00,133.78
             373.38,134.41 372.61,136.18 369.50,143.78
             369.50,143.78 370.75,135.03 370.75,135.03
             370.75,135.03 364.50,135.03 364.50,135.03
             364.50,135.03 377.00,130.03 377.00,130.03
             377.00,130.03 367.00,132.53 367.00,132.53
             374.40,125.13 379.55,129.78 388.25,130.03
             388.25,130.03 385.75,123.78 385.75,123.78
             378.20,126.23 373.48,127.89 365.75,125.03
             365.75,125.03 370.75,125.03 370.75,125.03
             370.75,125.03 369.50,118.78 369.50,118.78
             369.50,118.78 383.25,120.03 383.25,120.03
             383.25,120.03 383.25,118.78 383.25,118.78
             383.25,118.78 380.75,116.28 380.75,116.28
             380.75,116.28 387.00,116.28 387.00,116.28
             387.00,116.28 385.75,112.53 385.75,112.53
             385.75,112.53 390.75,112.53 390.75,112.53
             387.00,106.66 384.80,107.55 378.25,107.53
             380.98,105.76 382.17,104.65 385.64,104.80
             388.74,104.65 391.24,106.64 394.36,104.80
             396.85,103.59 399.25,100.11 395.75,98.77
             395.75,98.77 398.25,91.27 398.25,91.27
             398.25,91.27 389.50,96.27 389.50,96.27
             389.50,96.27 388.25,91.27 388.25,91.27
             388.25,91.27 393.25,92.52 393.25,92.52
             393.25,92.52 398.25,87.52 398.25,87.52
             398.25,87.52 398.25,85.02 398.25,85.02
             398.25,85.02 392.00,78.77 392.00,78.77
             392.00,78.77 398.25,82.52 398.25,82.52
             398.25,82.52 399.95,71.28 399.95,71.28
             399.95,71.28 403.46,55.01 403.46,55.01
             403.46,55.01 407.00,38.76 407.00,38.76
             400.57,42.45 391.90,55.81 388.25,62.52
             388.25,62.52 397.00,43.76 397.00,43.76
             397.00,43.76 390.75,47.51 390.75,47.51
             390.75,47.51 384.50,42.51 384.50,42.51
             384.50,42.51 390.75,45.01 390.75,45.01
             390.75,45.01 398.25,38.76 398.25,38.76
             398.25,38.76 397.00,36.26 397.00,36.26
             397.00,36.26 404.50,32.51 404.50,32.51
             405.09,26.66 408.55,20.41 407.77,13.77
             406.92,6.52 402.01,6.19 397.00,10.01
             395.50,5.84 394.99,5.98 390.75,5.00
             390.75,5.00 392.00,1.25 392.00,1.25 Z
           M 293.25,101.27
           C 292.60,96.54 287.04,81.76 283.09,79.24
             280.92,77.87 278.21,77.77 275.75,77.52
             277.33,81.43 278.10,81.14 282.00,82.52
             282.00,82.52 277.00,85.02 277.00,85.02
             277.00,85.02 275.75,88.77 275.75,88.77
             275.75,88.77 273.25,86.27 273.25,86.27
             273.25,86.27 272.00,86.27 272.00,86.27
             272.00,86.27 269.50,93.77 269.50,93.77
             269.50,93.77 277.00,97.52 277.00,97.52
             277.00,97.52 274.50,100.02 274.50,100.02
             274.50,100.02 278.25,102.52 278.25,102.52
             278.25,102.52 267.00,101.27 267.00,101.27
             267.00,101.27 269.50,108.78 269.50,108.78
             269.50,108.78 264.50,110.03 264.50,110.03
             264.50,110.03 270.75,111.28 270.75,111.28
             270.75,111.28 269.50,115.03 269.50,115.03
             269.50,115.03 274.50,111.28 274.50,111.28
             274.50,111.28 277.00,113.78 277.00,113.78
             277.00,113.78 273.25,115.03 273.25,115.03
             273.25,115.03 274.50,118.78 274.50,118.78
             274.50,118.78 263.25,115.03 263.25,115.03
             263.25,115.03 265.75,120.03 265.75,120.03
             265.09,128.59 268.62,129.99 275.75,126.28
             273.41,130.67 272.92,130.88 268.25,132.53
             268.90,137.09 269.06,137.91 273.25,140.03
             273.25,140.03 277.00,136.28 277.00,136.28
             277.00,136.28 278.25,141.28 278.25,141.28
             278.25,141.28 282.00,133.78 282.00,133.78
             282.00,133.78 288.25,135.03 288.25,135.03
             289.34,137.92 290.51,136.92 293.25,136.28
             293.25,136.28 285.75,141.28 285.75,141.28
             285.75,141.28 298.25,140.03 298.25,140.03
             298.25,140.03 298.25,142.53 298.25,142.53
             295.54,142.78 283.35,144.98 281.35,146.06
             274.92,149.50 278.65,153.01 283.25,155.03
             283.25,155.03 280.75,158.79 280.75,158.79
             280.75,158.79 282.00,161.29 282.00,161.29
             282.00,161.29 292.00,161.29 292.00,161.29
             292.00,161.29 292.00,163.79 292.00,163.79
             292.00,163.79 284.50,165.04 284.50,165.04
             284.50,165.04 287.00,170.04 287.00,170.04
             287.00,170.04 289.50,168.79 289.50,168.79
             289.50,168.79 289.50,172.54 289.50,172.54
             289.50,172.54 300.75,173.79 300.75,173.79
             300.75,173.79 298.25,168.79 298.25,168.79
             298.25,168.79 303.25,168.79 303.25,168.79
             303.25,168.79 300.75,160.04 300.75,160.04
             300.75,160.04 309.50,172.54 309.50,172.54
             310.67,165.62 310.71,165.41 308.25,158.79
             308.25,158.79 313.25,162.54 313.25,162.54
             313.85,152.77 307.79,153.41 314.50,143.78
             313.20,149.18 312.62,151.46 315.75,156.28
             315.75,156.28 318.25,145.03 318.25,145.03
             321.01,144.47 321.30,144.11 323.31,142.12
             329.04,136.93 328.01,134.12 323.31,128.78
             323.31,128.78 323.31,130.03 323.31,130.03
             323.31,130.03 320.75,132.53 320.75,132.53
             320.75,132.53 319.50,126.28 319.50,126.28
             319.50,126.28 317.00,126.28 317.00,126.28
             317.00,126.28 313.25,131.28 313.25,131.28
             313.85,127.94 315.90,122.68 312.00,121.28
             312.00,121.28 313.25,115.03 313.25,115.03
             309.10,114.34 305.71,113.75 303.24,109.91
             300.62,105.85 303.17,104.42 298.25,101.27
             298.25,101.27 299.50,103.77 299.50,103.77
             299.50,103.77 293.25,101.27 293.25,101.27 Z
           M 315.75,82.52
           C 315.75,82.52 299.50,88.77 299.50,88.77
             299.50,88.77 299.50,91.27 299.50,91.27
             299.50,91.27 310.75,96.27 310.75,96.27
             310.75,96.27 315.75,82.52 315.75,82.52 Z
           M 330.75,90.02
           C 330.75,90.02 329.50,90.02 329.50,90.02
             329.50,90.02 330.75,91.27 330.75,91.27
             330.75,91.27 330.75,90.02 330.75,90.02 Z
           M 309.50,103.77
           C 309.50,103.77 304.50,105.02 304.50,105.02
             304.50,105.02 308.25,112.53 308.25,112.53
             308.25,112.53 310.75,111.28 310.75,111.28
             310.75,111.28 309.50,103.77 309.50,103.77 Z
           M 249.50,126.28
           C 252.70,121.14 251.48,116.08 245.75,113.78
             245.75,113.78 244.50,121.28 244.50,121.28
             244.50,121.28 249.50,122.53 249.50,122.53
             249.50,122.53 248.25,125.03 248.25,125.03
             248.25,125.03 249.50,126.28 249.50,126.28 Z
           M 264.50,121.28
           C 264.50,121.28 263.25,121.28 263.25,121.28
             263.25,121.28 264.50,122.53 264.50,122.53
             264.50,122.53 264.50,121.28 264.50,121.28 Z
           M 227.00,150.03
           C 225.79,135.87 227.48,136.31 213.25,135.03
             213.25,135.03 210.75,143.78 210.75,143.78
             210.75,143.78 215.75,142.53 215.75,142.53
             215.75,142.53 215.75,147.53 215.75,147.53
             215.75,147.53 217.00,147.53 217.00,147.53
             217.00,147.53 219.50,145.03 219.50,145.03
             219.50,145.03 218.25,152.53 218.25,152.53
             218.25,152.53 223.25,152.53 223.25,152.53
             223.25,152.53 222.00,160.04 222.00,160.04
             222.00,160.04 220.75,161.29 220.75,161.29
             220.75,161.29 213.25,157.53 213.25,157.53
             212.11,162.57 212.39,162.86 214.50,167.54
             214.50,167.54 225.75,165.04 225.75,165.04
             225.75,165.04 224.50,168.79 224.50,168.79
             228.91,168.85 231.88,170.01 234.30,174.01
             236.24,177.21 237.00,185.22 242.89,182.96
             248.52,180.81 244.79,173.56 243.55,170.04
             241.36,163.76 245.39,155.13 235.75,155.03
             235.75,155.03 234.50,153.78 234.50,153.78
             234.50,153.78 237.00,148.78 237.00,148.78
             237.00,148.78 233.25,145.03 233.25,145.03
             233.25,145.03 230.75,145.03 230.75,145.03
             230.75,145.03 227.00,150.03 227.00,150.03 Z
           M 185.75,152.53
           C 185.75,152.53 183.25,152.53 183.25,152.53
             183.25,152.53 182.00,160.04 182.00,160.04
             185.52,157.58 185.26,156.71 185.75,152.53 Z
           M 264.50,165.04
           C 262.39,158.09 259.09,155.85 252.00,155.03
             252.00,155.03 253.98,169.74 253.98,169.74
             253.98,169.74 260.75,177.54 260.75,177.54
             260.75,177.54 255.75,177.54 255.75,177.54
             255.75,177.54 258.25,185.04 258.25,185.04
             261.16,183.98 268.16,181.54 269.94,179.33
             271.42,177.49 274.36,165.55 264.50,165.04 Z
           M 233.25,186.29
           C 230.88,181.95 230.25,181.93 225.75,180.04
             224.89,186.52 227.83,185.75 233.25,186.29 Z
           M 203.25,181.29
           C 200.69,187.93 203.00,195.09 205.75,201.29
             209.80,198.16 209.88,195.74 205.75,192.54
             206.51,186.93 205.88,186.20 203.25,181.29 Z
           M 283.25,187.50
           C 279.88,187.09 270.29,186.22 267.36,187.50
             264.45,188.70 264.30,192.03 266.50,193.77
             268.09,195.03 278.12,195.94 280.75,196.29
             280.75,196.29 283.25,187.50 283.25,187.50 Z
           M 304.50,202.54
           C 307.30,194.95 304.90,191.33 297.00,190.04
             297.26,197.41 297.95,198.89 304.50,202.54 Z
           M 178.25,205.04
           C 172.60,206.87 169.17,211.53 168.68,217.53
             168.24,220.87 169.59,223.02 168.68,225.26
             168.11,227.09 167.02,227.62 165.75,228.80
             167.99,236.78 170.35,235.29 169.50,243.80
             169.50,243.80 162.00,241.30 162.00,241.30
             162.00,241.30 158.25,260.06 158.25,260.06
             158.25,260.06 169.50,257.55 169.50,257.55
             169.50,257.55 168.25,258.80 168.25,258.80
             168.25,258.80 169.50,261.31 169.50,261.31
             175.40,260.34 181.45,263.66 186.67,259.36
             189.68,256.89 195.31,244.01 195.39,240.04
             195.44,236.86 193.00,230.65 188.80,232.76
             186.64,233.85 186.50,237.45 183.25,241.30
             183.25,241.30 183.25,233.80 183.25,233.80
             183.25,233.80 177.00,236.30 177.00,236.30
             177.00,236.30 180.75,230.05 180.75,230.05
             180.75,230.05 175.75,228.80 175.75,228.80
             178.46,220.05 178.45,219.25 177.00,210.05
             177.00,210.05 179.50,210.05 179.50,210.05
             179.50,210.05 178.25,205.04 178.25,205.04 Z
           M 280.75,212.55
           C 270.51,212.61 271.17,205.92 259.50,211.30
             259.50,211.30 262.00,215.05 262.00,215.05
             262.00,215.05 259.50,218.80 259.50,218.80
             259.50,218.80 268.25,221.30 268.25,221.30
             268.25,221.30 264.50,226.30 264.50,226.30
             264.50,226.30 272.00,231.30 272.00,231.30
             272.00,231.30 285.75,228.80 285.75,228.80
             285.75,228.80 293.27,247.55 293.27,247.55
             294.21,254.18 288.50,260.57 294.50,265.06
             294.50,265.06 294.50,275.06 294.50,275.06
             294.50,275.06 300.75,278.81 300.75,278.81
             300.75,278.81 304.50,271.31 304.50,271.31
             304.98,274.18 305.10,276.98 307.44,279.08
             311.03,282.30 317.69,282.26 317.00,272.56
             317.00,272.56 320.75,273.81 320.75,273.81
             320.75,273.81 322.00,270.06 322.00,270.06
             322.00,270.06 323.25,281.31 323.25,281.31
             323.25,281.31 332.00,278.81 332.00,278.81
             332.00,278.81 337.00,281.31 337.00,281.31
             337.00,281.31 335.75,277.56 335.75,277.56
             335.75,277.56 340.75,280.06 340.75,280.06
             340.75,280.06 342.00,276.31 342.00,276.31
             344.12,281.08 345.73,276.38 347.00,273.81
             347.00,273.81 349.50,278.81 349.50,278.81
             349.50,278.81 350.75,272.56 350.75,272.56
             353.04,278.81 356.65,276.40 362.00,275.06
             362.00,275.06 359.50,265.06 359.50,265.06
             365.32,268.72 364.27,270.53 367.16,272.41
             372.44,275.85 381.36,270.38 387.00,268.81
             387.00,268.81 383.25,258.80 383.25,258.80
             383.25,258.80 390.75,258.80 390.75,258.80
             390.75,258.80 389.50,255.05 389.50,255.05
             389.50,255.05 383.25,257.55 383.25,257.55
             383.25,257.55 388.25,250.05 388.25,250.05
             386.61,243.99 385.90,242.73 379.50,243.80
             379.50,243.80 382.00,241.30 382.00,241.30
             382.00,241.30 382.00,240.05 382.00,240.05
             382.00,240.05 372.00,240.05 372.00,240.05
             369.74,234.61 365.45,236.29 360.75,237.80
             360.75,237.80 352.40,240.05 352.40,240.05
             352.40,240.05 338.25,250.05 338.25,250.05
             338.25,250.05 342.00,252.55 342.00,252.55
             342.00,252.55 334.50,255.05 334.50,255.05
             333.48,250.84 331.98,250.77 328.25,248.80
             328.25,248.80 327.00,253.80 327.00,253.80
             327.00,253.80 325.75,250.05 325.75,250.05
             325.75,250.05 324.50,250.05 324.50,250.05
             324.50,250.05 322.00,252.55 322.00,252.55
             322.00,252.55 318.25,247.55 318.25,247.55
             318.25,247.55 318.25,255.05 318.25,255.05
             318.25,255.05 314.50,250.05 314.50,250.05
             314.50,250.05 310.75,251.30 310.75,251.30
             313.64,247.63 315.56,245.10 309.50,243.80
             307.84,239.58 306.19,240.39 302.00,240.05
             302.00,240.05 299.50,243.80 299.50,243.80
             299.50,243.80 299.50,237.55 299.50,237.55
             299.50,237.55 302.00,235.05 302.00,235.05
             302.00,235.05 297.00,235.05 297.00,235.05
             297.00,235.05 295.75,231.30 295.75,231.30
             295.75,231.30 312.00,232.55 312.00,232.55
             312.00,232.55 312.00,228.80 312.00,228.80
             312.00,228.80 295.75,223.80 295.75,223.80
             295.75,223.80 303.25,225.05 303.25,225.05
             297.28,215.22 294.26,221.49 285.75,221.30
             285.75,221.30 280.75,227.55 280.75,227.55
             283.69,220.56 283.69,219.53 280.75,212.55 Z
           M 307.00,213.80
           C 307.00,213.80 304.50,213.80 304.50,213.80
             303.60,218.83 303.92,219.72 307.00,223.80
             307.00,223.80 307.00,213.80 307.00,213.80 Z
           M 209.50,215.05
           C 209.50,215.05 207.00,215.05 207.00,215.05
             207.00,215.05 205.75,223.80 205.75,223.80
             210.75,225.62 211.62,226.16 215.75,222.55
             215.75,222.55 209.50,215.05 209.50,215.05 Z
           M 248.25,218.80
           C 248.25,218.80 247.00,218.80 247.00,218.80
             247.00,218.80 248.25,220.05 248.25,220.05
             248.25,220.05 248.25,218.80 248.25,218.80 Z
           M 243.25,227.55
           C 239.98,221.20 235.61,216.43 230.75,225.05
             230.75,225.05 237.00,230.05 237.00,230.05
             237.00,230.05 233.25,231.30 233.25,231.30
             233.25,231.30 239.50,235.05 239.50,235.05
             239.50,235.05 235.75,233.80 235.75,233.80
             235.75,233.80 235.75,238.80 235.75,238.80
             235.75,238.80 239.50,240.05 239.50,240.05
             239.50,240.05 234.50,241.30 234.50,241.30
             232.61,235.38 228.76,226.86 223.25,223.80
             222.56,227.67 221.94,228.41 225.75,230.05
             223.99,233.50 222.71,234.65 225.75,237.55
             225.35,241.21 224.99,241.81 228.25,243.80
             228.25,243.80 218.25,241.30 218.25,241.30
             218.25,241.30 219.50,246.30 219.50,246.30
             219.50,246.30 214.50,250.05 214.50,250.05
             214.50,250.05 237.00,247.55 237.00,247.55
             237.00,247.55 237.00,253.80 237.00,253.80
             232.51,255.02 232.19,254.98 229.50,258.80
             229.50,258.80 234.50,260.06 234.50,260.06
             229.02,264.53 230.60,267.33 237.00,268.81
             237.00,268.81 237.00,267.56 237.00,267.56
             237.00,267.56 239.50,265.06 239.50,265.06
             239.50,265.06 238.25,268.81 238.25,268.81
             243.59,268.34 246.24,269.38 248.25,263.81
             248.25,263.81 252.00,265.06 252.00,265.06
             248.86,258.94 247.70,257.65 253.25,252.55
             253.25,252.55 249.50,247.55 249.50,247.55
             255.24,238.50 251.40,234.44 253.25,225.05
             253.25,225.05 244.50,221.30 244.50,221.30
             244.50,221.30 243.25,227.55 243.25,227.55 Z
           M 217.00,227.55
           C 211.34,227.67 208.98,227.50 204.50,231.30
             210.42,234.03 215.61,235.58 217.00,227.55 Z
           M 218.25,233.80
           C 218.25,233.80 209.50,237.55 209.50,237.55
             213.96,237.29 215.59,237.63 218.25,233.80 Z
           M 220.75,237.55
           C 215.77,238.39 214.96,238.35 212.00,242.55
             212.00,242.55 213.25,243.80 213.25,243.80
             213.25,243.80 220.75,237.55 220.75,237.55 Z
           M 264.64,268.81
           C 264.51,269.83 263.99,270.38 264.64,272.06
             266.34,275.33 275.50,280.60 279.32,279.65
             283.76,278.53 283.19,274.00 283.06,270.42
             282.98,267.62 283.10,263.67 282.19,261.09
             280.11,255.32 273.86,248.33 267.81,254.13
             266.42,255.47 265.34,258.20 264.31,259.96
             261.79,264.27 261.61,263.68 259.50,268.81
             259.50,268.81 264.64,268.81 264.64,268.81 Z
           M 204.50,252.55
           C 198.89,254.33 198.46,255.77 197.00,261.31
             205.56,264.32 206.14,259.67 204.50,252.55 Z
           M 433.25,310.07
           C 430.14,302.23 420.86,292.51 412.00,291.81
             404.02,291.17 404.61,296.01 390.75,292.56
             390.75,292.56 390.75,306.31 390.75,306.31
             401.95,308.19 396.77,316.58 404.62,318.20
             409.48,319.22 412.75,314.94 417.00,312.95
             420.21,311.44 429.24,310.59 433.25,310.07 Z
           M 280.75,297.56
           C 277.15,294.62 271.32,297.75 270.74,301.45
             270.24,304.60 272.84,307.69 274.50,310.07
             274.50,310.07 268.25,306.31 268.25,306.31
             268.25,306.31 267.07,332.57 267.07,332.57
             267.07,332.57 270.64,346.32 270.64,346.32
             270.64,346.32 270.64,358.82 270.64,358.82
             273.44,358.07 276.60,357.51 278.71,355.60
             284.48,350.35 287.65,339.36 277.00,337.57
             277.00,337.57 277.00,335.07 277.00,335.07
             277.00,335.07 294.36,335.70 294.36,335.70
             295.64,335.51 296.41,335.18 297.38,334.31
             299.92,331.99 301.79,323.63 303.14,320.07
             306.34,311.65 316.30,297.84 299.50,298.94
             297.28,299.08 295.40,299.54 293.25,300.06
             289.95,294.57 285.91,293.90 280.75,297.56 Z
           M 249.50,296.31
           C 243.43,296.87 240.75,297.78 235.75,301.31
             242.65,303.25 246.02,303.06 249.50,296.31 Z
           M 399.50,320.07
           C 397.49,318.37 391.12,309.88 389.27,307.24
             387.40,304.56 386.59,300.83 384.34,298.65
             380.34,294.80 372.96,297.66 369.35,300.76
             367.28,302.54 366.10,304.16 364.50,306.31
             364.50,306.31 367.00,311.32 367.00,311.32
             367.00,311.32 365.75,307.56 365.75,307.56
             365.75,307.56 359.50,311.32 359.50,311.32
             359.50,311.32 363.25,315.07 363.25,315.07
             363.25,315.07 357.00,311.32 357.00,311.32
             357.00,311.32 355.75,316.32 355.75,316.32
             355.75,316.32 369.50,321.32 369.50,321.32
             369.50,321.32 355.75,318.82 355.75,318.82
             355.75,318.82 367.00,327.57 367.00,327.57
             367.00,327.57 353.25,323.82 353.25,323.82
             353.27,331.03 353.10,337.06 360.75,340.07
             360.75,340.07 360.75,337.57 360.75,337.57
             360.75,337.57 363.25,337.57 363.25,337.57
             363.25,337.57 364.50,338.82 364.50,338.82
             364.50,338.82 362.00,342.57 362.00,342.57
             362.00,342.57 370.75,351.32 370.75,351.32
             365.86,347.21 363.65,344.53 357.00,345.07
             357.00,345.07 355.75,353.82 355.75,353.82
             361.17,358.97 360.32,360.86 368.25,360.07
             368.25,360.07 369.50,382.58 369.50,382.58
             366.69,379.44 366.89,379.24 367.00,375.08
             367.00,375.08 349.50,382.58 349.50,382.58
             349.50,382.58 367.00,371.33 367.00,371.33
             362.70,365.11 357.10,364.56 351.99,356.32
             347.42,348.96 349.17,345.03 348.51,341.32
             347.82,337.40 345.30,334.92 344.54,331.32
             343.79,327.72 346.09,319.95 347.28,316.32
             349.80,308.53 353.26,306.94 354.50,299.05
             351.31,298.81 346.23,298.65 343.25,299.05
             334.46,301.21 324.86,309.33 325.75,318.82
             320.41,320.47 320.92,329.31 322.00,333.82
             318.45,336.75 315.02,348.37 320.75,350.07
             319.66,352.41 318.27,354.97 318.01,357.57
             317.71,360.54 319.00,372.99 321.45,374.87
             324.60,377.27 335.65,377.09 339.50,376.33
             339.50,376.33 348.25,383.83 348.25,383.83
             345.20,384.44 341.24,385.59 338.25,385.25
             335.29,385.19 331.56,383.27 328.62,385.25
             325.90,387.11 327.05,390.11 328.62,392.58
             332.49,399.78 336.98,400.72 343.25,405.08
             343.25,405.08 350.75,403.83 350.75,403.83
             350.75,403.83 349.50,397.58 349.50,397.58
             353.41,399.55 353.44,398.72 357.00,396.33
             352.07,411.32 365.96,406.65 369.50,406.67
             372.67,406.70 375.60,407.82 382.00,407.53
             388.82,407.22 393.60,404.82 399.50,410.08
             399.50,410.08 403.25,407.58 403.25,407.58
             399.94,401.33 396.56,401.27 390.75,397.58
             390.75,397.58 414.50,408.83 414.50,408.83
             414.50,408.83 403.25,398.83 403.25,398.83
             411.84,398.85 417.90,398.57 425.75,402.58
             427.28,401.62 431.01,399.62 431.84,398.16
             435.35,391.96 426.24,388.49 422.00,387.58
             422.00,387.58 424.50,377.58 424.50,377.58
             424.50,377.58 429.50,381.33 429.50,381.33
             425.64,382.37 429.74,384.80 433.25,385.08
             433.25,385.08 434.50,388.83 434.50,388.83
             442.75,387.58 442.51,390.44 444.50,397.58
             444.50,397.58 450.75,392.58 450.75,392.58
             450.75,392.58 449.50,396.33 449.50,396.33
             449.50,396.33 454.50,397.58 454.50,397.58
             454.50,397.58 454.50,400.08 454.50,400.08
             454.50,400.08 450.75,402.58 450.75,402.58
             450.75,402.58 455.75,402.58 455.75,402.58
             455.75,402.58 457.00,400.08 457.00,400.08
             457.00,400.08 455.75,398.83 455.75,398.83
             455.75,398.83 460.75,402.58 460.75,402.58
             460.75,402.58 458.25,400.08 458.25,400.08
             458.25,400.08 457.00,401.33 457.00,401.33
             457.00,401.33 457.00,403.83 457.00,403.83
             464.79,406.16 467.75,406.36 472.00,413.84
             472.00,413.84 468.25,417.59 468.25,417.59
             459.85,416.44 463.73,421.85 464.50,427.59
             469.31,423.82 472.07,421.46 472.00,415.09
             472.00,415.09 482.00,413.84 482.00,413.84
             482.00,413.84 483.25,415.09 483.25,415.09
             483.25,415.09 482.00,418.84 482.00,418.84
             482.00,418.84 493.25,423.84 493.25,423.84
             493.25,423.84 488.25,417.59 488.25,417.59
             488.25,417.59 494.50,417.59 494.50,417.59
             494.50,417.59 494.50,426.34 494.50,426.34
             494.50,426.34 505.75,427.59 505.75,427.59
             510.56,437.79 521.51,448.22 522.67,452.59
             524.24,458.41 518.01,459.64 522.00,470.10
             517.69,472.88 509.27,488.61 512.77,493.25
             517.31,499.28 523.67,496.36 525.75,507.60
             519.84,507.17 519.23,508.68 517.00,513.86
             512.09,513.69 511.60,513.99 510.75,518.86
             510.75,518.86 496.89,520.67 496.89,520.67
             496.89,520.67 482.00,521.36 482.00,521.36
             482.00,521.36 482.00,525.11 482.00,525.11
             482.00,525.11 485.75,526.36 485.75,526.36
             485.75,526.36 485.75,528.86 485.75,528.86
             474.32,536.03 478.82,544.27 485.75,552.39
             485.75,552.39 497.89,552.39 497.89,552.39
             497.89,552.39 509.50,545.11 509.50,545.11
             509.50,545.11 508.25,537.61 508.25,537.61
             514.76,539.99 517.71,540.77 524.50,538.86
             522.29,533.87 521.88,533.73 517.00,531.36
             517.00,531.36 520.75,525.11 520.75,525.11
             520.75,525.11 522.00,532.61 522.00,532.61
             522.00,532.61 527.00,531.36 527.00,531.36
             527.00,531.36 525.75,527.61 525.75,527.61
             525.75,527.61 528.25,533.86 528.25,533.86
             528.25,533.86 532.00,535.11 532.00,535.11
             532.94,529.85 534.80,529.51 539.50,527.61
             539.50,527.61 538.25,535.11 538.25,535.11
             538.25,535.11 548.25,542.61 548.25,542.61
             548.25,542.61 552.00,541.36 552.00,541.36
             552.00,541.36 554.50,546.36 554.50,546.36
             554.50,546.36 559.50,543.86 559.50,543.86
             559.50,543.86 558.25,548.86 558.25,548.86
             558.25,548.86 562.00,543.86 562.00,543.86
             566.84,546.05 567.82,547.16 573.25,546.36
             570.46,554.19 568.36,554.23 573.25,561.36
             573.25,561.36 577.00,560.11 577.00,560.11
             577.00,560.11 579.50,562.61 579.50,562.61
             579.50,562.61 583.25,557.61 583.25,557.61
             583.32,564.42 592.79,565.20 597.00,560.11
             599.74,562.28 601.31,561.08 604.50,560.11
             604.50,560.11 604.50,563.87 604.50,563.87
             604.50,563.87 608.25,562.61 608.25,562.61
             610.10,567.89 612.85,567.95 618.25,568.49
             625.40,569.20 627.81,566.63 633.58,566.09
             640.78,565.42 648.75,566.95 655.75,565.12
             655.75,565.12 653.25,555.11 653.25,555.11
             653.25,555.11 645.75,556.36 645.75,556.36
             642.17,548.92 638.84,551.19 632.11,548.16
             623.70,544.39 627.46,546.69 621.29,544.71
             613.73,542.29 604.12,536.58 598.25,531.36
             606.89,529.68 607.55,530.71 615.75,532.61
             615.75,532.61 612.00,526.36 612.00,526.36
             617.75,529.82 621.36,533.61 628.25,532.61
             628.25,532.61 628.25,535.11 628.25,535.11
             628.25,535.11 632.00,533.86 632.00,533.86
             632.00,533.86 632.00,527.61 632.00,527.61
             632.88,533.67 634.80,535.35 640.75,536.36
             640.75,536.36 640.75,535.11 640.75,535.11
             640.75,535.11 638.25,532.61 638.25,532.61
             638.25,532.61 642.00,535.11 642.00,535.11
             642.00,535.11 644.50,532.61 644.50,532.61
             644.50,532.61 645.75,536.36 645.75,536.36
             645.75,536.36 647.00,532.61 647.00,532.61
             647.00,532.61 648.25,536.36 648.25,536.36
             652.00,534.46 652.11,534.13 653.25,530.11
             653.25,530.11 659.50,530.11 659.50,530.11
             655.79,525.97 654.90,525.27 649.50,523.86
             649.50,523.86 650.75,520.11 650.75,520.11
             650.75,520.11 639.50,510.10 639.50,510.10
             639.50,510.10 655.75,520.11 655.75,520.11
             652.49,512.12 652.61,509.15 643.25,508.85
             643.25,508.85 644.50,501.35 644.50,501.35
             644.50,501.35 638.25,505.10 638.25,505.10
             636.42,500.37 633.81,500.04 629.50,497.60
             629.50,497.60 634.50,497.60 634.50,497.60
             634.50,497.60 634.50,492.60 634.50,492.60
             634.50,492.60 625.75,495.10 625.75,495.10
             625.32,489.03 624.76,488.19 619.50,485.10
             619.50,485.10 623.25,491.35 623.25,491.35
             623.25,491.35 615.75,491.35 615.75,491.35
             615.75,491.35 617.00,487.60 617.00,487.60
             617.00,487.60 610.75,487.60 610.75,487.60
             610.75,487.60 613.25,492.60 613.25,492.60
             613.25,492.60 607.00,485.10 607.00,485.10
             602.23,484.36 600.57,482.14 599.50,477.60
             599.50,477.60 594.50,478.85 594.50,478.85
             594.50,478.85 594.50,473.85 594.50,473.85
             594.50,473.85 588.25,478.85 588.25,478.85
             588.25,478.85 585.75,472.60 585.75,472.60
             585.75,472.60 583.25,473.85 583.25,473.85
             583.25,473.85 582.00,470.10 582.00,470.10
             582.00,470.10 579.50,471.35 579.50,471.35
             579.50,471.35 578.25,467.60 578.25,467.60
             585.05,467.62 587.15,469.52 590.75,462.60
             583.48,459.29 582.24,458.92 577.00,452.59
             581.42,453.72 581.99,454.06 585.75,451.34
             585.75,451.34 578.25,450.09 578.25,450.09
             578.25,450.09 587.00,447.59 587.00,447.59
             587.00,447.59 583.25,445.09 583.25,445.09
             583.25,445.09 589.50,445.09 589.50,445.09
             590.90,449.09 598.25,455.08 602.51,451.68
             604.12,450.39 605.10,445.89 605.75,443.84
             605.75,443.84 604.50,456.34 604.50,456.34
             615.85,452.38 611.23,447.84 617.00,438.84
             615.49,445.07 616.17,447.07 615.62,449.57
             614.35,455.28 609.69,457.16 617.00,461.34
             617.00,461.34 618.25,457.59 618.25,457.59
             618.25,457.59 620.75,457.59 620.75,457.59
             620.75,457.59 620.75,467.60 620.75,467.60
             620.75,467.60 628.25,461.34 628.25,461.34
             628.25,461.34 625.75,470.10 625.75,470.10
             625.75,470.10 630.75,471.35 630.75,471.35
             630.75,471.35 630.75,462.60 630.75,462.60
             630.75,462.60 632.00,468.85 632.00,468.85
             632.00,468.85 635.75,470.10 635.75,470.10
             635.75,470.10 637.00,466.35 637.00,466.35
             637.00,466.35 643.25,470.10 643.25,470.10
             643.25,470.10 640.75,465.10 640.75,465.10
             640.46,460.59 639.89,460.46 635.75,458.84
             635.75,458.84 632.00,452.59 632.00,452.59
             632.00,452.59 635.75,451.34 635.75,451.34
             635.75,451.34 630.75,445.09 630.75,445.09
             630.75,445.09 640.75,450.09 640.75,450.09
             640.75,450.09 638.25,442.59 638.25,442.59
             638.25,442.59 644.50,442.59 644.50,442.59
             644.50,442.59 634.50,436.34 634.50,436.34
             634.50,436.34 644.50,435.09 644.50,435.09
             644.50,435.09 632.00,431.34 632.00,431.34
             632.00,431.34 635.75,432.59 635.75,432.59
             635.75,432.59 637.00,431.34 637.00,431.34
             637.00,431.34 637.00,428.84 637.00,428.84
             637.00,428.84 635.75,427.59 635.75,427.59
             635.75,427.59 633.25,428.84 633.25,428.84
             637.09,425.38 638.30,426.16 643.25,426.34
             643.25,426.34 640.75,422.59 640.75,422.59
             640.75,422.59 642.00,422.59 642.00,422.59
             642.00,422.59 643.25,420.09 643.25,420.09
             643.25,420.09 635.75,420.09 635.75,420.09
             635.75,420.09 643.25,417.59 643.25,417.59
             641.15,411.72 637.61,411.74 632.00,412.59
             632.00,412.59 629.50,408.83 629.50,408.83
             629.50,408.83 632.00,417.59 632.00,417.59
             632.00,417.59 625.75,415.09 625.75,415.09
             625.75,415.09 627.00,423.84 627.00,423.84
             627.00,423.84 624.50,416.34 624.50,416.34
             624.50,416.34 622.00,416.34 622.00,416.34
             622.00,416.34 620.75,425.09 620.75,425.09
             620.75,425.09 615.75,425.09 615.75,425.09
             615.75,425.09 619.50,416.34 619.50,416.34
             619.50,416.34 617.00,407.58 617.00,407.58
             617.00,407.58 613.25,421.34 613.25,421.34
             613.25,421.34 613.25,412.59 613.25,412.59
             607.86,415.94 604.91,418.41 605.75,425.09
             605.75,425.09 604.50,417.59 604.50,417.59
             604.50,417.59 599.50,420.09 599.50,420.09
             599.50,420.09 598.25,413.84 598.25,413.84
             598.25,413.84 607.00,412.59 607.00,412.59
             607.00,412.59 605.75,408.83 605.75,408.83
             605.75,408.83 600.75,411.33 600.75,411.33
             600.75,411.33 603.25,408.83 603.25,408.83
             603.25,408.83 603.25,407.58 603.25,407.58
             603.25,407.58 598.25,403.83 598.25,403.83
             598.25,403.83 595.75,406.33 595.75,406.33
             595.75,406.33 593.25,402.58 593.25,402.58
             593.25,402.58 593.25,407.58 593.25,407.58
             593.25,407.58 593.25,405.08 593.25,405.08
             593.25,405.08 592.00,405.08 592.00,405.08
             592.00,405.08 590.75,412.59 590.75,412.59
             590.75,412.59 582.00,402.58 582.00,402.58
             582.00,402.58 582.00,415.09 582.00,415.09
             581.00,410.46 581.09,408.98 577.00,406.33
             577.00,406.33 578.25,412.59 578.25,412.59
             578.25,412.59 573.25,411.33 573.25,411.33
             573.25,411.33 575.75,405.08 575.75,405.08
             575.75,405.08 570.75,410.08 570.75,410.08
             570.75,410.08 569.50,406.33 569.50,406.33
             569.50,406.33 568.25,410.08 568.25,410.08
             567.57,405.51 567.88,404.22 563.25,402.58
             563.25,402.58 562.00,406.33 562.00,406.33
             562.00,406.33 560.75,401.33 560.75,401.33
             560.75,401.33 558.25,406.33 558.25,406.33
             558.25,406.33 555.75,406.33 555.75,406.33
             555.75,406.33 558.25,401.33 558.25,401.33
             558.25,401.33 554.50,397.58 554.50,397.58
             554.50,397.58 553.25,402.58 553.25,402.58
             553.25,402.58 542.00,400.08 542.00,400.08
             542.00,400.08 548.25,396.33 548.25,396.33
             548.25,396.33 534.50,398.83 534.50,398.83
             534.50,398.83 545.75,390.08 545.75,390.08
             545.75,390.08 542.00,388.83 542.00,388.83
             542.00,388.83 548.25,385.08 548.25,385.08
             540.74,385.17 539.26,384.98 537.00,392.58
             537.00,392.58 534.50,388.83 534.50,388.83
             534.50,388.83 537.00,385.08 537.00,385.08
             537.00,385.08 534.50,386.33 534.50,386.33
             534.50,386.33 537.00,383.83 537.00,383.83
             537.00,383.83 537.00,382.58 537.00,382.58
             537.00,382.58 530.75,385.08 530.75,385.08
             537.00,378.70 539.59,380.72 547.01,379.79
             547.01,379.79 555.75,377.58 555.75,377.58
             551.73,370.44 547.41,372.78 540.75,374.34
             528.07,377.30 533.24,376.37 522.00,381.33
             522.00,381.33 533.09,372.56 533.09,372.56
             533.09,372.56 538.62,366.54 538.62,366.54
             538.62,366.54 544.50,365.08 544.50,365.08
             541.76,357.11 537.40,354.55 529.50,352.57
             529.50,352.57 532.00,358.82 532.00,358.82
             532.00,358.82 520.75,372.58 520.75,372.58
             520.75,372.58 519.50,378.83 519.50,378.83
             519.50,378.83 519.50,371.33 519.50,371.33
             519.50,371.33 523.25,371.33 523.25,371.33
             523.25,371.33 525.75,358.82 525.75,358.82
             519.90,360.88 517.48,362.44 519.50,368.83
             519.50,368.83 513.25,375.08 513.25,375.08
             513.25,375.08 516.21,363.78 516.21,363.78
             516.21,363.78 524.50,347.57 524.50,347.57
             524.50,347.57 512.00,345.07 512.00,345.07
             512.00,345.07 510.75,346.32 510.75,346.32
             510.75,346.32 512.00,348.82 512.00,348.82
             512.00,348.82 505.75,357.57 505.75,357.57
             505.75,357.57 508.25,345.07 508.25,345.07
             495.62,356.11 504.38,361.01 500.75,373.83
             500.75,373.83 499.50,358.82 499.50,358.82
             495.98,361.45 496.62,363.45 495.75,367.58
             495.75,367.58 493.25,365.08 493.25,365.08
             493.25,365.08 494.50,356.32 494.50,356.32
             501.06,353.76 501.35,346.21 497.00,341.32
             497.00,341.32 495.75,350.07 495.75,350.07
             495.75,350.07 484.50,361.33 484.50,361.33
             484.50,361.33 487.00,353.82 487.00,353.82
             487.00,353.82 482.00,356.32 482.00,356.32
             484.64,351.91 485.11,351.47 484.50,346.32
             484.50,346.32 490.75,345.07 490.75,345.07
             490.35,333.74 485.75,333.51 475.75,332.57
             475.75,332.57 473.25,352.57 473.25,352.57
             473.25,352.57 474.50,343.82 474.50,343.82
             469.76,345.80 470.96,348.15 472.00,352.57
             472.00,352.57 465.75,337.57 465.75,337.57
             465.75,337.57 464.50,350.07 464.50,350.07
             464.25,347.16 464.84,346.08 462.00,345.07
             462.00,345.07 459.50,336.32 459.50,336.32
             459.50,336.32 457.00,352.57 457.00,352.57
             458.12,347.21 458.25,346.65 454.50,342.57
             454.50,342.57 452.00,345.07 452.00,345.07
             452.00,345.07 454.50,338.82 454.50,338.82
             454.50,338.82 450.75,338.82 450.75,338.82
             453.49,337.27 456.70,335.55 457.57,332.22
             458.89,327.18 453.89,325.89 450.45,328.53
             445.89,332.01 448.67,335.67 444.50,341.32
             444.50,341.32 447.00,328.82 447.00,328.82
             441.95,330.62 441.92,332.97 439.50,337.57
             441.14,331.26 442.29,329.23 448.25,326.32
             447.02,318.78 444.45,316.92 437.00,316.32
             437.00,316.32 437.00,320.07 437.00,320.07
             431.42,312.40 418.10,312.23 417.00,327.57
             417.00,327.57 432.00,331.32 432.00,331.32
             432.00,331.32 425.75,333.82 425.75,333.82
             425.75,333.82 419.50,330.07 419.50,330.07
             419.50,330.07 418.25,335.07 418.25,335.07
             418.25,335.07 422.00,338.82 422.00,338.82
             422.00,338.82 429.50,343.82 429.50,343.82
             429.50,343.82 417.00,336.32 417.00,336.32
             417.00,336.32 420.75,343.82 420.75,343.82
             420.75,343.82 414.50,342.57 414.50,342.57
             414.44,336.73 414.89,334.56 410.75,330.07
             410.75,330.07 409.50,336.32 409.50,336.32
             409.50,336.32 409.50,333.82 409.50,333.82
             409.50,333.82 408.25,333.82 408.25,333.82
             408.25,333.82 409.50,338.82 409.50,338.82
             409.50,338.82 402.00,337.57 402.00,337.57
             403.40,342.61 402.23,343.23 399.50,347.57
             399.50,347.57 397.00,342.57 397.00,342.57
             397.00,342.57 399.50,340.07 399.50,340.07
             399.50,340.07 398.25,328.82 398.25,328.82
             398.25,328.82 393.25,338.82 393.25,338.82
             393.25,338.82 399.50,320.07 399.50,320.07 Z
           M 182.00,323.82
           C 186.60,320.19 192.12,313.94 191.59,307.56
             190.84,298.68 178.73,297.19 172.00,305.06
             178.48,312.38 178.33,315.10 182.00,323.82 Z
           M 253.25,315.07
           C 249.52,311.34 256.69,308.60 252.48,305.08
             249.59,302.26 244.21,305.00 240.80,305.08
             236.31,305.73 231.36,302.00 222.00,303.81
             222.00,303.81 230.75,322.57 230.75,322.57
             230.75,322.57 225.75,320.07 225.75,320.07
             225.75,320.07 224.50,323.82 224.50,323.82
             229.93,325.83 226.19,331.33 224.50,335.07
             224.50,335.07 220.75,336.32 220.75,336.32
             220.75,336.32 215.75,335.07 215.75,335.07
             215.35,332.01 214.83,328.06 212.31,325.89
             208.64,322.73 205.44,328.02 205.27,331.32
             205.06,335.55 211.45,344.63 214.50,347.57
             214.50,347.57 217.00,345.07 217.00,345.07
             220.05,353.25 230.05,359.81 232.00,375.08
             232.00,375.08 236.24,376.54 236.24,376.54
             244.49,377.74 240.67,366.49 240.77,365.08
             240.94,362.68 241.45,362.71 242.00,361.33
             242.00,361.33 242.00,367.58 242.00,367.58
             251.00,368.54 249.95,367.90 257.00,362.58
             257.00,362.58 255.75,358.82 255.75,358.82
             255.75,358.82 258.25,358.82 258.25,358.82
             258.25,358.82 258.25,357.57 258.25,357.57
             258.25,357.57 255.75,357.57 255.75,357.57
             258.49,353.50 257.94,353.11 255.75,348.82
             259.96,344.50 259.19,343.23 258.25,337.57
             258.25,337.57 252.00,340.07 252.00,340.07
             252.00,340.07 252.00,330.07 252.00,330.07
             246.94,327.99 246.25,327.76 242.00,331.32
             244.73,321.27 248.90,322.12 253.25,315.07 Z
           M 170.75,313.82
           C 170.75,313.82 162.00,308.81 162.00,308.81
             162.00,308.81 163.25,312.57 163.25,312.57
             157.75,314.85 159.64,321.04 159.41,326.32
             159.41,326.32 158.66,342.57 158.66,342.57
             158.52,345.31 159.62,348.62 158.66,351.06
             158.66,351.06 153.25,358.82 153.25,358.82
             146.39,340.52 157.52,326.88 143.25,318.82
             143.25,318.82 124.50,401.33 124.50,401.33
             124.50,401.33 105.80,396.97 105.80,396.97
             105.80,396.97 92.00,398.83 92.00,398.83
             92.00,398.83 92.00,392.58 92.00,392.58
             92.00,392.58 54.50,381.33 54.50,381.33
             56.91,389.78 56.59,389.27 54.50,397.58
             57.84,400.00 60.75,403.23 64.55,404.90
             69.27,406.97 76.54,407.08 79.66,412.12
             82.55,416.79 74.43,426.56 82.38,433.09
             85.89,435.98 94.98,435.90 99.50,436.35
             99.50,436.35 115.75,438.50 115.75,438.50
             124.74,438.18 127.44,435.44 132.00,434.26
             135.86,433.26 139.39,434.43 143.17,432.38
             148.62,429.43 146.30,426.53 154.50,421.34
             154.50,421.34 154.50,430.09 154.50,430.09
             154.50,430.09 169.50,435.09 169.50,435.09
             169.50,435.09 169.50,437.59 169.50,437.59
             169.50,437.59 165.75,441.34 165.75,441.34
             165.75,441.34 172.00,442.59 172.00,442.59
             172.00,442.59 172.00,441.34 172.00,441.34
             172.00,441.34 174.50,440.09 174.50,440.09
             181.11,450.61 193.41,442.59 200.75,442.59
             200.75,442.59 200.75,435.09 200.75,435.09
             200.75,435.09 197.00,436.34 197.00,436.34
             197.00,436.34 198.25,427.59 198.25,427.59
             192.12,430.08 190.07,432.76 185.75,437.59
             190.12,428.19 189.27,429.04 185.75,420.09
             189.96,423.15 190.38,424.55 195.75,423.84
             195.75,423.84 194.50,418.84 194.50,418.84
             194.50,418.84 198.25,415.09 198.25,415.09
             198.25,415.09 205.75,421.34 205.75,421.34
             205.75,421.34 208.25,416.34 208.25,416.34
             208.25,416.34 208.25,422.59 208.25,422.59
             208.25,422.59 210.75,422.59 210.75,422.59
             210.75,422.59 212.00,408.83 212.00,408.83
             212.00,408.83 205.75,410.08 205.75,410.08
             205.75,410.08 207.00,405.08 207.00,405.08
             201.80,404.50 201.92,402.65 198.05,399.68
             189.95,393.47 188.73,394.79 184.10,384.18
             183.38,382.53 182.31,380.52 182.06,378.74
             181.40,373.95 184.98,370.48 184.36,362.58
             184.36,362.58 182.26,352.57 182.26,352.57
             182.26,352.57 180.96,337.57 180.96,337.57
             180.96,337.57 180.96,327.57 180.96,327.57
             180.15,321.47 174.96,314.02 169.50,311.32
             169.50,311.32 170.75,313.82 170.75,313.82 Z
           M 222.00,308.81
           C 222.00,308.81 217.00,310.07 217.00,310.07
             219.19,315.45 219.94,316.58 225.75,317.57
             225.75,317.57 222.00,308.81 222.00,308.81 Z
           M 255.75,323.82
           C 255.75,323.82 254.50,330.07 254.50,330.07
             257.74,327.77 257.67,327.26 255.75,323.82 Z
           M 464.50,333.82
           C 464.50,333.82 462.00,333.82 462.00,333.82
             462.00,333.82 463.25,340.07 463.25,340.07
             463.25,340.07 464.50,333.82 464.50,333.82 Z
           M 363.25,338.82
           C 363.25,338.82 362.00,338.82 362.00,338.82
             362.00,338.82 363.25,340.07 363.25,340.07
             363.25,340.07 363.25,338.82 363.25,338.82 Z
           M 275.75,358.82
           C 270.12,361.01 266.42,367.01 264.50,372.58
             264.50,372.58 268.25,372.58 268.25,372.58
             268.25,372.58 267.00,380.08 267.00,380.08
             267.00,380.08 260.75,376.33 260.75,376.33
             257.98,382.97 256.54,390.87 259.50,397.58
             259.50,397.58 263.25,396.33 263.25,396.33
             263.25,396.33 264.50,400.08 264.50,400.08
             264.50,400.08 263.25,401.33 263.25,401.33
             263.25,401.33 260.75,400.08 260.75,400.08
             258.99,403.63 256.95,407.21 257.34,411.33
             258.04,418.65 268.07,430.65 275.75,426.34
             279.02,432.98 280.32,433.14 287.00,430.09
             287.39,436.10 286.91,436.59 283.25,441.34
             283.25,441.34 284.50,436.34 284.50,436.34
             282.21,437.13 277.42,439.70 282.00,441.34
             278.39,446.68 277.50,447.33 277.00,453.84
             277.00,453.84 282.00,452.59 282.00,452.59
             282.00,452.59 285.75,446.34 285.75,446.34
             285.75,446.34 288.25,458.84 288.25,458.84
             278.89,465.00 282.30,465.97 276.82,471.07
             269.91,477.51 270.59,470.67 264.50,483.85
             269.60,490.01 268.49,492.28 269.50,500.10
             269.50,500.10 263.25,500.10 263.25,500.10
             263.25,500.10 265.75,495.10 265.75,495.10
             265.75,495.10 258.25,497.60 258.25,497.60
             258.25,497.60 259.50,492.60 259.50,492.60
             254.60,486.90 259.41,478.01 260.75,471.35
             260.75,471.35 259.50,470.10 259.50,470.10
             259.50,470.10 257.00,470.10 257.00,470.10
             257.00,470.10 252.00,475.10 252.00,475.10
             252.00,475.10 255.75,467.60 255.75,467.60
             255.75,467.60 240.75,458.84 240.75,458.84
             240.75,458.84 242.00,463.85 242.00,463.85
             242.00,463.85 239.50,466.35 239.50,466.35
             239.50,466.35 234.50,463.85 234.50,463.85
             234.50,463.85 238.25,478.85 238.25,478.85
             238.25,478.85 243.25,473.85 243.25,473.85
             244.45,475.74 247.96,479.74 248.21,481.45
             248.61,484.26 246.16,486.94 242.91,485.24
             239.20,483.30 235.56,476.15 232.00,472.60
             232.00,472.60 235.75,481.35 235.75,481.35
             219.16,482.64 222.49,478.55 212.52,478.10
             208.01,477.90 204.98,480.11 200.75,480.24
             189.73,480.57 184.42,473.41 179.50,465.10
             175.30,468.48 173.41,467.70 168.25,467.60
             168.25,467.60 168.25,460.09 168.25,460.09
             164.56,458.42 161.49,457.06 162.00,452.59
             161.00,448.63 160.64,442.49 156.71,440.37
             153.17,438.44 148.11,440.82 144.50,441.85
             135.01,444.58 130.50,440.35 125.75,451.34
             125.75,451.34 134.50,456.34 134.50,456.34
             134.50,456.34 133.25,451.34 133.25,451.34
             133.25,451.34 148.25,453.84 148.25,453.84
             148.25,453.84 148.25,448.84 148.25,448.84
             148.25,448.84 159.50,447.59 159.50,447.59
             159.50,447.59 158.25,453.84 158.25,453.84
             158.25,453.84 148.25,456.34 148.25,456.34
             148.25,456.34 149.50,460.09 149.50,460.09
             149.50,460.09 145.75,461.34 145.75,461.34
             137.56,459.39 135.86,461.89 129.50,466.35
             129.50,466.35 131.34,475.10 131.34,475.10
             131.34,475.10 131.34,482.55 131.34,482.55
             131.34,482.55 134.50,496.35 134.50,496.35
             134.50,496.35 128.25,496.35 128.25,496.35
             128.25,496.35 127.00,491.35 127.00,491.35
             127.00,491.35 129.50,510.10 129.50,510.10
             129.50,510.10 119.50,483.85 119.50,483.85
             122.29,487.51 122.56,487.34 127.00,486.35
             127.00,486.35 124.50,477.60 124.50,477.60
             124.50,477.60 120.75,478.85 120.75,478.85
             120.75,478.85 120.75,471.35 120.75,471.35
             120.75,471.35 119.50,477.60 119.50,477.60
             113.38,471.60 120.91,466.01 110.75,466.35
             110.75,466.35 108.25,456.34 108.25,456.34
             108.25,456.34 97.00,459.37 97.00,459.37
             79.00,461.51 62.36,453.33 49.50,441.34
             49.50,441.34 54.50,441.34 54.50,441.34
             54.50,441.34 57.00,435.09 57.00,435.09
             57.00,435.09 58.25,437.59 58.25,437.59
             63.93,434.93 63.48,437.10 66.77,436.30
             70.35,435.43 69.76,431.63 69.16,428.84
             67.96,423.26 58.75,406.30 54.50,416.34
             54.50,416.34 39.56,405.51 39.56,405.51
             39.56,405.51 29.24,392.81 29.24,392.81
             29.24,392.81 17.00,381.33 17.00,381.33
             13.50,386.66 8.35,399.82 5.56,406.33
             4.21,409.48 1.21,415.59 1.35,418.84
             1.59,424.29 12.34,438.57 15.69,443.84
             15.69,443.84 48.66,495.10 48.66,495.10
             51.60,499.50 60.62,514.43 63.65,516.91
             68.61,520.96 79.59,521.23 84.24,524.76
             92.68,531.17 90.50,543.97 103.25,549.24
             103.25,549.24 165.75,572.38 165.75,572.38
             174.54,575.70 185.14,576.52 184.29,587.62
             184.29,587.62 172.00,701.39 172.00,701.39
             172.00,701.39 198.25,704.01 198.25,704.01
             198.25,704.01 230.75,706.39 230.75,706.39
             230.75,706.39 258.25,706.39 258.25,706.39
             265.74,706.48 278.55,711.21 275.41,697.87
             274.89,695.67 274.42,695.54 273.25,693.89
             283.05,689.28 281.67,677.24 287.00,670.14
             287.35,663.33 290.61,661.53 295.75,657.63
             295.75,657.63 290.75,655.13 290.75,655.13
             290.75,655.13 292.00,652.63 292.00,652.63
             292.00,652.63 290.75,651.38 290.75,651.38
             290.75,651.38 294.50,648.88 294.50,648.88
             294.50,648.88 295.75,650.13 295.75,650.13
             295.75,650.13 298.25,648.88 298.25,648.88
             298.25,648.88 297.00,643.88 297.00,643.88
             297.00,643.88 302.00,642.63 302.00,642.63
             302.00,642.63 298.25,640.13 298.25,640.13
             302.76,638.42 302.92,637.04 304.50,632.63
             304.50,632.63 313.25,632.63 313.25,632.63
             313.25,632.63 305.75,625.13 305.75,625.13
             305.75,625.13 320.75,624.03 320.75,624.03
             320.75,624.03 328.25,621.38 328.25,621.38
             329.69,605.27 322.00,609.76 314.50,600.12
             314.50,600.12 304.50,605.12 304.50,605.12
             304.50,605.12 308.25,600.12 308.25,600.12
             308.25,600.12 288.25,595.12 288.25,595.12
             288.25,595.12 288.25,592.62 288.25,592.62
             296.92,592.70 299.05,595.85 307.00,597.92
             307.00,597.92 315.75,599.63 315.75,599.63
             315.75,599.63 324.50,602.47 324.50,602.47
             332.17,603.34 336.76,598.83 333.25,591.37
             333.25,591.37 337.00,592.62 337.00,592.62
             337.00,592.62 335.75,585.12 335.75,585.12
             338.38,586.28 340.39,587.26 343.25,587.82
             358.01,590.72 358.81,580.16 363.82,570.12
             365.77,566.22 370.73,557.33 368.69,552.96
             366.06,547.34 355.44,552.33 347.05,549.85
             341.52,548.20 339.85,544.07 335.64,540.57
             333.07,538.46 329.89,536.78 327.00,535.11
             329.91,534.86 330.99,535.45 332.00,532.61
             350.84,538.61 358.07,558.23 369.79,541.34
             372.17,537.88 372.11,537.53 373.60,533.86
             374.76,530.98 378.10,525.72 377.33,522.88
             376.42,519.62 372.24,519.08 370.02,517.27
             367.91,515.53 367.71,513.82 367.00,511.35
             374.64,511.35 376.00,511.92 383.25,508.85
             383.25,508.85 385.75,517.61 385.75,517.61
             385.75,517.61 395.75,516.36 395.75,516.36
             395.75,516.36 392.00,513.86 392.00,513.86
             392.00,513.86 395.75,515.11 395.75,515.11
             395.75,515.11 403.25,516.36 403.25,516.36
             403.25,516.36 393.25,501.35 393.25,501.35
             397.44,501.30 397.09,500.99 399.50,497.60
             399.07,505.79 400.94,505.03 405.75,511.35
             408.62,508.89 414.16,503.14 416.15,499.96
             419.46,494.65 418.45,492.18 424.50,488.85
             424.50,484.87 425.02,477.32 423.23,473.96
             420.66,469.17 408.64,462.28 407.00,451.34
             407.00,451.34 403.25,451.34 403.25,451.34
             403.25,451.34 404.50,450.09 404.50,450.09
             404.50,450.09 403.25,447.59 403.25,447.59
             403.25,447.59 412.00,447.59 412.00,447.59
             415.89,442.19 416.84,441.63 414.50,435.09
             414.50,435.09 408.25,436.34 408.25,436.34
             408.25,436.34 413.25,426.34 413.25,426.34
             413.25,426.34 403.25,426.34 403.25,426.34
             401.38,421.56 400.62,421.40 395.75,420.09
             395.75,420.09 398.25,416.34 398.25,416.34
             398.25,416.34 387.00,415.47 387.00,415.47
             387.00,415.47 378.26,413.54 378.26,413.54
             378.26,413.54 369.50,415.09 369.50,415.09
             369.50,415.09 368.25,416.34 368.25,416.34
             370.56,432.10 369.09,431.65 380.75,436.34
             380.75,436.34 377.00,442.59 377.00,442.59
             377.00,442.59 378.25,442.59 378.25,442.59
             378.25,442.59 380.75,445.09 380.75,445.09
             380.75,445.09 372.05,448.24 372.05,448.24
             372.05,448.24 371.01,463.86 371.01,463.86
             371.01,463.86 366.98,476.35 366.98,476.35
             366.98,476.35 366.98,488.85 366.98,488.85
             366.98,488.85 360.75,488.85 360.75,488.85
             360.75,488.85 360.75,490.10 360.75,490.10
             360.75,490.10 363.25,492.60 363.25,492.60
             363.25,492.60 358.25,496.35 358.25,496.35
             358.25,496.35 347.04,478.76 347.04,478.76
             347.04,478.76 343.25,461.34 343.25,461.34
             343.25,461.34 347.00,465.10 347.00,465.10
             350.36,459.59 347.49,451.44 343.69,446.57
             340.04,441.89 338.55,443.20 334.50,436.34
             334.50,436.34 330.75,436.34 330.75,436.34
             330.75,436.34 325.75,455.09 325.75,455.09
             326.38,460.92 326.06,462.43 323.25,467.60
             323.25,467.60 318.25,461.34 318.25,461.34
             321.77,448.93 318.00,443.80 309.50,435.09
             309.50,435.09 314.50,436.34 314.50,436.34
             314.50,436.34 318.25,430.09 318.25,430.09
             318.25,430.09 305.75,428.84 305.75,428.84
             305.75,428.84 294.50,426.34 294.50,426.34
             294.50,426.34 302.00,415.09 302.00,415.09
             302.00,415.09 297.00,415.09 297.00,415.09
             297.00,415.09 298.25,410.08 298.25,410.08
             298.25,410.08 305.75,411.33 305.75,411.33
             305.75,411.33 304.50,406.33 304.50,406.33
             304.50,406.33 300.75,407.58 300.75,407.58
             300.75,407.58 298.25,397.58 298.25,397.58
             298.25,397.58 290.75,392.58 290.75,392.58
             293.12,384.20 291.76,379.60 286.74,372.60
             285.36,370.68 283.00,366.90 280.46,366.66
             278.75,366.49 277.85,367.29 277.00,367.58
             277.00,367.58 277.00,360.07 277.00,360.07
             277.00,360.07 275.75,358.82 275.75,358.82 Z
           M 442.00,402.58
           C 442.00,402.58 437.00,410.08 437.00,410.08
             440.98,407.73 441.34,407.15 442.00,402.58 Z
           M 427.00,403.83
           C 427.00,403.83 415.75,410.08 415.75,410.08
             415.75,410.08 422.00,408.83 422.00,408.83
             422.00,408.83 428.25,408.83 428.25,408.83
             428.25,408.83 427.00,403.83 427.00,403.83 Z
           M 458.25,407.58
           C 458.25,407.58 452.00,408.83 452.00,408.83
             452.00,408.83 455.75,416.34 455.75,416.34
             455.75,416.34 458.25,407.58 458.25,407.58 Z
           M 355.75,408.83
           C 355.75,408.83 349.50,408.83 349.50,408.83
             349.50,408.83 354.50,412.59 354.50,412.59
             354.50,412.59 355.75,408.83 355.75,408.83 Z
           M 443.25,413.84
           C 443.25,413.84 439.50,413.84 439.50,413.84
             439.50,413.84 435.75,430.09 435.75,430.09
             441.04,425.28 441.16,420.55 443.25,413.84 Z
           M 243.25,420.09
           C 237.77,424.83 238.98,425.93 239.50,432.59
             239.50,432.59 235.75,428.84 235.75,428.84
             236.36,438.33 232.39,439.44 224.50,442.59
             224.50,442.59 227.00,448.84 227.00,448.84
             227.00,448.84 232.00,446.34 232.00,446.34
             232.00,446.34 234.50,452.59 234.50,452.59
             234.50,452.59 238.25,450.09 238.25,450.09
             239.56,453.93 245.23,461.06 249.50,457.59
             256.62,463.77 256.60,459.31 263.25,457.59
             263.25,457.59 264.50,452.59 264.50,452.59
             264.50,452.59 268.25,453.84 268.25,453.84
             268.25,453.84 269.50,450.09 269.50,450.09
             269.50,450.09 264.50,451.34 264.50,451.34
             264.50,451.34 260.75,441.34 260.75,441.34
             260.75,441.34 259.50,445.09 259.50,445.09
             259.21,433.94 256.27,435.13 249.50,426.34
             249.50,426.34 247.00,428.84 247.00,428.84
             247.00,428.84 243.25,420.09 243.25,420.09 Z
           M 485.75,431.34
           C 483.55,425.95 482.75,424.31 477.00,422.59
             478.74,428.36 480.11,429.39 485.75,431.34 Z
           M 475.75,435.79
           C 465.59,439.08 463.88,449.54 466.89,458.84
             468.23,462.95 470.65,468.57 475.80,468.08
             477.49,467.92 480.49,466.58 481.98,465.75
             491.31,460.51 490.16,453.74 487.10,445.09
             486.30,442.82 485.55,439.07 483.76,437.50
             481.45,435.49 478.55,435.65 475.75,435.79 Z
           M 493.25,435.09
           C 493.25,435.09 489.50,438.84 489.50,438.84
             493.81,447.23 498.11,444.28 505.75,442.59
             505.75,442.59 503.25,436.34 503.25,436.34
             498.53,437.13 497.31,437.95 493.25,435.09 Z
           M 215.75,442.59
           C 212.86,446.13 213.14,447.72 215.75,451.34
             215.75,451.34 215.75,442.59 215.75,442.59 Z
           M 444.50,446.34
           C 444.50,446.34 440.75,443.84 440.75,443.84
             440.75,443.84 443.25,447.59 443.25,447.59
             443.25,447.59 444.50,446.34 444.50,446.34 Z
           M 199.50,447.59
           C 199.50,447.59 195.75,452.59 195.75,452.59
             195.75,452.59 199.50,453.84 199.50,453.84
             199.50,453.84 199.50,447.59 199.50,447.59 Z
           M 167.00,450.09
           C 166.27,453.86 167.40,453.94 170.75,455.09
             170.75,455.09 167.00,450.09 167.00,450.09 Z
           M 125.75,451.34
           C 125.75,451.34 124.50,451.34 124.50,451.34
             124.50,451.34 125.75,452.59 125.75,452.59
             125.75,452.59 125.75,451.34 125.75,451.34 Z
           M 535.75,453.84
           C 535.75,453.84 542.00,452.59 542.00,452.59
             548.65,459.63 554.23,457.96 563.25,457.59
             563.25,457.59 560.75,462.60 560.75,462.60
             568.21,465.81 558.71,470.90 555.75,473.85
             555.75,473.85 552.00,471.35 552.00,471.35
             551.14,476.92 550.79,480.70 545.75,483.85
             546.34,475.01 542.79,471.03 535.75,466.35
             539.32,461.46 537.95,459.07 535.75,453.84 Z
           M 363.25,461.34
           C 359.09,466.31 358.89,473.95 365.75,476.35
             365.75,476.35 363.25,461.34 363.25,461.34 Z
           M 547.00,500.10
           C 560.14,503.64 565.29,504.70 573.25,516.36
             573.25,516.36 567.00,517.61 567.00,517.61
             567.00,517.61 568.25,513.86 568.25,513.86
             568.25,513.86 563.25,513.86 563.25,513.86
             561.85,522.17 555.40,523.17 550.75,516.36
             550.75,516.36 555.75,513.86 555.75,513.86
             555.75,513.86 547.00,500.10 547.00,500.10 Z
           M 397.00,520.11
           C 397.00,520.11 403.25,530.11 403.25,530.11
             403.25,530.11 405.75,523.86 405.75,523.86
             405.75,523.86 397.00,520.11 397.00,520.11 Z
           M 389.50,525.11
           C 388.94,530.81 391.50,533.06 395.75,536.36
             395.01,531.02 394.21,528.08 389.50,525.11 Z
           M 384.50,528.86
           C 376.38,536.25 380.35,545.42 380.70,555.11
             381.21,569.33 376.52,566.88 384.50,582.62
             376.77,585.66 371.38,590.12 374.50,598.87
             374.50,598.87 392.00,591.37 392.00,591.37
             392.00,591.37 394.56,603.71 394.56,603.71
             397.15,609.76 402.91,606.34 405.71,602.49
             405.71,602.49 410.36,592.98 410.36,592.98
             411.98,590.60 414.79,588.42 415.92,585.82
             418.55,579.84 413.21,577.91 424.50,572.62
             424.50,572.62 423.25,578.87 423.25,578.87
             423.25,578.87 433.25,578.87 433.25,578.87
             433.25,578.87 432.00,585.12 432.00,585.12
             432.00,585.12 451.52,586.79 451.52,586.79
             451.52,586.79 460.75,576.37 460.75,576.37
             460.75,576.37 453.25,575.12 453.25,575.12
             453.25,575.12 454.50,572.62 454.50,572.62
             454.50,572.62 449.50,570.12 449.50,570.12
             449.50,570.12 450.75,573.87 450.75,573.87
             443.96,571.53 443.10,573.08 437.00,576.37
             437.00,576.37 440.75,571.37 440.75,571.37
             438.92,566.74 436.29,559.70 431.91,557.11
             428.32,554.99 426.36,556.18 420.75,552.99
             420.75,552.99 412.90,547.59 412.90,547.59
             412.90,547.59 404.83,544.95 404.83,544.95
             401.24,543.00 402.19,542.05 397.00,540.11
             397.00,540.11 397.00,547.61 397.00,547.61
             397.00,547.61 388.25,538.86 388.25,538.86
             391.19,533.71 388.02,532.56 384.50,528.86 Z
           M 412.00,530.11
           C 412.00,530.11 405.75,531.36 405.75,531.36
             405.75,531.36 412.00,530.11 412.00,530.11 Z
           M 654.50,533.86
           C 653.75,538.16 654.84,538.96 658.25,541.36
             658.01,536.77 657.80,537.02 654.50,533.86 Z
           M 540.75,536.36
           C 540.75,536.36 539.50,536.36 539.50,536.36
             539.50,536.36 540.75,537.61 540.75,537.61
             540.75,537.61 540.75,536.36 540.75,536.36 Z
           M 668.25,540.11
           C 664.45,540.36 664.59,540.27 663.25,543.86
             663.25,543.86 668.25,540.11 668.25,540.11 Z
           M 672.00,560.11
           C 672.00,560.11 667.00,560.11 667.00,560.11
             667.00,560.11 672.00,560.11 672.00,560.11 Z
           M 678.25,571.37
           C 677.19,562.51 671.29,561.73 667.00,568.87
             667.00,568.87 678.25,571.37 678.25,571.37 Z
           M 595.75,571.37
           C 593.10,566.95 591.99,566.95 587.00,566.37
             589.09,571.73 590.20,571.73 595.75,571.37 Z
           M 508.25,575.12
           C 504.17,570.35 503.11,570.33 497.00,570.12
             500.01,574.88 502.75,575.93 508.25,575.12 Z
           M 484.50,582.62
           C 484.50,582.62 489.50,585.38 489.50,585.38
             500.64,590.60 498.98,575.64 488.38,579.64
             486.23,580.46 485.96,581.18 484.50,582.62 Z
           M 444.50,605.12
           C 444.50,605.12 424.50,610.12 424.50,610.12
             424.50,610.12 420.75,626.38 420.75,626.38
             420.75,626.38 424.50,631.38 424.50,631.38
             428.73,629.28 428.66,628.82 433.25,630.13
             439.27,620.45 443.66,616.76 444.50,605.12 Z
           M 645.75,622.63
           C 651.01,619.20 652.49,614.09 645.75,611.37
             645.75,611.37 644.50,612.62 644.50,612.62
             644.50,612.62 645.75,622.63 645.75,622.63 Z
           M 480.75,637.63
           C 482.19,632.92 486.25,616.08 478.25,615.16
             474.26,614.71 472.59,619.51 472.25,622.63
             471.44,630.13 475.60,633.25 480.75,637.63 Z
           M 527.00,893.93
           C 524.79,890.13 522.30,886.03 518.24,883.95
             511.55,880.56 503.66,884.10 502.00,891.43
             502.00,891.43 527.00,893.93 527.00,893.93 Z
           M 555.75,906.43
           C 555.75,906.43 550.75,911.43 550.75,911.43
             554.59,910.10 554.41,910.27 555.75,906.43 Z" />
</svg>
