<?xml version="1.0" encoding="UTF-8" standalone="no"?>
<!DOCTYPE svg PUBLIC "-//W3C//DTD SVG 20010904//EN"
              "http://www.w3.org/TR/2001/REC-SVG-20010904/DTD/svg10.dtd">

<svg xmlns="http://www.w3.org/2000/svg"
     width="4.85556in" height="4.72222in"
     viewBox="0 0 437 425">
  <path id="Selection"
        fill="currentColor" stroke="black" stroke-width="1"
        d="M 100.75,1.41
           C 94.46,7.05 84.75,21.48 78.98,28.92
             78.98,28.92 26.42,97.68 26.42,97.68
             21.15,104.07 3.61,119.43 1.50,125.19
             0.60,127.61 0.75,131.32 0.75,133.94
             0.75,133.94 0.75,217.70 0.75,217.70
             0.82,230.31 3.85,223.82 6.84,235.21
             7.56,238.01 8.05,243.40 10.24,245.20
             10.24,245.20 27.35,250.86 27.35,250.86
             31.84,251.61 45.20,244.32 48.25,253.96
             48.25,253.96 53.25,253.96 53.25,253.96
             53.25,253.96 54.50,260.21 54.50,260.21
             54.50,260.21 60.75,255.21 60.75,255.21
             63.07,258.69 64.05,259.49 67.74,261.54
             75.49,265.84 78.80,261.26 85.75,257.71
             86.75,259.20 86.67,259.84 88.61,260.72
             90.69,261.66 93.32,261.34 95.54,261.36
             101.71,261.42 107.14,265.48 112.90,260.74
             116.57,257.70 116.35,253.36 118.23,250.47
             120.12,247.56 122.75,246.60 125.75,245.21
             125.75,245.21 124.50,251.46 124.50,251.46
             129.20,247.83 129.30,240.66 130.75,235.21
             130.75,235.21 134.50,236.46 134.50,236.46
             135.30,234.11 135.49,232.37 138.44,231.87
             138.44,231.87 153.30,234.77 153.30,234.77
             159.86,235.74 167.26,231.87 172.76,236.99
             177.70,241.60 177.99,252.30 187.00,255.52
             192.77,257.59 195.57,253.26 207.00,253.96
             205.89,257.01 203.98,261.36 205.79,264.48
             207.14,266.79 211.32,268.75 212.64,272.74
             213.49,275.30 212.49,278.84 212.00,281.47
             212.00,281.47 222.00,285.22 222.00,285.22
             222.00,285.22 218.25,285.22 218.25,285.22
             218.25,285.22 219.50,296.47 219.50,296.47
             219.50,296.47 228.25,292.72 228.25,292.72
             228.25,292.72 229.50,298.97 229.50,298.97
             229.50,298.97 247.00,298.97 247.00,298.97
             247.00,298.97 263.25,297.44 263.25,297.44
             263.25,297.44 278.25,296.62 278.25,296.62
             278.25,296.62 292.00,296.62 292.00,296.62
             292.00,296.62 300.35,298.81 300.35,298.81
             300.35,298.81 310.75,305.22 310.75,305.22
             310.75,305.22 313.25,311.47 313.25,311.47
             313.25,311.47 318.25,308.97 318.25,308.97
             318.25,308.97 319.50,310.22 319.50,310.22
             319.50,310.22 317.00,312.72 317.00,312.72
             317.00,312.72 317.00,313.97 317.00,313.97
             317.00,313.97 322.00,316.47 322.00,316.47
             322.00,316.47 330.75,327.73 330.75,327.73
             330.75,327.73 323.25,325.22 323.25,325.22
             323.25,325.22 322.00,328.98 322.00,328.98
             325.45,332.48 325.35,332.88 325.75,337.73
             325.75,337.73 309.50,332.73 309.50,332.73
             309.50,332.73 305.75,337.73 305.75,337.73
             305.75,337.73 304.50,331.48 304.50,331.48
             304.50,331.48 303.25,331.48 303.25,331.48
             303.25,331.48 300.75,333.98 300.75,333.98
             300.75,333.98 302.00,328.98 302.00,328.98
             302.00,328.98 297.00,328.98 297.00,328.98
             297.00,328.98 293.25,320.22 293.25,320.22
             293.25,320.22 285.75,322.72 285.75,322.72
             290.46,325.91 298.21,331.88 298.20,338.25
             298.20,341.13 293.60,349.63 293.15,356.48
             292.76,362.26 297.20,372.02 296.50,376.48
             295.59,382.29 286.85,390.24 285.69,392.23
             284.59,394.11 283.85,404.38 283.25,407.74
             295.40,415.13 270.86,412.77 274.07,421.17
             276.16,426.66 281.52,421.94 288.25,423.99
             290.89,415.20 294.71,416.46 299.79,410.74
             302.98,407.17 305.12,400.16 313.25,396.91
             319.71,394.33 325.27,396.08 328.82,394.21
             331.71,392.69 332.17,389.91 337.06,386.99
             343.79,382.96 353.10,380.61 360.75,378.99
             360.75,378.99 355.75,368.98 355.75,368.98
             346.86,371.95 347.90,373.12 338.25,371.48
             347.42,353.58 349.02,352.38 367.00,343.19
             376.75,338.21 381.00,335.38 392.00,338.98
             392.00,338.98 394.50,332.73 394.50,332.73
             394.50,332.73 390.75,330.23 390.75,330.23
             390.75,330.23 380.75,335.23 380.75,335.23
             392.07,325.41 391.62,331.34 404.50,322.26
             416.86,313.55 415.04,307.48 423.90,296.48
             429.17,289.93 432.84,289.92 435.75,281.47
             433.06,278.00 432.61,274.46 430.21,273.55
             424.00,271.19 413.51,281.68 408.98,284.87
             407.65,285.80 407.26,286.12 405.64,286.43
             405.64,286.43 392.00,287.79 392.00,287.79
             388.28,287.33 386.06,284.92 383.25,283.60
             383.25,283.60 374.50,281.23 374.50,281.23
             368.40,278.57 368.19,274.78 355.75,275.26
             351.46,275.43 343.95,277.23 340.23,276.24
             335.50,274.98 330.89,270.16 327.52,266.81
             321.62,260.90 315.49,254.61 312.73,246.46
             312.73,246.46 309.34,230.21 309.34,230.21
             309.34,230.21 293.09,163.94 293.09,163.94
             291.29,156.73 287.39,138.30 284.50,132.69
             284.50,132.69 284.50,141.44 284.50,141.44
             276.73,137.85 275.06,136.80 267.00,140.19
             267.86,138.29 268.67,137.58 268.50,135.19
             267.85,126.19 250.05,116.31 242.00,117.68
             242.00,117.68 243.25,110.18 243.25,110.18
             240.07,108.04 228.95,99.24 227.20,96.17
             225.89,92.93 227.36,89.80 227.20,86.43
             227.20,86.43 223.69,71.44 223.69,71.44
             222.06,66.39 218.79,64.76 217.54,60.12
             216.05,54.67 218.55,44.16 214.69,39.31
             210.98,34.65 197.55,36.29 192.00,36.42
             180.51,36.68 173.54,40.73 167.73,38.92
             163.29,37.54 159.81,34.20 155.75,32.12
             152.81,30.62 150.09,30.30 147.00,29.43
             138.42,26.99 131.26,22.97 122.00,25.17
             121.98,11.50 108.46,9.74 100.75,1.41 Z
           M 119.50,212.70
           C 119.31,212.56 117.31,211.99 116.85,209.89
             116.29,207.35 120.23,196.65 122.38,195.12
             127.46,191.51 131.94,194.10 132.00,200.20
             132.00,200.20 137.00,201.45 137.00,201.45
             137.00,201.45 135.75,218.95 135.75,218.95
             135.75,218.95 130.75,221.45 130.75,221.45
             130.75,221.45 117.00,217.70 117.00,217.70
             117.00,217.70 119.50,212.70 119.50,212.70 Z
           M 235.75,301.47
           C 235.75,301.47 229.50,300.22 229.50,300.22
             229.50,300.22 234.50,305.22 234.50,305.22
             234.50,305.22 235.75,301.47 235.75,301.47 Z
           M 277.00,301.47
           C 277.00,301.47 274.50,301.47 274.50,301.47
             274.50,301.47 273.25,306.47 273.25,306.47
             268.45,304.01 266.49,303.25 264.50,308.97
             258.94,307.60 256.08,306.05 250.75,308.97
             250.75,308.97 280.75,313.97 280.75,313.97
             282.76,309.40 283.44,308.37 280.75,303.97
             280.75,303.97 279.50,307.72 279.50,307.72
             279.50,307.72 277.00,301.47 277.00,301.47 Z" />
</svg>
