<?xml version="1.0" encoding="UTF-8" standalone="no"?>
<!DOCTYPE svg PUBLIC "-//W3C//DTD SVG 20010904//EN"
              "http://www.w3.org/TR/2001/REC-SVG-20010904/DTD/svg10.dtd">

<svg xmlns="http://www.w3.org/2000/svg"
     width="2.24444in" height="3.86667in"
     viewBox="0 0 202 348">
  <path id="Selection"
        fill="currentColor" stroke="black" stroke-width="1"
        d="M 179.25,1.31
           C 172.94,6.23 168.11,12.86 162.80,18.81
             162.80,18.81 134.05,51.32 134.05,51.32
             134.05,51.32 41.40,156.34 41.40,156.34
             41.40,156.34 10.44,191.34 10.44,191.34
             4.80,197.70 -0.85,201.26 1.75,210.10
             1.75,210.10 5.50,208.85 5.50,208.85
             7.80,217.37 13.14,216.75 20.50,220.10
             20.50,220.10 15.50,225.10 15.50,225.10
             17.56,231.58 22.81,234.73 28.00,238.85
             28.00,238.85 58.00,261.82 58.00,261.82
             93.58,288.26 157.75,329.03 198.00,346.37
             198.16,338.65 197.56,329.58 200.50,322.62
             200.50,322.62 170.50,311.37 170.50,311.37
             170.50,311.37 173.20,300.12 173.20,300.12
             173.20,300.12 176.75,288.86 176.75,288.86
             168.60,283.76 171.49,274.71 169.90,268.92
             168.64,264.32 164.51,262.53 163.51,258.84
             162.65,255.64 164.79,253.07 165.54,250.11
             167.34,242.95 163.97,240.38 170.50,233.85
             170.50,233.85 168.00,222.60 168.00,222.60
             168.00,222.60 175.50,220.10 175.50,220.10
             173.03,207.98 172.01,202.12 175.50,190.09
             175.50,190.09 168.00,187.59 168.00,187.59
             168.00,187.59 169.71,177.64 169.71,177.64
             169.71,177.64 168.07,170.09 168.07,170.09
             168.07,170.09 172.30,159.21 172.30,159.21
             172.30,159.21 182.29,152.77 182.29,152.77
             182.29,152.77 184.25,142.58 184.25,142.58
             177.64,137.97 173.00,135.70 180.50,128.83
             180.71,123.34 184.11,116.45 188.00,112.58
             185.75,104.14 176.98,98.36 169.25,95.07
             169.25,95.07 176.38,82.57 176.38,82.57
             176.38,82.57 184.26,67.57 184.26,67.57
             184.26,67.57 197.49,48.82 197.49,48.82
             197.49,48.82 193.05,33.81 193.05,33.81
             193.05,33.81 188.96,13.82 188.96,13.82
             188.96,13.82 179.25,1.31 179.25,1.31 Z" />
</svg>
