<?xml version="1.0" encoding="UTF-8" standalone="no"?>
<!DOCTYPE svg PUBLIC "-//W3C//DTD SVG 20010904//EN"
              "http://www.w3.org/TR/2001/REC-SVG-20010904/DTD/svg10.dtd">

<svg xmlns="http://www.w3.org/2000/svg"
     width="16.3611in" height="13.8611in"
     viewBox="0 0 1178 998" pointer-events = "none">
  <path id="Selection"
        fill="currentColor" stroke="black" stroke-width="1" pointer-events = "visibleFill"
        d="M 346.00,554.00
           C 323.09,549.39 283.51,536.21 261.00,527.95
             261.00,527.95 238.00,519.00 238.00,519.00
             238.00,519.00 204.58,599.00 204.58,599.00
             204.58,599.00 190.85,632.00 190.85,632.00
             190.85,632.00 183.82,650.00 183.82,650.00
             183.82,650.00 183.82,660.83 183.82,660.83
             183.82,660.83 187.00,669.00 187.00,669.00
             187.00,669.00 190.57,669.78 190.57,669.78
             190.57,669.78 195.04,682.08 195.04,682.08
             195.04,682.08 195.04,690.00 195.04,690.00
             199.31,691.33 199.72,693.92 199.00,698.00
             199.00,698.00 204.00,700.00 204.00,700.00
             204.00,700.00 206.00,712.00 206.00,712.00
             206.00,712.00 209.41,712.78 209.41,712.78
             209.41,712.78 214.01,728.00 214.01,728.00
             214.01,728.00 217.74,735.00 217.74,735.00
             217.74,735.00 220.42,743.25 220.42,743.25
             220.42,743.25 225.52,753.00 225.52,753.00
             225.52,753.00 222.73,776.00 222.73,776.00
             222.73,776.00 227.00,789.00 227.00,789.00
             227.00,789.00 245.00,794.28 245.00,794.28
             245.00,794.28 286.00,805.00 286.00,805.00
             286.00,805.00 300.88,744.00 300.88,744.00
             300.88,744.00 324.12,648.00 324.12,648.00
             324.12,648.00 336.63,596.00 336.63,596.00
             336.63,596.00 341.00,578.00 341.00,578.00
             337.65,579.89 337.63,580.24 337.00,584.00
             337.00,584.00 327.00,581.00 327.00,581.00
             327.00,581.00 342.15,569.57 342.15,569.57
             342.15,569.57 346.00,554.00 346.00,554.00 Z" />
</svg>
