<?xml version="1.0" encoding="UTF-8" standalone="no"?>
<!DOCTYPE svg PUBLIC "-//W3C//DTD SVG 20010904//EN"
              "http://www.w3.org/TR/2001/REC-SVG-20010904/DTD/svg10.dtd">

<svg xmlns="http://www.w3.org/2000/svg"
     width="16.3611in" height="13.8611in"
     viewBox="0 0 1178 998" pointer-events = "none">
  <path id="Selection"
        fill="currentColor" stroke="black" stroke-width="1" pointer-events = "visibleFill"
        d="M 50.00,406.00
           C 46.25,411.80 49.52,418.49 49.36,425.00
             49.28,428.60 47.62,430.91 46.00,434.00
             52.30,434.00 63.03,436.53 66.00,429.00
             66.00,429.00 78.00,432.00 78.00,432.00
             78.00,432.00 76.31,445.00 76.31,445.00
             76.31,445.00 77.32,452.00 77.32,452.00
             77.32,452.00 77.32,458.00 77.32,458.00
             77.32,458.00 80.00,473.00 80.00,473.00
             77.38,475.34 77.70,479.63 77.28,483.00
             76.21,491.72 76.98,499.09 73.00,507.00
             73.00,507.00 72.00,519.00 72.00,519.00
             75.90,522.87 79.83,531.70 81.97,536.91
             82.72,538.75 84.33,541.06 83.97,543.05
             83.55,545.38 80.76,547.60 79.27,550.09
             79.27,550.09 75.00,560.00 75.00,560.00
             75.00,560.00 80.00,558.00 80.00,558.00
             80.00,558.00 73.00,563.00 73.00,563.00
             73.00,563.00 73.00,565.00 73.00,565.00
             73.00,565.00 74.00,565.00 74.00,565.00
             74.00,565.00 76.00,567.00 76.00,567.00
             69.76,565.17 67.78,565.31 67.00,572.00
             67.00,572.00 63.00,568.00 63.00,568.00
             63.00,568.00 63.00,578.00 63.00,578.00
             63.00,578.00 61.00,570.00 61.00,570.00
             59.78,572.42 58.86,573.04 61.00,575.00
             61.00,575.00 60.00,580.00 60.00,580.00
             60.00,580.00 66.00,582.00 66.00,582.00
             66.00,582.00 60.00,581.00 60.00,581.00
             60.00,581.00 58.00,597.00 58.00,597.00
             58.00,597.00 56.00,585.00 56.00,585.00
             53.77,589.11 55.01,597.79 55.00,603.00
             55.00,603.00 60.00,598.00 60.00,598.00
             60.00,598.00 61.31,599.84 61.31,599.84
             61.31,599.84 66.04,596.99 66.04,596.99
             66.04,596.99 76.00,593.00 76.00,593.00
             76.00,593.00 75.00,595.00 75.00,595.00
             75.00,595.00 74.00,595.00 74.00,595.00
             74.00,595.00 74.00,597.00 74.00,597.00
             74.00,597.00 76.00,598.00 76.00,598.00
             76.00,598.00 76.00,599.00 76.00,599.00
             71.87,597.43 68.89,599.37 70.62,603.73
             72.01,607.25 73.74,604.30 77.00,613.00
             77.00,613.00 75.00,608.00 75.00,608.00
             75.00,608.00 66.01,601.00 66.01,601.00
             66.01,601.00 66.01,612.27 66.01,612.27
             66.01,612.27 66.01,621.00 66.01,621.00
             66.01,621.00 70.00,619.00 70.00,619.00
             70.00,619.00 70.00,620.00 70.00,620.00
             70.00,620.00 68.00,622.00 68.00,622.00
             68.00,622.00 70.00,625.00 70.00,625.00
             70.00,625.00 68.00,623.00 68.00,623.00
             68.00,623.00 67.00,623.00 67.00,623.00
             67.00,623.00 63.00,629.00 63.00,629.00
             63.00,629.00 66.00,628.00 66.00,628.00
             66.00,628.00 64.00,633.00 64.00,633.00
             64.00,633.00 65.00,633.00 65.00,633.00
             65.00,633.00 67.00,631.00 67.00,631.00
             67.00,631.00 65.00,635.00 65.00,635.00
             65.00,635.00 72.00,635.00 72.00,635.00
             72.00,635.00 72.00,631.00 72.00,631.00
             72.00,631.00 73.00,635.00 73.00,635.00
             77.82,633.12 79.94,632.26 83.00,628.00
             81.61,632.57 80.67,633.23 76.00,634.00
             76.00,634.00 75.00,638.00 75.00,638.00
             75.00,638.00 80.00,641.00 80.00,641.00
             80.00,641.00 77.00,640.00 77.00,640.00
             77.00,640.00 77.00,648.00 77.00,648.00
             77.00,648.00 75.00,639.00 75.00,639.00
             75.00,639.00 69.00,642.00 69.00,642.00
             60.86,640.91 58.92,643.49 58.00,651.00
             58.00,651.00 61.00,648.00 61.00,648.00
             61.00,648.00 67.00,648.00 67.00,648.00
             67.00,648.00 64.00,649.00 64.00,649.00
             64.00,649.00 64.00,650.00 64.00,650.00
             64.00,650.00 66.00,652.00 66.00,652.00
             61.45,651.40 60.69,652.52 57.00,655.00
             57.00,655.00 61.00,659.00 61.00,659.00
             61.00,659.00 54.00,657.00 54.00,657.00
             54.00,657.00 56.00,661.00 56.00,661.00
             55.15,666.14 56.16,666.78 59.00,671.00
             59.00,671.00 63.00,669.00 63.00,669.00
             63.00,669.00 64.00,672.00 64.00,672.00
             64.00,672.00 68.00,670.00 68.00,670.00
             68.00,670.00 71.00,675.00 71.00,675.00
             71.00,675.00 66.00,673.00 66.00,673.00
             66.00,673.00 71.00,676.00 71.00,676.00
             71.00,676.00 72.00,679.00 72.00,679.00
             72.00,679.00 69.00,680.00 69.00,680.00
             75.03,682.12 74.49,681.25 80.00,679.00
             80.00,679.00 81.00,675.00 81.00,675.00
             80.85,682.99 72.73,682.50 67.00,683.00
             67.00,683.00 72.00,688.00 72.00,688.00
             72.00,688.00 79.00,685.00 79.00,685.00
             75.88,686.88 74.86,688.40 76.00,692.00
             76.00,692.00 78.00,688.00 78.00,688.00
             78.00,688.00 79.00,692.00 79.00,692.00
             79.00,692.00 90.00,685.00 90.00,685.00
             90.00,685.00 87.00,686.00 87.00,686.00
             86.51,689.76 85.27,690.38 82.00,692.00
             82.00,692.00 82.00,697.00 82.00,697.00
             82.00,697.00 91.00,697.00 91.00,697.00
             91.00,697.00 85.00,697.00 85.00,697.00
             85.00,697.00 85.00,702.00 85.00,702.00
             85.00,702.00 80.00,703.00 80.00,703.00
             80.82,706.10 81.94,711.90 86.02,711.93
             86.02,711.93 94.00,709.00 94.00,709.00
             94.00,709.00 94.00,705.00 94.00,705.00
             94.00,705.00 95.00,710.00 95.00,710.00
             95.00,710.00 91.00,710.00 91.00,710.00
             91.00,710.00 90.00,719.00 90.00,719.00
             90.00,719.00 93.00,720.00 93.00,720.00
             88.72,721.52 89.10,722.97 92.00,726.00
             92.00,726.00 99.00,721.00 99.00,721.00
             97.07,724.37 92.81,732.13 101.00,729.00
             101.00,729.00 100.00,733.00 100.00,733.00
             100.00,733.00 94.00,732.00 94.00,732.00
             94.00,732.00 98.00,735.00 98.00,735.00
             98.00,735.00 94.00,736.00 94.00,736.00
             94.00,736.00 102.01,741.10 102.01,741.10
             102.01,741.10 125.00,751.28 125.00,751.28
             157.49,765.30 190.47,776.82 224.00,788.00
             224.00,788.00 219.67,773.96 219.67,773.96
             219.67,773.96 222.18,764.00 222.18,764.00
             222.18,764.00 222.18,749.00 222.18,749.00
             222.18,749.00 219.00,750.00 219.00,750.00
             219.00,750.00 214.84,735.17 214.84,735.17
             214.84,735.17 210.42,726.42 210.42,726.42
             210.42,726.42 208.00,715.00 208.00,715.00
             202.89,714.26 203.67,709.08 201.87,705.11
             199.03,698.82 194.77,701.78 197.00,693.00
             197.00,693.00 191.00,693.00 191.00,693.00
             193.51,682.11 190.28,680.92 190.00,672.00
             185.11,670.81 185.55,669.33 183.17,665.42
             182.00,663.49 180.88,662.39 180.26,660.07
             178.43,653.33 185.12,639.40 187.85,633.00
             187.85,633.00 216.42,564.00 216.42,564.00
             216.42,564.00 235.00,518.00 235.00,518.00
             235.00,518.00 210.00,506.69 210.00,506.69
             210.00,506.69 170.00,486.69 170.00,486.69
             131.60,465.92 82.79,434.44 50.00,406.00 Z
           M 27.00,558.00
           C 19.36,563.81 19.56,570.78 23.00,579.00
             23.00,579.00 19.00,578.00 19.00,578.00
             19.00,578.00 19.00,582.00 19.00,582.00
             19.00,582.00 23.00,584.00 23.00,584.00
             23.00,584.00 23.00,582.00 23.00,582.00
             23.00,582.00 26.91,582.57 26.91,582.57
             26.91,582.57 40.00,569.00 40.00,569.00
             40.00,569.00 35.00,568.00 35.00,568.00
             31.67,572.26 30.60,574.16 25.00,574.00
             25.00,574.00 24.00,570.21 24.00,570.21
             26.14,570.52 29.46,571.45 31.57,570.21
             33.53,569.47 36.23,565.04 28.00,564.00
             28.00,564.00 31.00,562.00 31.00,562.00
             31.00,562.00 27.00,558.00 27.00,558.00 Z
           M 75.00,560.00
           C 75.00,560.00 71.00,563.00 71.00,563.00
             71.00,563.00 75.00,560.00 75.00,560.00 Z
           M 55.00,579.00
           C 55.00,579.00 52.00,580.00 52.00,580.00
             52.00,580.00 52.00,584.00 52.00,584.00
             55.39,582.80 55.47,582.54 55.00,579.00 Z
           M 28.00,585.00
           C 28.00,585.00 19.00,584.00 19.00,584.00
             19.00,584.00 22.00,588.00 22.00,588.00
             22.00,588.00 18.00,588.00 18.00,588.00
             18.00,588.00 18.00,592.00 18.00,592.00
             18.00,592.00 21.00,591.00 21.00,591.00
             21.00,591.00 19.00,594.00 19.00,594.00
             19.00,594.00 21.00,601.00 21.00,601.00
             21.00,601.00 24.00,588.00 24.00,588.00
             24.00,588.00 28.00,590.00 28.00,590.00
             28.00,590.00 28.00,585.00 28.00,585.00 Z
           M 49.00,588.00
           C 48.06,592.51 49.22,599.18 53.00,602.00
             52.95,596.05 52.77,592.88 49.00,588.00 Z
           M 63.00,605.00
           C 63.00,605.00 57.00,613.00 57.00,613.00
             57.00,613.00 61.00,611.00 61.00,611.00
             61.00,611.00 56.00,614.00 56.00,614.00
             56.00,614.00 57.00,619.00 57.00,619.00
             57.00,619.00 63.00,615.00 63.00,615.00
             63.00,615.00 59.00,622.00 59.00,622.00
             65.66,616.73 66.16,612.60 63.00,605.00 Z
           M 59.00,622.00
           C 57.82,624.39 57.86,624.42 60.00,626.00
             60.00,626.00 59.00,622.00 59.00,622.00 Z
           M 74.00,636.00
           C 74.00,636.00 62.00,639.00 62.00,639.00
             62.00,639.00 63.00,642.00 63.00,642.00
             63.00,642.00 74.00,636.00 74.00,636.00 Z
           M 61.00,638.00
           C 61.00,638.00 56.00,641.00 56.00,641.00
             59.30,640.79 59.11,640.70 61.00,638.00 Z
           M 80.00,725.00
           C 78.97,719.47 75.47,718.54 74.53,714.00
             74.17,712.33 74.55,710.68 74.53,709.01
             74.53,709.01 72.96,692.17 72.96,692.17
             70.72,687.86 60.85,681.00 57.02,676.71
             49.85,668.71 52.23,662.58 40.00,662.00
             40.35,665.05 39.60,668.11 43.00,669.00
             43.88,671.85 45.36,671.72 48.00,671.00
             48.00,671.00 44.00,667.00 44.00,667.00
             44.00,667.00 51.00,673.00 51.00,673.00
             51.00,673.00 48.00,676.00 48.00,676.00
             48.00,676.00 43.00,672.00 43.00,672.00
             43.00,672.00 43.00,678.00 43.00,678.00
             43.00,678.00 40.00,679.00 40.00,679.00
             40.00,679.00 46.00,681.00 46.00,681.00
             46.00,681.00 45.00,685.00 45.00,685.00
             45.00,685.00 48.00,683.00 48.00,683.00
             48.00,683.00 48.00,684.00 48.00,684.00
             48.00,684.00 50.00,686.00 50.00,686.00
             50.00,686.00 47.00,690.00 47.00,690.00
             47.00,690.00 51.00,689.00 51.00,689.00
             51.00,689.00 54.00,692.00 54.00,692.00
             54.00,692.00 52.00,697.00 52.00,697.00
             52.00,697.00 56.00,697.00 56.00,697.00
             54.88,700.26 56.74,700.70 59.00,703.00
             54.81,700.77 52.75,699.27 50.00,704.00
             50.00,704.00 53.00,707.00 53.00,707.00
             55.29,704.83 56.67,709.34 57.00,711.00
             57.00,711.00 60.00,716.00 60.00,716.00
             60.00,716.00 57.00,717.00 57.00,717.00
             57.00,717.00 58.00,721.00 58.00,721.00
             58.00,721.00 61.00,720.00 61.00,720.00
             61.00,720.00 62.00,723.00 62.00,723.00
             62.00,723.00 63.00,723.00 63.00,723.00
             63.00,723.00 65.00,721.00 65.00,721.00
             65.00,721.00 66.00,724.00 66.00,724.00
             66.00,724.00 72.00,720.00 72.00,720.00
             68.10,724.78 67.40,724.56 62.00,727.00
             64.12,730.72 64.89,730.49 69.00,731.00
             69.00,731.00 66.00,732.00 66.00,732.00
             66.00,732.00 78.00,748.00 78.00,748.00
             78.00,748.00 84.00,748.00 84.00,748.00
             84.00,748.00 85.00,744.00 85.00,744.00
             85.00,744.00 82.00,744.00 82.00,744.00
             84.05,738.38 85.89,728.70 80.00,725.00 Z
           M 89.00,715.00
           C 86.93,717.82 86.75,718.71 88.00,722.00
             88.00,722.00 89.00,715.00 89.00,715.00 Z" />
</svg>
