<?xml version="1.0" encoding="UTF-8" standalone="no"?>
<!DOCTYPE svg PUBLIC "-//W3C//DTD SVG 20010904//EN"
              "http://www.w3.org/TR/2001/REC-SVG-20010904/DTD/svg10.dtd">

<svg xmlns="http://www.w3.org/2000/svg"
     width="16.3611in" height="13.8611in"
     viewBox="0 0 1178 998" pointer-events = "none">
  <path id="Selection"
        fill="currentColor" stroke="black" stroke-width="1" pointer-events = "visibleFill"
        d="M 528.00,604.00
           C 526.98,601.01 524.66,596.71 524.35,594.00
             523.91,590.27 525.40,578.39 522.40,576.02
             520.81,574.77 516.99,575.00 515.00,575.00
             515.00,575.00 495.00,575.00 495.00,575.00
             495.00,575.00 481.00,574.00 481.00,574.00
             481.00,574.00 441.00,571.00 441.00,571.00
             441.00,571.00 437.42,606.00 437.42,606.00
             437.07,608.64 435.37,615.97 438.00,617.00
             438.00,617.00 441.00,619.00 441.00,619.00
             441.00,619.00 435.57,628.00 435.57,628.00
             435.57,628.00 433.72,640.00 433.72,640.00
             433.72,640.00 431.00,666.00 431.00,666.00
             431.00,666.00 429.00,713.00 429.00,713.00
             429.00,713.00 428.00,737.00 428.00,737.00
             428.00,737.00 427.00,752.00 427.00,752.00
             427.00,752.00 425.00,784.00 425.00,784.00
             425.00,784.00 424.00,807.00 424.00,807.00
             424.00,807.00 423.00,828.00 423.00,828.00
             423.00,828.00 461.00,831.09 461.00,831.09
             461.00,831.09 518.00,833.00 518.00,833.00
             518.00,833.00 518.00,750.00 518.00,750.00
             518.00,750.00 518.60,743.00 518.60,743.00
             518.60,743.00 526.00,734.00 526.00,734.00
             526.00,734.00 540.39,719.00 540.39,719.00
             540.39,719.00 571.65,678.00 571.65,678.00
             571.65,678.00 597.00,644.00 597.00,644.00
             597.00,644.00 586.00,641.07 586.00,641.07
             581.68,639.38 578.93,637.08 574.00,637.08
             569.07,637.08 559.11,642.19 555.00,645.00
             555.00,645.00 556.00,642.00 556.00,642.00
             556.00,642.00 549.00,645.00 549.00,645.00
             554.55,641.43 554.51,635.64 552.38,630.00
             549.91,623.46 544.58,609.45 544.00,603.00
             538.68,602.80 535.53,601.65 531.00,605.00
             531.00,605.00 528.00,604.00 528.00,604.00 Z
           M 472.00,736.00
           C 459.91,735.95 460.76,732.55 464.26,723.00
             464.97,721.05 465.40,717.52 467.45,716.78
             468.73,716.13 471.62,716.65 473.00,716.78
             482.51,718.55 483.24,723.37 486.43,730.95
             489.29,737.73 487.40,737.29 488.40,741.17
             488.40,741.17 492.26,750.83 492.26,750.83
             492.26,750.83 493.31,758.01 493.31,758.01
             493.31,758.01 501.88,779.00 501.88,779.00
             502.73,782.26 500.25,787.29 503.00,795.00
             503.00,795.00 498.00,793.00 498.00,793.00
             497.82,798.29 497.47,800.47 492.00,802.00
             491.81,797.18 490.31,786.31 494.00,783.00
             494.00,783.00 494.00,781.00 494.00,781.00
             490.92,777.91 494.62,775.48 495.00,769.00
             495.00,769.00 487.00,775.00 487.00,775.00
             487.00,775.00 487.00,761.00 487.00,761.00
             487.00,761.00 483.00,763.00 483.00,763.00
             483.00,763.00 484.00,759.00 484.00,759.00
             484.00,759.00 481.00,764.00 481.00,764.00
             475.79,761.93 477.47,760.34 475.11,756.09
             471.28,749.20 467.40,746.29 465.00,738.00
             465.00,738.00 472.00,736.00 472.00,736.00 Z
           M 436.00,730.00
           C 439.73,731.31 440.27,731.31 444.00,730.00
             444.00,730.00 453.98,737.47 453.98,737.47
             457.07,742.15 453.73,749.30 452.72,754.00
             452.72,754.00 452.00,765.00 452.00,765.00
             453.43,763.32 453.43,764.34 454.00,766.00
             457.65,764.77 457.70,764.94 460.00,768.00
             460.00,768.00 461.00,765.00 461.00,765.00
             461.00,765.00 462.00,768.00 462.00,768.00
             462.00,768.00 466.00,767.00 466.00,767.00
             466.45,771.53 465.18,774.41 469.00,777.00
             469.00,777.00 467.00,780.00 467.00,780.00
             467.00,780.00 468.00,782.00 468.00,782.00
             465.02,787.39 475.47,788.84 476.38,797.98
             476.92,803.33 469.53,805.51 467.66,801.77
             467.66,801.77 466.24,793.99 466.24,793.99
             466.24,793.99 461.59,782.00 461.59,782.00
             460.27,776.18 461.12,773.03 456.00,769.00
             456.00,769.00 455.00,772.00 455.00,772.00
             455.00,772.00 447.93,765.86 447.93,765.86
             445.82,762.61 445.61,755.78 446.54,752.09
             446.54,752.09 448.28,746.83 448.28,746.83
             448.28,746.83 449.00,740.00 449.00,740.00
             449.00,740.00 447.00,744.00 447.00,744.00
             443.68,741.71 443.69,739.84 444.00,736.00
             444.00,736.00 441.00,741.00 441.00,741.00
             435.39,739.21 434.93,735.31 436.00,730.00 Z" />
</svg>
