<?xml version="1.0" encoding="UTF-8" standalone="no"?>
<!DOCTYPE svg PUBLIC "-//W3C//DTD SVG 20010904//EN"
              "http://www.w3.org/TR/2001/REC-SVG-20010904/DTD/svg10.dtd">

<svg xmlns="http://www.w3.org/2000/svg"
     width="16.3611in" height="13.8611in"
     viewBox="0 0 1178 998" pointer-events = "none">
  <path id="Selection"
        fill="currentColor" stroke="black" stroke-width="1" pointer-events = "visibleFill"
        d="M 618.00,8.00
           C 618.00,8.00 616.00,8.00 616.00,8.00
             616.00,8.00 613.00,9.00 613.00,9.00
             613.00,9.00 611.00,10.00 611.00,10.00
             609.13,14.87 608.59,16.28 604.00,19.00
             606.85,14.96 607.47,13.93 608.00,9.00
             608.00,9.00 601.51,11.03 601.51,11.03
             597.15,11.80 597.14,9.22 593.00,13.00
             593.00,13.00 596.00,16.00 596.00,16.00
             596.00,16.00 592.00,12.00 592.00,12.00
             585.92,15.44 588.49,18.81 593.00,22.00
             583.44,19.23 589.44,17.01 576.00,17.00
             577.30,21.41 579.54,24.52 584.00,26.00
             584.00,26.00 583.00,30.00 583.00,30.00
             578.30,21.46 575.87,23.54 568.00,23.00
             568.00,23.00 573.00,29.00 573.00,29.00
             573.00,29.00 569.00,30.00 569.00,30.00
             569.00,30.00 565.00,27.00 565.00,27.00
             565.00,27.00 569.00,34.00 569.00,34.00
             569.00,34.00 563.00,32.00 563.00,32.00
             563.00,32.00 566.00,35.00 566.00,35.00
             559.98,40.18 569.56,42.88 574.00,47.00
             574.00,47.00 567.00,45.00 567.00,45.00
             567.00,45.00 564.96,45.87 564.96,45.87
             564.96,45.87 558.86,40.89 558.86,40.89
             558.86,40.89 554.00,38.00 554.00,38.00
             554.08,42.98 553.79,42.83 550.00,46.00
             550.00,46.00 559.00,52.00 559.00,52.00
             559.00,52.00 555.00,50.00 555.00,50.00
             555.00,50.00 556.00,53.00 556.00,53.00
             556.00,53.00 551.00,49.00 551.00,49.00
             551.00,49.00 550.00,53.00 550.00,53.00
             545.99,46.83 543.45,50.45 543.00,56.00
             537.25,53.78 534.16,57.22 535.00,63.00
             535.00,63.00 540.00,59.00 540.00,59.00
             540.00,59.00 542.00,62.00 542.00,62.00
             542.00,62.00 538.00,66.00 538.00,66.00
             538.00,66.00 539.00,67.00 539.00,67.00
             543.70,63.73 544.48,61.13 550.00,63.00
             544.92,63.83 544.10,65.06 541.00,69.00
             541.00,69.00 545.00,71.00 545.00,71.00
             545.00,71.00 540.00,72.00 540.00,72.00
             540.68,73.18 540.81,74.10 542.29,74.77
             544.59,75.81 551.61,73.44 553.63,72.01
             553.63,72.01 560.00,66.00 560.00,66.00
             560.00,66.00 561.00,67.00 561.00,67.00
             561.00,67.00 557.00,73.00 557.00,73.00
             557.00,73.00 570.00,68.00 570.00,68.00
             563.24,73.49 554.45,75.17 557.00,86.00
             557.00,86.00 558.00,86.00 558.00,86.00
             558.00,86.00 559.00,84.00 559.00,84.00
             562.51,86.39 563.27,85.70 567.00,84.00
             567.00,84.00 567.00,77.00 567.00,77.00
             567.00,77.00 570.00,79.00 570.00,79.00
             570.00,79.00 574.00,76.00 574.00,76.00
             574.00,76.00 570.00,83.00 570.00,83.00
             578.56,80.77 584.56,73.66 580.00,65.00
             580.00,65.00 583.00,66.00 583.00,66.00
             584.39,61.29 585.15,60.08 589.00,57.00
             585.49,63.21 584.95,64.97 584.00,72.00
             584.00,72.00 598.00,65.00 598.00,65.00
             598.00,65.00 592.72,70.37 592.72,70.37
             592.72,70.37 583.00,79.00 583.00,79.00
             583.00,79.00 590.00,78.00 590.00,78.00
             590.00,78.00 590.00,80.00 590.00,80.00
             582.80,80.75 577.15,85.49 571.00,89.00
             574.09,93.55 574.90,94.83 580.00,97.00
             579.80,103.37 583.16,103.12 588.00,101.00
             584.94,105.23 584.76,104.61 580.00,106.00
             578.56,102.63 577.31,100.75 574.83,98.00
             568.31,90.80 565.84,92.00 557.00,92.00
             557.40,98.69 558.37,98.14 564.00,101.00
             564.00,101.00 559.00,100.00 559.00,100.00
             559.00,100.00 559.00,105.00 559.00,105.00
             567.44,107.52 569.24,114.82 575.00,121.00
             575.00,121.00 570.00,119.00 570.00,119.00
             570.00,119.00 569.00,120.00 569.00,120.00
             574.50,125.04 579.85,123.53 584.00,118.00
             584.00,118.00 584.00,124.00 584.00,124.00
             584.00,124.00 577.00,126.00 577.00,126.00
             577.00,126.00 582.00,126.00 582.00,126.00
             582.00,126.00 583.00,131.00 583.00,131.00
             574.30,126.14 576.97,126.82 567.00,125.00
             567.00,125.00 561.32,130.35 561.32,130.35
             558.36,135.10 559.65,140.15 560.00,145.00
             564.27,143.56 564.74,141.71 567.00,138.00
             567.00,138.00 566.00,146.00 566.00,146.00
             572.19,140.77 568.82,139.79 572.00,133.00
             572.00,133.00 572.00,141.00 572.00,141.00
             572.00,141.00 575.00,142.00 575.00,142.00
             575.00,142.00 572.00,145.00 572.00,145.00
             572.00,145.00 575.00,145.00 575.00,145.00
             575.00,145.00 569.00,149.00 569.00,149.00
             569.00,149.00 576.00,149.00 576.00,149.00
             572.68,151.07 571.80,152.55 574.00,156.00
             574.00,156.00 576.00,152.00 576.00,152.00
             576.00,152.00 575.00,157.00 575.00,157.00
             583.19,156.32 580.78,152.74 584.00,143.00
             585.50,154.31 579.74,155.35 583.00,161.00
             583.00,161.00 577.00,163.00 577.00,163.00
             574.61,162.13 572.47,161.55 570.69,159.58
             568.60,157.27 567.99,153.12 563.96,151.79
             560.60,150.69 556.65,152.87 557.55,156.75
             558.14,159.25 559.22,158.97 560.00,164.00
             560.00,164.00 565.00,163.00 565.00,163.00
             565.00,163.00 564.00,167.00 564.00,167.00
             564.00,167.00 565.00,167.00 565.00,167.00
             565.00,167.00 566.00,169.00 566.00,169.00
             566.00,169.00 563.00,168.00 563.00,168.00
             563.00,168.00 557.59,170.97 557.59,170.97
             551.86,175.09 550.50,182.19 556.00,187.00
             556.00,187.00 558.00,178.00 558.00,178.00
             558.41,183.05 557.96,187.20 564.00,187.00
             564.00,187.00 564.00,182.00 564.00,182.00
             564.00,182.00 568.00,187.00 568.00,187.00
             568.00,187.00 570.00,182.00 570.00,182.00
             570.00,182.00 568.00,180.00 568.00,180.00
             568.00,180.00 570.00,185.00 570.00,185.00
             574.05,186.69 576.76,187.67 581.00,186.00
             581.00,186.00 576.00,179.00 576.00,179.00
             576.00,179.00 582.00,183.00 582.00,183.00
             582.00,183.00 582.00,178.00 582.00,178.00
             582.00,178.00 587.00,183.00 587.00,183.00
             587.00,183.00 585.00,177.00 585.00,177.00
             585.00,177.00 590.00,183.00 590.00,183.00
             590.00,183.00 593.00,182.00 593.00,182.00
             593.00,182.00 593.00,178.00 593.00,178.00
             593.00,178.00 590.00,173.00 590.00,173.00
             590.00,173.00 594.00,179.00 594.00,179.00
             594.00,179.00 599.00,177.00 599.00,177.00
             599.00,177.00 602.00,186.00 602.00,186.00
             607.87,181.91 610.31,180.30 611.00,173.00
             611.00,173.00 614.00,175.00 614.00,175.00
             614.70,169.67 616.31,166.19 611.00,163.00
             611.00,163.00 611.00,168.00 611.00,168.00
             611.00,168.00 608.00,166.00 608.00,166.00
             608.00,166.00 605.00,167.00 605.00,167.00
             607.00,158.47 604.12,159.00 599.00,164.00
             599.00,164.00 600.00,161.00 600.00,161.00
             595.89,160.59 595.15,160.30 593.00,164.00
             593.00,164.00 591.00,164.00 591.00,164.00
             591.00,164.00 589.00,160.00 589.00,160.00
             589.00,160.00 593.00,160.00 593.00,160.00
             593.00,160.00 588.00,152.00 588.00,152.00
             589.85,153.34 593.49,156.58 595.17,157.26
             600.37,159.35 603.72,155.82 608.00,155.00
             609.41,146.72 608.62,146.59 604.00,140.00
             608.87,139.91 611.45,140.60 614.00,136.00
             614.00,136.00 617.00,137.00 617.00,137.00
             617.00,137.00 617.00,133.00 617.00,133.00
             617.00,133.00 610.00,134.00 610.00,134.00
             610.00,134.00 610.00,131.00 610.00,131.00
             610.00,131.00 617.00,131.00 617.00,131.00
             617.00,131.00 618.00,127.00 618.00,127.00
             618.00,127.00 609.00,125.00 609.00,125.00
             609.00,125.00 618.00,121.00 618.00,121.00
             614.61,115.54 614.61,114.68 608.00,117.00
             608.00,117.00 610.00,114.00 610.00,114.00
             603.10,114.50 602.49,115.92 600.00,122.00
             600.00,122.00 601.00,115.00 601.00,115.00
             601.00,115.00 596.00,115.00 596.00,115.00
             596.00,115.00 606.00,111.00 606.00,111.00
             606.00,111.00 598.00,113.00 598.00,113.00
             603.92,107.08 608.04,110.80 615.00,111.00
             615.00,111.00 613.00,106.00 613.00,106.00
             606.96,107.96 603.18,109.29 597.00,107.00
             597.00,107.00 601.00,107.00 601.00,107.00
             601.00,107.00 600.00,102.00 600.00,102.00
             600.00,102.00 611.00,103.00 611.00,103.00
             611.00,103.00 611.00,102.00 611.00,102.00
             611.00,102.00 609.00,100.00 609.00,100.00
             609.00,100.00 614.00,100.00 614.00,100.00
             614.00,100.00 613.00,97.00 613.00,97.00
             613.00,97.00 617.00,97.00 617.00,97.00
             614.00,92.31 612.24,93.02 607.00,93.00
             609.18,91.59 610.14,90.70 612.91,90.82
             615.39,90.70 617.39,92.29 619.89,90.82
             621.88,89.85 623.80,87.07 621.00,86.00
             621.00,86.00 623.00,80.00 623.00,80.00
             623.00,80.00 616.00,84.00 616.00,84.00
             616.00,84.00 615.00,80.00 615.00,80.00
             615.00,80.00 619.00,81.00 619.00,81.00
             619.00,81.00 623.00,77.00 623.00,77.00
             623.00,77.00 623.00,75.00 623.00,75.00
             623.00,75.00 618.00,70.00 618.00,70.00
             618.00,70.00 623.00,73.00 623.00,73.00
             623.00,73.00 624.36,64.01 624.36,64.01
             624.36,64.01 627.17,51.00 627.17,51.00
             627.17,51.00 630.00,38.00 630.00,38.00
             624.86,40.95 617.92,51.64 615.00,57.00
             615.00,57.00 622.00,42.00 622.00,42.00
             622.00,42.00 617.00,45.00 617.00,45.00
             617.00,45.00 612.00,41.00 612.00,41.00
             612.00,41.00 617.00,43.00 617.00,43.00
             617.00,43.00 623.00,38.00 623.00,38.00
             623.00,38.00 622.00,36.00 622.00,36.00
             622.00,36.00 628.00,33.00 628.00,33.00
             628.47,28.32 631.24,23.32 630.62,18.01
             629.94,12.21 626.01,11.95 622.00,15.00
             620.80,11.67 620.39,11.78 617.00,11.00
             617.00,11.00 618.00,8.00 618.00,8.00 Z
           M 539.00,88.00
           C 538.48,84.21 534.03,72.39 530.87,70.38
             529.14,69.28 526.97,69.20 525.00,69.00
             526.26,72.13 526.88,71.90 530.00,73.00
             530.00,73.00 526.00,75.00 526.00,75.00
             526.00,75.00 525.00,78.00 525.00,78.00
             525.00,78.00 523.00,76.00 523.00,76.00
             523.00,76.00 522.00,76.00 522.00,76.00
             522.00,76.00 520.00,82.00 520.00,82.00
             520.00,82.00 526.00,85.00 526.00,85.00
             526.00,85.00 524.00,87.00 524.00,87.00
             524.00,87.00 527.00,89.00 527.00,89.00
             527.00,89.00 518.00,88.00 518.00,88.00
             518.00,88.00 520.00,94.00 520.00,94.00
             520.00,94.00 516.00,95.00 516.00,95.00
             516.00,95.00 521.00,96.00 521.00,96.00
             521.00,96.00 520.00,99.00 520.00,99.00
             520.00,99.00 524.00,96.00 524.00,96.00
             524.00,96.00 526.00,98.00 526.00,98.00
             526.00,98.00 523.00,99.00 523.00,99.00
             523.00,99.00 524.00,102.00 524.00,102.00
             524.00,102.00 515.00,99.00 515.00,99.00
             515.00,99.00 517.00,103.00 517.00,103.00
             516.47,109.85 519.30,110.97 525.00,108.00
             523.13,111.51 522.74,111.68 519.00,113.00
             519.52,116.65 519.65,117.30 523.00,119.00
             523.00,119.00 526.00,116.00 526.00,116.00
             526.00,116.00 527.00,120.00 527.00,120.00
             527.00,120.00 530.00,114.00 530.00,114.00
             530.00,114.00 535.00,115.00 535.00,115.00
             535.87,117.31 536.81,116.51 539.00,116.00
             539.00,116.00 533.00,120.00 533.00,120.00
             533.00,120.00 543.00,119.00 543.00,119.00
             543.00,119.00 543.00,121.00 543.00,121.00
             540.83,121.20 531.08,122.96 529.48,123.82
             524.34,126.57 527.32,129.38 531.00,131.00
             531.00,131.00 529.00,134.00 529.00,134.00
             529.00,134.00 530.00,136.00 530.00,136.00
             530.00,136.00 538.00,136.00 538.00,136.00
             538.00,136.00 538.00,138.00 538.00,138.00
             538.00,138.00 532.00,139.00 532.00,139.00
             532.00,139.00 534.00,143.00 534.00,143.00
             534.00,143.00 536.00,142.00 536.00,142.00
             536.00,142.00 536.00,145.00 536.00,145.00
             536.00,145.00 545.00,146.00 545.00,146.00
             545.00,146.00 543.00,142.00 543.00,142.00
             543.00,142.00 547.00,142.00 547.00,142.00
             547.00,142.00 545.00,135.00 545.00,135.00
             545.00,135.00 552.00,145.00 552.00,145.00
             552.94,139.47 552.97,139.30 551.00,134.00
             551.00,134.00 555.00,137.00 555.00,137.00
             555.48,129.19 550.63,129.70 556.00,122.00
             554.96,126.32 554.50,128.14 557.00,132.00
             557.00,132.00 559.00,123.00 559.00,123.00
             561.21,122.55 561.44,122.26 563.05,120.67
             567.63,116.52 566.81,114.27 563.05,110.00
             563.05,110.00 563.05,111.00 563.05,111.00
             563.05,111.00 561.00,113.00 561.00,113.00
             561.00,113.00 560.00,108.00 560.00,108.00
             560.00,108.00 558.00,108.00 558.00,108.00
             558.00,108.00 555.00,112.00 555.00,112.00
             555.48,109.33 557.12,105.12 554.00,104.00
             554.00,104.00 555.00,99.00 555.00,99.00
             551.68,98.45 548.97,97.98 546.99,94.91
             544.90,91.66 546.94,90.52 543.00,88.00
             543.00,88.00 544.00,90.00 544.00,90.00
             544.00,90.00 539.00,88.00 539.00,88.00 Z
           M 557.00,73.00
           C 557.00,73.00 544.00,78.00 544.00,78.00
             544.00,78.00 544.00,80.00 544.00,80.00
             544.00,80.00 553.00,84.00 553.00,84.00
             553.00,84.00 557.00,73.00 557.00,73.00 Z
           M 569.00,79.00
           C 569.00,79.00 568.00,79.00 568.00,79.00
             568.00,79.00 569.00,80.00 569.00,80.00
             569.00,80.00 569.00,79.00 569.00,79.00 Z
           M 552.00,90.00
           C 552.00,90.00 548.00,91.00 548.00,91.00
             548.00,91.00 551.00,97.00 551.00,97.00
             551.00,97.00 553.00,96.00 553.00,96.00
             553.00,96.00 552.00,90.00 552.00,90.00 Z
           M 504.00,108.00
           C 506.56,103.89 505.58,99.84 501.00,98.00
             501.00,98.00 500.00,104.00 500.00,104.00
             500.00,104.00 504.00,105.00 504.00,105.00
             504.00,105.00 503.00,106.00 503.00,106.00
             503.00,106.00 504.00,108.00 504.00,108.00 Z
           M 516.00,104.00
           C 516.00,104.00 515.00,104.00 515.00,104.00
             515.00,104.00 516.00,105.00 516.00,105.00
             516.00,105.00 516.00,104.00 516.00,104.00 Z
           M 486.00,127.00
           C 485.03,115.67 486.38,116.02 475.00,115.00
             475.00,115.00 473.00,122.00 473.00,122.00
             473.00,122.00 477.00,121.00 477.00,121.00
             477.00,121.00 477.00,125.00 477.00,125.00
             477.00,125.00 478.00,125.00 478.00,125.00
             478.00,125.00 480.00,123.00 480.00,123.00
             480.00,123.00 479.00,129.00 479.00,129.00
             479.00,129.00 483.00,129.00 483.00,129.00
             483.00,129.00 482.00,135.00 482.00,135.00
             482.00,135.00 481.00,136.00 481.00,136.00
             481.00,136.00 475.00,133.00 475.00,133.00
             474.09,137.03 474.31,137.26 476.00,141.00
             476.00,141.00 485.00,139.00 485.00,139.00
             485.00,139.00 484.00,142.00 484.00,142.00
             487.53,142.05 489.90,142.98 491.84,146.18
             493.39,148.74 494.00,155.14 498.71,153.34
             503.22,151.62 500.23,145.82 499.24,143.00
             497.49,137.98 500.71,131.08 493.00,131.00
             493.00,131.00 492.00,130.00 492.00,130.00
             492.00,130.00 494.00,126.00 494.00,126.00
             494.00,126.00 491.00,123.00 491.00,123.00
             491.00,123.00 489.00,123.00 489.00,123.00
             489.00,123.00 486.00,127.00 486.00,127.00 Z
           M 567.00,122.00
           C 567.00,122.00 562.00,126.00 562.00,126.00
             562.00,126.00 567.00,122.00 567.00,122.00 Z
           M 453.00,129.00
           C 453.00,129.00 451.00,129.00 451.00,129.00
             451.00,129.00 450.00,135.00 450.00,135.00
             452.82,133.04 452.61,132.34 453.00,129.00 Z
           M 516.00,139.00
           C 514.31,133.44 511.67,131.65 506.00,131.00
             506.00,131.00 507.58,142.76 507.58,142.76
             507.58,142.76 513.00,149.00 513.00,149.00
             513.00,149.00 509.00,149.00 509.00,149.00
             509.00,149.00 511.00,155.00 511.00,155.00
             513.33,154.15 518.93,152.20 520.35,150.43
             521.54,148.96 523.89,139.41 516.00,139.00 Z
           M 491.00,156.00
           C 489.10,152.53 488.60,152.51 485.00,151.00
             484.31,156.18 486.66,155.57 491.00,156.00 Z
           M 466.00,152.00
           C 465.18,157.60 466.75,162.93 469.00,168.00
             472.31,165.49 472.54,163.47 469.00,161.00
             469.69,156.37 469.41,155.26 466.00,152.00 Z
           M 531.00,156.97
           C 528.30,156.64 520.63,155.94 518.29,156.97
             515.96,157.93 515.84,160.59 517.60,161.98
             518.87,162.99 526.90,163.72 529.00,164.00
             529.00,164.00 531.00,156.97 531.00,156.97 Z
           M 548.00,169.00
           C 550.24,162.93 548.32,160.03 542.00,159.00
             542.21,164.89 542.76,166.08 548.00,169.00 Z
           M 447.00,171.00
           C 442.48,172.46 439.74,176.19 439.34,180.99
             438.99,183.66 440.07,185.38 439.34,187.17
             438.89,188.63 438.02,189.06 437.00,190.00
             438.79,196.38 440.68,195.19 440.00,202.00
             440.00,202.00 434.00,200.00 434.00,200.00
             434.00,200.00 431.00,215.00 431.00,215.00
             431.00,215.00 440.00,213.00 440.00,213.00
             440.00,213.00 439.00,214.00 439.00,214.00
             439.00,214.00 440.00,216.00 440.00,216.00
             444.72,215.23 449.56,217.88 453.74,214.44
             456.14,212.47 460.65,202.17 460.71,198.99
             460.75,196.45 458.80,191.48 455.44,193.17
             453.71,194.04 453.60,196.92 451.00,200.00
             451.00,200.00 451.00,194.00 451.00,194.00
             451.00,194.00 446.00,196.00 446.00,196.00
             446.00,196.00 449.00,191.00 449.00,191.00
             449.00,191.00 445.00,190.00 445.00,190.00
             447.17,183.00 447.16,182.36 446.00,175.00
             446.00,175.00 448.00,175.00 448.00,175.00
             448.00,175.00 447.00,171.00 447.00,171.00 Z
           M 529.00,177.00
           C 520.81,177.05 521.34,171.70 512.00,176.00
             512.00,176.00 514.00,179.00 514.00,179.00
             514.00,179.00 512.00,182.00 512.00,182.00
             512.00,182.00 519.00,184.00 519.00,184.00
             519.00,184.00 516.00,188.00 516.00,188.00
             516.00,188.00 522.00,192.00 522.00,192.00
             522.00,192.00 533.00,190.00 533.00,190.00
             533.00,190.00 539.02,205.00 539.02,205.00
             539.77,210.30 535.20,215.41 540.00,219.00
             540.00,219.00 540.00,227.00 540.00,227.00
             540.00,227.00 545.00,230.00 545.00,230.00
             545.00,230.00 548.00,224.00 548.00,224.00
             548.38,226.30 548.48,228.54 550.35,230.22
             553.22,232.79 558.55,232.76 558.00,225.00
             558.00,225.00 561.00,226.00 561.00,226.00
             561.00,226.00 562.00,223.00 562.00,223.00
             562.00,223.00 563.00,232.00 563.00,232.00
             563.00,232.00 570.00,230.00 570.00,230.00
             570.00,230.00 574.00,232.00 574.00,232.00
             574.00,232.00 573.00,229.00 573.00,229.00
             573.00,229.00 577.00,231.00 577.00,231.00
             577.00,231.00 578.00,228.00 578.00,228.00
             579.70,231.82 580.98,228.06 582.00,226.00
             582.00,226.00 584.00,230.00 584.00,230.00
             584.00,230.00 585.00,225.00 585.00,225.00
             586.83,230.00 589.72,228.07 594.00,227.00
             594.00,227.00 592.00,219.00 592.00,219.00
             596.66,221.93 595.82,223.38 598.13,224.88
             602.35,227.63 609.49,223.26 614.00,222.00
             614.00,222.00 611.00,214.00 611.00,214.00
             611.00,214.00 617.00,214.00 617.00,214.00
             617.00,214.00 616.00,211.00 616.00,211.00
             616.00,211.00 611.00,213.00 611.00,213.00
             611.00,213.00 615.00,207.00 615.00,207.00
             613.69,202.15 613.12,201.14 608.00,202.00
             608.00,202.00 610.00,200.00 610.00,200.00
             610.00,200.00 610.00,199.00 610.00,199.00
             610.00,199.00 602.00,199.00 602.00,199.00
             600.19,194.65 596.76,195.99 593.00,197.20
             593.00,197.20 586.32,199.00 586.32,199.00
             586.32,199.00 575.00,207.00 575.00,207.00
             575.00,207.00 578.00,209.00 578.00,209.00
             578.00,209.00 572.00,211.00 572.00,211.00
             571.18,207.63 569.98,207.57 567.00,206.00
             567.00,206.00 566.00,210.00 566.00,210.00
             566.00,210.00 565.00,207.00 565.00,207.00
             565.00,207.00 564.00,207.00 564.00,207.00
             564.00,207.00 562.00,209.00 562.00,209.00
             562.00,209.00 559.00,205.00 559.00,205.00
             559.00,205.00 559.00,211.00 559.00,211.00
             559.00,211.00 556.00,207.00 556.00,207.00
             556.00,207.00 553.00,208.00 553.00,208.00
             555.31,205.06 556.85,203.04 552.00,202.00
             550.67,198.62 549.35,199.27 546.00,199.00
             546.00,199.00 544.00,202.00 544.00,202.00
             544.00,202.00 544.00,197.00 544.00,197.00
             544.00,197.00 546.00,195.00 546.00,195.00
             546.00,195.00 542.00,195.00 542.00,195.00
             542.00,195.00 541.00,192.00 541.00,192.00
             541.00,192.00 554.00,193.00 554.00,193.00
             554.00,193.00 554.00,190.00 554.00,190.00
             554.00,190.00 541.00,186.00 541.00,186.00
             541.00,186.00 547.00,187.00 547.00,187.00
             542.22,179.14 539.81,184.15 533.00,184.00
             533.00,184.00 529.00,189.00 529.00,189.00
             531.35,183.41 531.35,182.59 529.00,177.00 Z
           M 550.00,178.00
           C 550.00,178.00 548.00,178.00 548.00,178.00
             547.28,182.03 547.54,182.74 550.00,186.00
             550.00,186.00 550.00,178.00 550.00,178.00 Z
           M 472.00,179.00
           C 472.00,179.00 470.00,179.00 470.00,179.00
             470.00,179.00 469.00,186.00 469.00,186.00
             473.00,187.46 473.70,187.89 477.00,185.00
             477.00,185.00 472.00,179.00 472.00,179.00 Z
           M 503.00,182.00
           C 503.00,182.00 502.00,182.00 502.00,182.00
             502.00,182.00 503.00,183.00 503.00,183.00
             503.00,183.00 503.00,182.00 503.00,182.00 Z
           M 499.00,189.00
           C 496.38,183.92 492.89,180.11 489.00,187.00
             489.00,187.00 494.00,191.00 494.00,191.00
             494.00,191.00 491.00,192.00 491.00,192.00
             491.00,192.00 496.00,195.00 496.00,195.00
             496.00,195.00 493.00,194.00 493.00,194.00
             493.00,194.00 493.00,198.00 493.00,198.00
             493.00,198.00 496.00,199.00 496.00,199.00
             496.00,199.00 492.00,200.00 492.00,200.00
             490.49,195.26 487.41,188.45 483.00,186.00
             482.45,189.10 481.95,189.69 485.00,191.00
             483.59,193.76 482.57,194.68 485.00,197.00
             484.68,199.93 484.39,200.41 487.00,202.00
             487.00,202.00 479.00,200.00 479.00,200.00
             479.00,200.00 480.00,204.00 480.00,204.00
             480.00,204.00 476.00,207.00 476.00,207.00
             476.00,207.00 494.00,205.00 494.00,205.00
             494.00,205.00 494.00,210.00 494.00,210.00
             490.41,210.97 490.15,210.94 488.00,214.00
             488.00,214.00 492.00,215.00 492.00,215.00
             487.62,218.58 488.88,220.82 494.00,222.00
             494.00,222.00 494.00,221.00 494.00,221.00
             494.00,221.00 496.00,219.00 496.00,219.00
             496.00,219.00 495.00,222.00 495.00,222.00
             499.27,221.63 501.39,222.46 503.00,218.00
             503.00,218.00 506.00,219.00 506.00,219.00
             504.22,215.54 501.77,211.61 507.00,210.00
             507.00,210.00 504.00,205.00 504.00,205.00
             508.59,197.76 505.52,194.51 507.00,187.00
             507.00,187.00 500.00,184.00 500.00,184.00
             500.00,184.00 499.00,189.00 499.00,189.00 Z
           M 478.00,189.00
           C 473.47,189.10 471.58,188.96 468.00,192.00
             472.74,194.18 476.89,195.42 478.00,189.00 Z
           M 479.00,194.00
           C 479.00,194.00 472.00,197.00 472.00,197.00
             475.57,196.79 476.87,197.06 479.00,194.00 Z
           M 481.00,197.00
           C 477.02,197.67 476.37,197.64 474.00,201.00
             474.00,201.00 475.00,202.00 475.00,202.00
             475.00,202.00 481.00,197.00 481.00,197.00 Z
           M 516.11,222.00
           C 516.01,222.82 515.59,223.26 516.11,224.60
             517.47,227.22 524.80,231.43 527.86,230.67
             531.41,229.78 530.95,226.15 530.85,223.29
             530.78,221.05 530.88,217.89 530.15,215.83
             528.49,211.21 523.49,205.62 518.65,210.26
             517.54,211.33 516.67,213.52 515.85,214.92
             513.83,218.37 513.69,217.90 512.00,222.00
             512.00,222.00 516.11,222.00 516.11,222.00 Z
           M 468.00,209.00
           C 463.51,210.42 463.17,211.57 462.00,216.00
             468.85,218.41 469.31,214.69 468.00,209.00 Z
           M 651.00,255.00
           C 648.51,248.73 641.09,240.96 634.00,240.40
             627.62,239.89 628.09,243.76 617.00,241.00
             617.00,241.00 617.00,252.00 617.00,252.00
             625.96,253.50 621.82,260.21 628.10,261.51
             631.98,262.32 634.60,258.90 638.00,257.31
             640.57,256.10 647.79,255.42 651.00,255.00 Z
           M 529.00,245.00
           C 526.12,242.65 521.46,245.15 520.99,248.11
             520.59,250.63 522.67,253.10 524.00,255.00
             524.00,255.00 519.00,252.00 519.00,252.00
             519.00,252.00 518.06,273.00 518.06,273.00
             518.06,273.00 520.91,284.00 520.91,284.00
             520.91,284.00 520.91,294.00 520.91,294.00
             523.15,293.40 525.68,292.95 527.37,291.42
             531.98,287.22 534.52,278.43 526.00,277.00
             526.00,277.00 526.00,275.00 526.00,275.00
             526.00,275.00 539.89,275.50 539.89,275.50
             540.91,275.35 541.53,275.09 542.30,274.39
             544.34,272.54 545.83,265.85 546.91,263.00
             549.47,256.27 557.44,245.22 544.00,246.10
             542.22,246.21 540.72,246.58 539.00,247.00
             536.36,242.61 533.13,242.07 529.00,245.00 Z
           M 504.00,244.00
           C 499.14,244.45 497.00,245.17 493.00,248.00
             498.52,249.55 501.22,249.40 504.00,244.00 Z
           M 624.00,263.00
           C 622.39,261.64 617.30,254.85 615.82,252.74
             614.32,250.60 613.67,247.61 611.87,245.87
             608.67,242.79 602.77,245.08 599.88,247.56
             598.22,248.98 597.28,250.28 596.00,252.00
             596.00,252.00 598.00,256.00 598.00,256.00
             598.00,256.00 597.00,253.00 597.00,253.00
             597.00,253.00 592.00,256.00 592.00,256.00
             592.00,256.00 595.00,259.00 595.00,259.00
             595.00,259.00 590.00,256.00 590.00,256.00
             590.00,256.00 589.00,260.00 589.00,260.00
             589.00,260.00 600.00,264.00 600.00,264.00
             600.00,264.00 589.00,262.00 589.00,262.00
             589.00,262.00 598.00,269.00 598.00,269.00
             598.00,269.00 587.00,266.00 587.00,266.00
             587.02,271.77 586.88,276.59 593.00,279.00
             593.00,279.00 593.00,277.00 593.00,277.00
             593.00,277.00 595.00,277.00 595.00,277.00
             595.00,277.00 596.00,278.00 596.00,278.00
             596.00,278.00 594.00,281.00 594.00,281.00
             594.00,281.00 601.00,288.00 601.00,288.00
             597.09,284.71 595.32,282.57 590.00,283.00
             590.00,283.00 589.00,290.00 589.00,290.00
             593.34,294.12 592.66,295.63 599.00,295.00
             599.00,295.00 600.00,313.00 600.00,313.00
             597.75,310.49 597.91,310.33 598.00,307.00
             598.00,307.00 584.00,313.00 584.00,313.00
             584.00,313.00 598.00,304.00 598.00,304.00
             594.56,299.03 590.08,298.59 585.99,292.00
             582.34,286.11 583.74,282.97 583.21,280.00
             582.66,276.86 580.64,274.88 580.03,272.00
             579.43,269.12 581.27,262.91 582.22,260.00
             584.24,253.77 587.01,252.50 588.00,246.19
             585.45,246.00 581.38,245.87 579.00,246.19
             571.97,247.92 564.29,254.41 565.00,262.00
             560.73,263.32 561.14,270.39 562.00,274.00
             559.16,276.34 556.42,285.64 561.00,287.00
             560.13,288.87 559.02,290.92 558.81,293.00
             558.57,295.37 559.60,305.33 561.56,306.83
             564.08,308.75 572.92,308.61 576.00,308.00
             576.00,308.00 583.00,314.00 583.00,314.00
             580.56,314.49 577.39,315.41 575.00,315.14
             572.63,315.09 569.65,313.55 567.30,315.14
             565.12,316.62 566.04,319.02 567.30,321.00
             570.39,326.76 573.98,327.51 579.00,331.00
             579.00,331.00 585.00,330.00 585.00,330.00
             585.00,330.00 584.00,325.00 584.00,325.00
             587.13,326.57 587.15,325.91 590.00,324.00
             586.06,335.99 597.17,332.25 600.00,332.27
             602.54,332.29 604.88,333.19 610.00,332.96
             615.46,332.71 619.28,330.79 624.00,335.00
             624.00,335.00 627.00,333.00 627.00,333.00
             624.35,328.00 621.65,327.95 617.00,325.00
             617.00,325.00 636.00,334.00 636.00,334.00
             636.00,334.00 627.00,326.00 627.00,326.00
             633.87,326.01 638.72,325.79 645.00,329.00
             646.22,328.23 649.21,326.63 649.87,325.46
             652.68,320.50 645.39,317.73 642.00,317.00
             642.00,317.00 644.00,309.00 644.00,309.00
             644.00,309.00 648.00,312.00 648.00,312.00
             644.91,312.83 648.19,314.78 651.00,315.00
             651.00,315.00 652.00,318.00 652.00,318.00
             658.60,317.00 658.41,319.29 660.00,325.00
             660.00,325.00 665.00,321.00 665.00,321.00
             665.00,321.00 664.00,324.00 664.00,324.00
             664.00,324.00 668.00,325.00 668.00,325.00
             668.00,325.00 668.00,327.00 668.00,327.00
             668.00,327.00 665.00,329.00 665.00,329.00
             665.00,329.00 669.00,329.00 669.00,329.00
             669.00,329.00 670.00,327.00 670.00,327.00
             670.00,327.00 669.00,326.00 669.00,326.00
             669.00,326.00 673.00,329.00 673.00,329.00
             673.00,329.00 671.00,327.00 671.00,327.00
             671.00,327.00 670.00,328.00 670.00,328.00
             670.00,328.00 670.00,330.00 670.00,330.00
             676.23,331.86 678.60,332.02 682.00,338.00
             682.00,338.00 679.00,341.00 679.00,341.00
             672.28,340.08 675.38,344.41 676.00,349.00
             679.85,345.99 682.06,344.10 682.00,339.00
             682.00,339.00 690.00,338.00 690.00,338.00
             690.00,338.00 691.00,339.00 691.00,339.00
             691.00,339.00 690.00,342.00 690.00,342.00
             690.00,342.00 699.00,346.00 699.00,346.00
             699.00,346.00 695.00,341.00 695.00,341.00
             695.00,341.00 700.00,341.00 700.00,341.00
             700.00,341.00 700.00,348.00 700.00,348.00
             700.00,348.00 709.00,349.00 709.00,349.00
             712.85,357.16 721.61,365.50 722.54,369.00
             723.79,373.65 718.81,374.64 722.00,383.00
             718.55,385.23 711.82,397.81 714.62,401.52
             718.25,406.34 723.34,404.01 725.00,413.00
             720.27,412.65 719.78,413.86 718.00,418.00
             714.07,417.87 713.68,418.11 713.00,422.00
             713.00,422.00 701.91,423.45 701.91,423.45
             701.91,423.45 690.00,424.00 690.00,424.00
             690.00,424.00 690.00,427.00 690.00,427.00
             690.00,427.00 693.00,428.00 693.00,428.00
             693.00,428.00 693.00,430.00 693.00,430.00
             683.86,435.74 687.46,442.33 693.00,448.82
             693.00,448.82 702.71,448.82 702.71,448.82
             702.71,448.82 712.00,443.00 712.00,443.00
             712.00,443.00 711.00,437.00 711.00,437.00
             716.21,438.90 718.57,439.53 724.00,438.00
             722.23,434.01 721.90,433.90 718.00,432.00
             718.00,432.00 721.00,427.00 721.00,427.00
             721.00,427.00 722.00,433.00 722.00,433.00
             722.00,433.00 726.00,432.00 726.00,432.00
             726.00,432.00 725.00,429.00 725.00,429.00
             725.00,429.00 727.00,434.00 727.00,434.00
             727.00,434.00 730.00,435.00 730.00,435.00
             730.75,430.79 732.24,430.52 736.00,429.00
             736.00,429.00 735.00,435.00 735.00,435.00
             735.00,435.00 743.00,441.00 743.00,441.00
             743.00,441.00 746.00,440.00 746.00,440.00
             746.00,440.00 748.00,444.00 748.00,444.00
             748.00,444.00 752.00,442.00 752.00,442.00
             752.00,442.00 751.00,446.00 751.00,446.00
             751.00,446.00 754.00,442.00 754.00,442.00
             757.87,443.75 758.66,444.64 763.00,444.00
             760.77,450.26 759.09,450.29 763.00,456.00
             763.00,456.00 766.00,455.00 766.00,455.00
             766.00,455.00 768.00,457.00 768.00,457.00
             768.00,457.00 771.00,453.00 771.00,453.00
             771.06,458.44 778.63,459.07 782.00,455.00
             784.19,456.73 785.45,455.77 788.00,455.00
             788.00,455.00 788.00,458.00 788.00,458.00
             788.00,458.00 791.00,457.00 791.00,457.00
             792.48,461.22 794.68,461.27 799.00,461.70
             804.72,462.27 806.65,460.21 811.26,459.78
             817.02,459.24 823.40,460.47 829.00,459.00
             829.00,459.00 827.00,451.00 827.00,451.00
             827.00,451.00 821.00,452.00 821.00,452.00
             818.14,446.05 815.47,447.86 810.09,445.44
             803.36,442.42 806.37,444.26 801.43,442.68
             795.38,440.74 787.70,436.18 783.00,432.00
             789.91,430.66 790.44,431.48 797.00,433.00
             797.00,433.00 794.00,428.00 794.00,428.00
             798.60,430.77 801.49,433.80 807.00,433.00
             807.00,433.00 807.00,435.00 807.00,435.00
             807.00,435.00 810.00,434.00 810.00,434.00
             810.00,434.00 810.00,429.00 810.00,429.00
             810.70,433.85 812.24,435.19 817.00,436.00
             817.00,436.00 817.00,435.00 817.00,435.00
             817.00,435.00 815.00,433.00 815.00,433.00
             815.00,433.00 818.00,435.00 818.00,435.00
             818.00,435.00 820.00,433.00 820.00,433.00
             820.00,433.00 821.00,436.00 821.00,436.00
             821.00,436.00 822.00,433.00 822.00,433.00
             822.00,433.00 823.00,436.00 823.00,436.00
             826.00,434.48 826.09,434.22 827.00,431.00
             827.00,431.00 832.00,431.00 832.00,431.00
             829.03,427.69 828.32,427.13 824.00,426.00
             824.00,426.00 825.00,423.00 825.00,423.00
             825.00,423.00 816.00,415.00 816.00,415.00
             816.00,415.00 829.00,423.00 829.00,423.00
             826.39,416.61 826.49,414.24 819.00,414.00
             819.00,414.00 820.00,408.00 820.00,408.00
             820.00,408.00 815.00,411.00 815.00,411.00
             813.54,407.21 811.45,406.95 808.00,405.00
             808.00,405.00 812.00,405.00 812.00,405.00
             812.00,405.00 812.00,401.00 812.00,401.00
             812.00,401.00 805.00,403.00 805.00,403.00
             804.66,398.14 804.21,397.47 800.00,395.00
             800.00,395.00 803.00,400.00 803.00,400.00
             803.00,400.00 797.00,400.00 797.00,400.00
             797.00,400.00 798.00,397.00 798.00,397.00
             798.00,397.00 793.00,397.00 793.00,397.00
             793.00,397.00 795.00,401.00 795.00,401.00
             795.00,401.00 790.00,395.00 790.00,395.00
             786.18,394.41 784.86,392.63 784.00,389.00
             784.00,389.00 780.00,390.00 780.00,390.00
             780.00,390.00 780.00,386.00 780.00,386.00
             780.00,386.00 775.00,390.00 775.00,390.00
             775.00,390.00 773.00,385.00 773.00,385.00
             773.00,385.00 771.00,386.00 771.00,386.00
             771.00,386.00 770.00,383.00 770.00,383.00
             770.00,383.00 768.00,384.00 768.00,384.00
             768.00,384.00 767.00,381.00 767.00,381.00
             772.44,381.02 774.12,382.54 777.00,377.00
             771.18,374.36 770.19,374.06 766.00,369.00
             769.54,369.90 769.99,370.17 773.00,368.00
             773.00,368.00 767.00,367.00 767.00,367.00
             767.00,367.00 774.00,365.00 774.00,365.00
             774.00,365.00 771.00,363.00 771.00,363.00
             771.00,363.00 776.00,363.00 776.00,363.00
             777.12,366.20 783.00,370.99 786.41,368.27
             787.70,367.24 788.48,363.64 789.00,362.00
             789.00,362.00 788.00,372.00 788.00,372.00
             797.08,368.83 793.38,365.20 798.00,358.00
             796.79,362.98 797.34,364.58 796.90,366.58
             795.88,371.15 792.15,372.65 798.00,376.00
             798.00,376.00 799.00,373.00 799.00,373.00
             799.00,373.00 801.00,373.00 801.00,373.00
             801.00,373.00 801.00,381.00 801.00,381.00
             801.00,381.00 807.00,376.00 807.00,376.00
             807.00,376.00 805.00,383.00 805.00,383.00
             805.00,383.00 809.00,384.00 809.00,384.00
             809.00,384.00 809.00,377.00 809.00,377.00
             809.00,377.00 810.00,382.00 810.00,382.00
             810.00,382.00 813.00,383.00 813.00,383.00
             813.00,383.00 814.00,380.00 814.00,380.00
             814.00,380.00 819.00,383.00 819.00,383.00
             819.00,383.00 817.00,379.00 817.00,379.00
             816.77,375.40 816.31,375.29 813.00,374.00
             813.00,374.00 810.00,369.00 810.00,369.00
             810.00,369.00 813.00,368.00 813.00,368.00
             813.00,368.00 809.00,363.00 809.00,363.00
             809.00,363.00 817.00,367.00 817.00,367.00
             817.00,367.00 815.00,361.00 815.00,361.00
             815.00,361.00 820.00,361.00 820.00,361.00
             820.00,361.00 812.00,356.00 812.00,356.00
             812.00,356.00 820.00,355.00 820.00,355.00
             820.00,355.00 810.00,352.00 810.00,352.00
             810.00,352.00 813.00,353.00 813.00,353.00
             813.00,353.00 814.00,352.00 814.00,352.00
             814.00,352.00 814.00,350.00 814.00,350.00
             814.00,350.00 813.00,349.00 813.00,349.00
             813.00,349.00 811.00,350.00 811.00,350.00
             814.07,347.23 815.04,347.86 819.00,348.00
             819.00,348.00 817.00,345.00 817.00,345.00
             817.00,345.00 818.00,345.00 818.00,345.00
             818.00,345.00 819.00,343.00 819.00,343.00
             819.00,343.00 813.00,343.00 813.00,343.00
             813.00,343.00 819.00,341.00 819.00,341.00
             817.32,336.31 814.49,336.32 810.00,337.00
             810.00,337.00 808.00,334.00 808.00,334.00
             808.00,334.00 810.00,341.00 810.00,341.00
             810.00,341.00 805.00,339.00 805.00,339.00
             805.00,339.00 806.00,346.00 806.00,346.00
             806.00,346.00 804.00,340.00 804.00,340.00
             804.00,340.00 802.00,340.00 802.00,340.00
             802.00,340.00 801.00,347.00 801.00,347.00
             801.00,347.00 797.00,347.00 797.00,347.00
             797.00,347.00 800.00,340.00 800.00,340.00
             800.00,340.00 798.00,333.00 798.00,333.00
             798.00,333.00 795.00,344.00 795.00,344.00
             795.00,344.00 795.00,337.00 795.00,337.00
             790.69,339.68 788.33,341.66 789.00,347.00
             789.00,347.00 788.00,341.00 788.00,341.00
             788.00,341.00 784.00,343.00 784.00,343.00
             784.00,343.00 783.00,338.00 783.00,338.00
             783.00,338.00 790.00,337.00 790.00,337.00
             790.00,337.00 789.00,334.00 789.00,334.00
             789.00,334.00 785.00,336.00 785.00,336.00
             785.00,336.00 787.00,334.00 787.00,334.00
             787.00,334.00 787.00,333.00 787.00,333.00
             787.00,333.00 783.00,330.00 783.00,330.00
             783.00,330.00 781.00,332.00 781.00,332.00
             781.00,332.00 779.00,329.00 779.00,329.00
             779.00,329.00 779.00,333.00 779.00,333.00
             779.00,333.00 779.00,331.00 779.00,331.00
             779.00,331.00 778.00,331.00 778.00,331.00
             778.00,331.00 777.00,337.00 777.00,337.00
             777.00,337.00 770.00,329.00 770.00,329.00
             770.00,329.00 770.00,339.00 770.00,339.00
             769.20,335.30 769.27,334.12 766.00,332.00
             766.00,332.00 767.00,337.00 767.00,337.00
             767.00,337.00 763.00,336.00 763.00,336.00
             763.00,336.00 765.00,331.00 765.00,331.00
             765.00,331.00 761.00,335.00 761.00,335.00
             761.00,335.00 760.00,332.00 760.00,332.00
             760.00,332.00 759.00,335.00 759.00,335.00
             758.46,331.34 758.70,330.31 755.00,329.00
             755.00,329.00 754.00,332.00 754.00,332.00
             754.00,332.00 753.00,328.00 753.00,328.00
             753.00,328.00 751.00,332.00 751.00,332.00
             751.00,332.00 749.00,332.00 749.00,332.00
             749.00,332.00 751.00,328.00 751.00,328.00
             751.00,328.00 748.00,325.00 748.00,325.00
             748.00,325.00 747.00,329.00 747.00,329.00
             747.00,329.00 738.00,327.00 738.00,327.00
             738.00,327.00 743.00,324.00 743.00,324.00
             743.00,324.00 732.00,326.00 732.00,326.00
             732.00,326.00 741.00,319.00 741.00,319.00
             741.00,319.00 738.00,318.00 738.00,318.00
             738.00,318.00 743.00,315.00 743.00,315.00
             736.99,315.07 735.81,314.92 734.00,321.00
             734.00,321.00 732.00,318.00 732.00,318.00
             732.00,318.00 734.00,315.00 734.00,315.00
             734.00,315.00 732.00,316.00 732.00,316.00
             732.00,316.00 734.00,314.00 734.00,314.00
             734.00,314.00 734.00,313.00 734.00,313.00
             734.00,313.00 729.00,315.00 729.00,315.00
             734.00,309.90 736.07,311.51 742.01,310.77
             742.01,310.77 749.00,309.00 749.00,309.00
             745.78,303.29 742.33,305.16 737.00,306.41
             726.86,308.78 730.99,308.03 722.00,312.00
             722.00,312.00 730.87,304.99 730.87,304.99
             730.87,304.99 735.30,300.17 735.30,300.17
             735.30,300.17 740.00,299.00 740.00,299.00
             737.81,292.63 734.32,290.58 728.00,289.00
             728.00,289.00 730.00,294.00 730.00,294.00
             730.00,294.00 721.00,305.00 721.00,305.00
             721.00,305.00 720.00,310.00 720.00,310.00
             720.00,310.00 720.00,304.00 720.00,304.00
             720.00,304.00 723.00,304.00 723.00,304.00
             723.00,304.00 725.00,294.00 725.00,294.00
             720.32,295.64 718.38,296.89 720.00,302.00
             720.00,302.00 715.00,307.00 715.00,307.00
             715.00,307.00 717.37,297.96 717.37,297.96
             717.37,297.96 724.00,285.00 724.00,285.00
             724.00,285.00 714.00,283.00 714.00,283.00
             714.00,283.00 713.00,284.00 713.00,284.00
             713.00,284.00 714.00,286.00 714.00,286.00
             714.00,286.00 709.00,293.00 709.00,293.00
             709.00,293.00 711.00,283.00 711.00,283.00
             700.90,291.83 707.90,295.75 705.00,306.00
             705.00,306.00 704.00,294.00 704.00,294.00
             701.18,296.10 701.70,297.70 701.00,301.00
             701.00,301.00 699.00,299.00 699.00,299.00
             699.00,299.00 700.00,292.00 700.00,292.00
             705.25,289.95 705.48,283.91 702.00,280.00
             702.00,280.00 701.00,287.00 701.00,287.00
             701.00,287.00 692.00,296.00 692.00,296.00
             692.00,296.00 694.00,290.00 694.00,290.00
             694.00,290.00 690.00,292.00 690.00,292.00
             692.11,288.47 692.49,288.12 692.00,284.00
             692.00,284.00 697.00,283.00 697.00,283.00
             696.68,273.94 693.00,273.75 685.00,273.00
             685.00,273.00 683.00,289.00 683.00,289.00
             683.00,289.00 684.00,282.00 684.00,282.00
             680.21,283.58 681.17,285.46 682.00,289.00
             682.00,289.00 677.00,277.00 677.00,277.00
             677.00,277.00 676.00,287.00 676.00,287.00
             675.80,284.67 676.27,283.81 674.00,283.00
             674.00,283.00 672.00,276.00 672.00,276.00
             672.00,276.00 670.00,289.00 670.00,289.00
             670.90,284.71 671.00,284.26 668.00,281.00
             668.00,281.00 666.00,283.00 666.00,283.00
             666.00,283.00 668.00,278.00 668.00,278.00
             668.00,278.00 665.00,278.00 665.00,278.00
             667.19,276.76 669.76,275.38 670.46,272.72
             671.51,268.69 667.51,267.66 664.76,269.77
             661.11,272.55 663.34,275.48 660.00,280.00
             660.00,280.00 662.00,270.00 662.00,270.00
             657.96,271.44 657.94,273.32 656.00,277.00
             657.31,271.95 658.23,270.33 663.00,268.00
             662.02,261.97 659.96,260.48 654.00,260.00
             654.00,260.00 654.00,263.00 654.00,263.00
             649.54,256.87 638.88,256.73 638.00,269.00
             638.00,269.00 650.00,272.00 650.00,272.00
             650.00,272.00 645.00,274.00 645.00,274.00
             645.00,274.00 640.00,271.00 640.00,271.00
             640.00,271.00 639.00,275.00 639.00,275.00
             639.00,275.00 642.00,278.00 642.00,278.00
             642.00,278.00 648.00,282.00 648.00,282.00
             648.00,282.00 638.00,276.00 638.00,276.00
             638.00,276.00 641.00,282.00 641.00,282.00
             641.00,282.00 636.00,281.00 636.00,281.00
             635.95,276.33 636.31,274.59 633.00,271.00
             633.00,271.00 632.00,276.00 632.00,276.00
             632.00,276.00 632.00,274.00 632.00,274.00
             632.00,274.00 631.00,274.00 631.00,274.00
             631.00,274.00 632.00,278.00 632.00,278.00
             632.00,278.00 626.00,277.00 626.00,277.00
             627.12,281.03 626.18,281.53 624.00,285.00
             624.00,285.00 622.00,281.00 622.00,281.00
             622.00,281.00 624.00,279.00 624.00,279.00
             624.00,279.00 623.00,270.00 623.00,270.00
             623.00,270.00 619.00,278.00 619.00,278.00
             619.00,278.00 624.00,263.00 624.00,263.00 Z
           M 450.00,266.00
           C 453.68,263.10 458.10,258.10 457.67,253.00
             457.07,245.89 447.38,244.70 442.00,251.00
             447.18,256.85 447.06,259.03 450.00,266.00 Z
           M 507.00,259.00
           C 504.02,256.02 509.75,253.83 506.38,251.01
             504.07,248.76 499.77,250.95 497.04,251.01
             493.45,251.53 489.49,248.55 482.00,250.00
             482.00,250.00 489.00,265.00 489.00,265.00
             489.00,265.00 485.00,263.00 485.00,263.00
             485.00,263.00 484.00,266.00 484.00,266.00
             488.34,267.61 485.35,272.01 484.00,275.00
             484.00,275.00 481.00,276.00 481.00,276.00
             481.00,276.00 477.00,275.00 477.00,275.00
             476.68,272.55 476.26,269.39 474.25,267.66
             471.31,265.13 468.75,269.36 468.62,272.00
             468.45,275.38 473.56,282.65 476.00,285.00
             476.00,285.00 478.00,283.00 478.00,283.00
             480.44,289.54 488.44,294.79 490.00,307.00
             490.00,307.00 493.39,308.17 493.39,308.17
             499.99,309.13 496.94,300.13 497.02,299.00
             497.15,297.08 497.56,297.11 498.00,296.00
             498.00,296.00 498.00,301.00 498.00,301.00
             505.20,301.77 504.36,301.26 510.00,297.00
             510.00,297.00 509.00,294.00 509.00,294.00
             509.00,294.00 511.00,294.00 511.00,294.00
             511.00,294.00 511.00,293.00 511.00,293.00
             511.00,293.00 509.00,293.00 509.00,293.00
             511.19,289.74 510.75,289.43 509.00,286.00
             512.37,282.54 511.75,281.53 511.00,277.00
             511.00,277.00 506.00,279.00 506.00,279.00
             506.00,279.00 506.00,271.00 506.00,271.00
             501.95,269.34 501.40,269.15 498.00,272.00
             500.18,263.96 503.52,264.64 507.00,259.00 Z
           M 441.00,258.00
           C 441.00,258.00 434.00,254.00 434.00,254.00
             434.00,254.00 435.00,257.00 435.00,257.00
             430.60,258.83 432.11,263.78 431.93,268.00
             431.93,268.00 431.33,281.00 431.33,281.00
             431.22,283.19 432.10,285.84 431.33,287.79
             431.33,287.79 427.00,294.00 427.00,294.00
             421.51,279.36 430.42,268.45 419.00,262.00
             419.00,262.00 404.00,328.00 404.00,328.00
             404.00,328.00 389.04,324.51 389.04,324.51
             389.04,324.51 378.00,326.00 378.00,326.00
             378.00,326.00 378.00,321.00 378.00,321.00
             378.00,321.00 348.00,312.00 348.00,312.00
             349.93,318.76 349.67,318.35 348.00,325.00
             350.67,326.93 353.00,329.52 356.04,330.85
             359.82,332.51 365.63,332.60 368.13,336.63
             370.44,340.36 363.94,348.18 370.30,353.40
             373.11,355.71 380.38,355.65 384.00,356.01
             384.00,356.01 397.00,357.73 397.00,357.73
             404.19,357.47 406.35,355.28 410.00,354.34
             413.09,353.54 415.91,354.47 418.94,352.83
             423.30,350.47 421.44,348.15 428.00,344.00
             428.00,344.00 428.00,351.00 428.00,351.00
             428.00,351.00 440.00,355.00 440.00,355.00
             440.00,355.00 440.00,357.00 440.00,357.00
             440.00,357.00 437.00,360.00 437.00,360.00
             437.00,360.00 442.00,361.00 442.00,361.00
             442.00,361.00 442.00,360.00 442.00,360.00
             442.00,360.00 444.00,359.00 444.00,359.00
             449.29,367.41 459.13,361.00 465.00,361.00
             465.00,361.00 465.00,355.00 465.00,355.00
             465.00,355.00 462.00,356.00 462.00,356.00
             462.00,356.00 463.00,349.00 463.00,349.00
             458.10,350.99 456.46,353.14 453.00,357.00
             456.50,349.48 455.82,350.16 453.00,343.00
             456.37,345.45 456.70,346.57 461.00,346.00
             461.00,346.00 460.00,342.00 460.00,342.00
             460.00,342.00 463.00,339.00 463.00,339.00
             463.00,339.00 469.00,344.00 469.00,344.00
             469.00,344.00 471.00,340.00 471.00,340.00
             471.00,340.00 471.00,345.00 471.00,345.00
             471.00,345.00 473.00,345.00 473.00,345.00
             473.00,345.00 474.00,334.00 474.00,334.00
             474.00,334.00 469.00,335.00 469.00,335.00
             469.00,335.00 470.00,331.00 470.00,331.00
             465.84,330.53 465.94,329.05 462.84,326.68
             456.36,321.71 455.38,322.77 451.68,314.28
             451.10,312.96 450.25,311.35 450.05,309.93
             449.52,306.10 452.38,303.32 451.89,297.00
             451.89,297.00 450.21,289.00 450.21,289.00
             450.21,289.00 449.17,277.00 449.17,277.00
             449.17,277.00 449.17,269.00 449.17,269.00
             448.52,264.12 444.37,258.16 440.00,256.00
             440.00,256.00 441.00,258.00 441.00,258.00 Z
           M 482.00,254.00
           C 482.00,254.00 478.00,255.00 478.00,255.00
             479.75,259.31 480.35,260.21 485.00,261.00
             485.00,261.00 482.00,254.00 482.00,254.00 Z
           M 509.00,266.00
           C 509.00,266.00 508.00,271.00 508.00,271.00
             510.59,269.16 510.54,268.75 509.00,266.00 Z
           M 676.00,274.00
           C 676.00,274.00 674.00,274.00 674.00,274.00
             674.00,274.00 675.00,279.00 675.00,279.00
             675.00,279.00 676.00,274.00 676.00,274.00 Z
           M 595.00,278.00
           C 595.00,278.00 594.00,278.00 594.00,278.00
             594.00,278.00 595.00,279.00 595.00,279.00
             595.00,279.00 595.00,278.00 595.00,278.00 Z
           M 525.00,294.00
           C 520.50,295.75 517.54,300.55 516.00,305.00
             516.00,305.00 519.00,305.00 519.00,305.00
             519.00,305.00 518.00,311.00 518.00,311.00
             518.00,311.00 513.00,308.00 513.00,308.00
             510.78,313.31 509.63,319.63 512.00,325.00
             512.00,325.00 515.00,324.00 515.00,324.00
             515.00,324.00 516.00,327.00 516.00,327.00
             516.00,327.00 515.00,328.00 515.00,328.00
             515.00,328.00 513.00,327.00 513.00,327.00
             511.59,329.84 509.96,332.70 510.27,336.00
             510.83,341.85 518.86,351.45 525.00,348.00
             527.62,353.31 528.66,353.44 534.00,351.00
             534.31,355.81 533.93,356.20 531.00,360.00
             531.00,360.00 532.00,356.00 532.00,356.00
             530.17,356.63 526.34,358.69 530.00,360.00
             527.11,364.27 526.40,364.79 526.00,370.00
             526.00,370.00 530.00,369.00 530.00,369.00
             530.00,369.00 533.00,364.00 533.00,364.00
             533.00,364.00 535.00,374.00 535.00,374.00
             527.51,378.92 530.24,379.70 525.86,383.78
             520.33,388.93 520.87,383.46 516.00,394.00
             520.08,398.93 519.19,400.74 520.00,407.00
             520.00,407.00 515.00,407.00 515.00,407.00
             515.00,407.00 517.00,403.00 517.00,403.00
             517.00,403.00 511.00,405.00 511.00,405.00
             511.00,405.00 512.00,401.00 512.00,401.00
             508.08,396.44 511.93,389.33 513.00,384.00
             513.00,384.00 512.00,383.00 512.00,383.00
             512.00,383.00 510.00,383.00 510.00,383.00
             510.00,383.00 506.00,387.00 506.00,387.00
             506.00,387.00 509.00,381.00 509.00,381.00
             509.00,381.00 497.00,374.00 497.00,374.00
             497.00,374.00 498.00,378.00 498.00,378.00
             498.00,378.00 496.00,380.00 496.00,380.00
             496.00,380.00 492.00,378.00 492.00,378.00
             492.00,378.00 495.00,390.00 495.00,390.00
             495.00,390.00 499.00,386.00 499.00,386.00
             499.96,387.51 502.77,390.71 502.97,392.08
             503.29,394.33 501.33,396.47 498.73,395.11
             495.76,393.56 492.85,387.84 490.00,385.00
             490.00,385.00 493.00,392.00 493.00,392.00
             479.73,393.03 482.39,389.76 474.42,389.40
             470.81,389.24 468.38,391.01 465.00,391.11
             456.18,391.38 451.94,385.65 448.00,379.00
             444.64,381.71 443.13,381.08 439.00,381.00
             439.00,381.00 439.00,375.00 439.00,375.00
             436.05,373.66 433.59,372.57 434.00,369.00
             433.20,365.83 432.91,360.92 429.77,359.22
             426.94,357.68 422.89,359.58 420.00,360.41
             412.41,362.59 408.80,359.21 405.00,368.00
             405.00,368.00 412.00,372.00 412.00,372.00
             412.00,372.00 411.00,368.00 411.00,368.00
             411.00,368.00 423.00,370.00 423.00,370.00
             423.00,370.00 423.00,366.00 423.00,366.00
             423.00,366.00 432.00,365.00 432.00,365.00
             432.00,365.00 431.00,370.00 431.00,370.00
             431.00,370.00 423.00,372.00 423.00,372.00
             423.00,372.00 424.00,375.00 424.00,375.00
             424.00,375.00 421.00,376.00 421.00,376.00
             414.45,374.44 413.09,376.44 408.00,380.00
             408.00,380.00 409.47,387.00 409.47,387.00
             409.47,387.00 409.47,392.96 409.47,392.96
             409.47,392.96 412.00,404.00 412.00,404.00
             412.00,404.00 407.00,404.00 407.00,404.00
             407.00,404.00 406.00,400.00 406.00,400.00
             406.00,400.00 408.00,415.00 408.00,415.00
             408.00,415.00 400.00,394.00 400.00,394.00
             402.23,396.93 402.45,396.79 406.00,396.00
             406.00,396.00 404.00,389.00 404.00,389.00
             404.00,389.00 401.00,390.00 401.00,390.00
             401.00,390.00 401.00,384.00 401.00,384.00
             401.00,384.00 400.00,389.00 400.00,389.00
             395.10,384.20 401.13,379.73 393.00,380.00
             393.00,380.00 391.00,372.00 391.00,372.00
             391.00,372.00 382.00,374.42 382.00,374.42
             367.60,376.13 354.29,369.59 344.00,360.00
             344.00,360.00 348.00,360.00 348.00,360.00
             348.00,360.00 350.00,355.00 350.00,355.00
             350.00,355.00 351.00,357.00 351.00,357.00
             355.54,354.87 355.18,356.61 357.82,355.97
             360.68,355.27 360.21,352.23 359.73,350.00
             358.77,345.54 351.40,331.97 348.00,340.00
             348.00,340.00 336.05,331.34 336.05,331.34
             336.05,331.34 327.79,321.18 327.79,321.18
             327.79,321.18 318.00,312.00 318.00,312.00
             315.20,316.26 311.08,326.79 308.85,332.00
             307.77,334.52 305.37,339.40 305.48,342.00
             305.67,346.36 314.27,357.78 316.95,362.00
             316.95,362.00 343.33,403.00 343.33,403.00
             345.68,406.52 352.90,418.46 355.32,420.44
             359.29,423.68 368.07,423.90 371.79,426.72
             378.54,431.85 376.80,442.09 387.00,446.30
             387.00,446.30 437.00,464.81 437.00,464.81
             444.03,467.47 452.51,468.12 451.83,477.00
             451.83,477.00 442.00,568.00 442.00,568.00
             442.00,568.00 463.00,570.09 463.00,570.09
             463.00,570.09 489.00,572.00 489.00,572.00
             489.00,572.00 511.00,572.00 511.00,572.00
             516.99,572.07 527.24,575.85 524.73,565.18
             524.31,563.42 523.94,563.32 523.00,562.00
             530.84,558.31 529.74,548.68 534.00,543.00
             534.28,537.56 536.89,536.12 541.00,533.00
             541.00,533.00 537.00,531.00 537.00,531.00
             537.00,531.00 538.00,529.00 538.00,529.00
             538.00,529.00 537.00,528.00 537.00,528.00
             537.00,528.00 540.00,526.00 540.00,526.00
             540.00,526.00 542.00,527.00 542.00,527.00
             542.00,527.00 543.00,526.00 543.00,526.00
             543.00,526.00 542.00,522.00 542.00,522.00
             542.00,522.00 546.00,521.00 546.00,521.00
             546.00,521.00 543.00,519.00 543.00,519.00
             546.61,517.63 546.74,516.53 548.00,513.00
             548.00,513.00 555.00,513.00 555.00,513.00
             555.00,513.00 549.00,507.00 549.00,507.00
             549.00,507.00 561.00,506.12 561.00,506.12
             561.00,506.12 567.00,504.00 567.00,504.00
             568.15,491.12 562.00,494.71 556.00,487.00
             556.00,487.00 548.00,491.00 548.00,491.00
             548.00,491.00 551.00,487.00 551.00,487.00
             551.00,487.00 535.00,483.00 535.00,483.00
             535.00,483.00 535.00,481.00 535.00,481.00
             541.94,481.06 543.64,483.58 550.00,485.24
             550.00,485.24 557.00,486.61 557.00,486.61
             557.00,486.61 564.00,488.88 564.00,488.88
             570.14,489.57 573.81,485.97 571.00,480.00
             571.00,480.00 574.00,481.00 574.00,481.00
             574.00,481.00 573.00,475.00 573.00,475.00
             575.10,475.93 576.71,476.71 579.00,477.16
             590.81,479.48 591.45,471.03 595.46,463.00
             597.02,459.88 600.98,452.77 599.35,449.28
             597.25,444.78 588.75,448.77 582.04,446.79
             577.62,445.47 576.28,442.17 572.91,439.37
             570.86,437.68 568.31,436.34 566.00,435.00
             568.33,434.80 569.19,435.27 570.00,433.00
             585.07,437.80 590.86,453.49 600.23,439.98
             602.14,437.22 602.09,436.94 603.28,434.00
             604.21,431.70 606.88,427.49 606.26,425.22
             605.54,422.61 602.19,422.18 600.42,420.73
             598.73,419.34 598.57,417.97 598.00,416.00
             604.11,416.00 605.20,416.45 611.00,414.00
             611.00,414.00 613.00,421.00 613.00,421.00
             613.00,421.00 621.00,420.00 621.00,420.00
             621.00,420.00 618.00,418.00 618.00,418.00
             618.00,418.00 621.00,419.00 621.00,419.00
             621.00,419.00 627.00,420.00 627.00,420.00
             627.00,420.00 619.00,408.00 619.00,408.00
             622.35,407.96 622.07,407.71 624.00,405.00
             623.66,411.55 625.15,410.94 629.00,416.00
             631.30,414.03 635.73,409.43 637.32,406.89
             639.97,402.64 639.16,400.66 644.00,398.00
             644.00,394.82 644.42,388.78 642.98,386.09
             640.93,382.26 631.31,376.75 630.00,368.00
             630.00,368.00 627.00,368.00 627.00,368.00
             627.00,368.00 628.00,366.00 628.00,366.00
             628.00,366.00 627.00,365.00 627.00,365.00
             627.00,365.00 634.00,365.00 634.00,365.00
             637.11,360.68 637.87,360.23 636.00,355.00
             636.00,355.00 631.00,356.00 631.00,356.00
             631.00,356.00 635.00,348.00 635.00,348.00
             635.00,348.00 627.00,348.00 627.00,348.00
             625.50,344.18 624.90,344.05 621.00,343.00
             621.00,343.00 623.00,340.00 623.00,340.00
             623.00,340.00 614.00,339.31 614.00,339.31
             614.00,339.31 607.01,337.76 607.01,337.76
             607.01,337.76 600.00,339.00 600.00,339.00
             600.00,339.00 599.00,340.00 599.00,340.00
             600.85,352.61 599.67,352.25 609.00,356.00
             609.00,356.00 606.00,361.00 606.00,361.00
             606.00,361.00 607.00,361.00 607.00,361.00
             607.00,361.00 609.00,363.00 609.00,363.00
             609.00,363.00 602.04,365.52 602.04,365.52
             602.04,365.52 601.21,378.01 601.21,378.01
             601.21,378.01 597.98,388.00 597.98,388.00
             597.98,388.00 597.98,398.00 597.98,398.00
             597.98,398.00 593.00,398.00 593.00,398.00
             593.00,398.00 593.00,399.00 593.00,399.00
             593.00,399.00 595.00,401.00 595.00,401.00
             595.00,401.00 591.00,404.00 591.00,404.00
             591.00,404.00 582.03,389.93 582.03,389.93
             582.03,389.93 579.00,376.00 579.00,376.00
             579.00,376.00 582.00,379.00 582.00,379.00
             584.69,374.60 582.39,368.08 579.35,364.18
             576.43,360.44 575.24,361.49 572.00,356.00
             572.00,356.00 569.00,356.00 569.00,356.00
             569.00,356.00 565.00,371.00 565.00,371.00
             565.50,375.66 565.25,376.87 563.00,381.00
             563.00,381.00 559.00,376.00 559.00,376.00
             561.82,366.07 558.80,361.97 552.00,355.00
             552.00,355.00 556.00,356.00 556.00,356.00
             556.00,356.00 559.00,351.00 559.00,351.00
             559.00,351.00 549.00,350.00 549.00,350.00
             549.00,350.00 540.00,348.00 540.00,348.00
             540.00,348.00 546.00,339.00 546.00,339.00
             546.00,339.00 542.00,339.00 542.00,339.00
             542.00,339.00 543.00,335.00 543.00,335.00
             543.00,335.00 549.00,336.00 549.00,336.00
             549.00,336.00 548.00,332.00 548.00,332.00
             548.00,332.00 545.00,333.00 545.00,333.00
             545.00,333.00 543.00,325.00 543.00,325.00
             543.00,325.00 537.00,321.00 537.00,321.00
             538.90,314.30 537.81,310.62 533.79,305.02
             532.69,303.48 530.80,300.46 528.77,300.27
             527.40,300.13 526.68,300.77 526.00,301.00
             526.00,301.00 526.00,295.00 526.00,295.00
             526.00,295.00 525.00,294.00 525.00,294.00 Z
           M 658.00,329.00
           C 658.00,329.00 654.00,335.00 654.00,335.00
             657.18,333.12 657.47,332.65 658.00,329.00 Z
           M 646.00,330.00
           C 646.00,330.00 637.00,335.00 637.00,335.00
             637.00,335.00 642.00,334.00 642.00,334.00
             642.00,334.00 647.00,334.00 647.00,334.00
             647.00,334.00 646.00,330.00 646.00,330.00 Z
           M 671.00,333.00
           C 671.00,333.00 666.00,334.00 666.00,334.00
             666.00,334.00 669.00,340.00 669.00,340.00
             669.00,340.00 671.00,333.00 671.00,333.00 Z
           M 659.00,338.00
           C 659.00,338.00 656.00,338.00 656.00,338.00
             656.00,338.00 653.00,351.00 653.00,351.00
             657.23,347.15 657.33,343.37 659.00,338.00 Z
           M 499.00,343.00
           C 494.20,347.42 496.19,348.25 496.00,354.00
             496.00,354.00 493.00,350.00 493.00,350.00
             493.21,352.80 493.44,355.23 491.35,357.49
             487.86,361.27 483.36,358.63 486.00,366.00
             486.00,366.00 490.00,364.00 490.00,364.00
             490.00,364.00 493.00,369.00 493.00,369.00
             493.00,369.00 494.00,366.00 494.00,366.00
             495.38,369.13 500.27,375.51 504.00,373.00
             509.48,376.80 510.21,375.93 514.74,371.69
             514.74,371.69 520.00,367.00 520.00,367.00
             520.00,367.00 516.00,368.00 516.00,368.00
             516.00,368.00 513.00,360.00 513.00,360.00
             513.00,360.00 512.00,363.00 512.00,363.00
             511.77,354.08 509.42,355.03 504.00,348.00
             504.00,348.00 502.00,350.00 502.00,350.00
             502.00,350.00 499.00,343.00 499.00,343.00 Z
           M 688.00,345.00
           C 686.72,349.43 689.20,350.66 693.00,352.00
             693.00,352.00 688.00,345.00 688.00,345.00 Z
           M 685.00,355.56
           C 676.87,358.19 675.50,366.56 677.91,374.00
             678.98,377.28 680.92,381.78 685.04,381.39
             686.39,381.26 688.79,380.19 689.98,379.52
             697.45,375.33 696.53,369.92 694.08,363.00
             693.44,361.18 692.84,358.18 691.41,356.93
             689.56,355.32 687.24,355.45 685.00,355.56 Z
           M 699.00,355.00
           C 699.00,355.00 696.00,358.00 696.00,358.00
             699.58,364.95 702.73,362.11 709.00,361.00
             709.00,361.00 707.00,356.00 707.00,356.00
             703.22,356.63 702.25,357.29 699.00,355.00 Z
           M 477.00,361.00
           C 474.69,363.83 474.91,365.10 477.00,368.00
             477.00,368.00 477.00,361.00 477.00,361.00 Z
           M 464.00,365.00
           C 464.00,365.00 461.00,369.00 461.00,369.00
             461.00,369.00 464.00,370.00 464.00,370.00
             464.00,370.00 464.00,365.00 464.00,365.00 Z
           M 438.00,367.00
           C 437.42,370.01 438.32,370.08 441.00,371.00
             441.00,371.00 438.00,367.00 438.00,367.00 Z
           M 405.00,368.00
           C 405.00,368.00 404.00,368.00 404.00,368.00
             404.00,368.00 405.00,369.00 405.00,369.00
             405.00,369.00 405.00,368.00 405.00,368.00 Z
           M 733.00,370.00
           C 733.00,370.00 738.00,369.00 738.00,369.00
             743.32,374.63 747.78,373.29 755.00,373.00
             755.00,373.00 753.00,377.00 753.00,377.00
             758.97,379.57 751.37,383.64 749.00,386.00
             749.00,386.00 746.00,384.00 746.00,384.00
             745.31,388.46 745.03,391.48 741.00,394.00
             741.47,386.93 738.63,383.75 733.00,380.00
             735.86,376.09 734.76,374.18 733.00,370.00 Z
           M 595.00,376.00
           C 591.67,379.97 591.51,386.08 597.00,388.00
             597.00,388.00 595.00,376.00 595.00,376.00 Z
           M 742.00,407.00
           C 752.51,409.83 756.63,410.68 763.00,420.00
             763.00,420.00 758.00,421.00 758.00,421.00
             758.00,421.00 759.00,418.00 759.00,418.00
             759.00,418.00 755.00,418.00 755.00,418.00
             753.88,424.65 748.72,425.45 745.00,420.00
             745.00,420.00 749.00,418.00 749.00,418.00
             749.00,418.00 742.00,407.00 742.00,407.00 Z
           M 622.00,423.00
           C 622.00,423.00 627.00,431.00 627.00,431.00
             627.00,431.00 629.00,426.00 629.00,426.00
             629.00,426.00 622.00,423.00 622.00,423.00 Z
           M 616.00,427.00
           C 615.55,431.56 617.60,433.36 621.00,436.00
             620.41,431.73 619.77,429.38 616.00,427.00 Z
           M 612.00,430.00
           C 605.50,435.91 608.68,443.25 608.96,451.00
             609.37,462.37 605.62,460.41 612.00,473.00
             605.82,475.43 601.50,479.00 604.00,486.00
             604.00,486.00 618.00,480.00 618.00,480.00
             618.00,480.00 620.05,489.87 620.05,489.87
             622.12,494.71 626.73,491.97 628.97,488.89
             628.97,488.89 632.69,481.29 632.69,481.29
             633.98,479.38 636.23,477.64 637.14,475.56
             639.24,470.78 634.97,469.23 644.00,465.00
             644.00,465.00 643.00,470.00 643.00,470.00
             643.00,470.00 651.00,470.00 651.00,470.00
             651.00,470.00 650.00,475.00 650.00,475.00
             650.00,475.00 665.62,476.34 665.62,476.34
             665.62,476.34 673.00,468.00 673.00,468.00
             673.00,468.00 667.00,467.00 667.00,467.00
             667.00,467.00 668.00,465.00 668.00,465.00
             668.00,465.00 664.00,463.00 664.00,463.00
             664.00,463.00 665.00,466.00 665.00,466.00
             659.57,464.13 658.88,465.37 654.00,468.00
             654.00,468.00 657.00,464.00 657.00,464.00
             655.54,460.30 653.43,454.67 649.93,452.60
             647.06,450.90 645.49,451.85 641.00,449.30
             641.00,449.30 634.72,444.98 634.72,444.98
             634.72,444.98 628.26,442.87 628.26,442.87
             625.39,441.31 626.15,440.55 622.00,439.00
             622.00,439.00 622.00,445.00 622.00,445.00
             622.00,445.00 615.00,438.00 615.00,438.00
             617.35,433.88 614.82,432.96 612.00,430.00 Z
           M 828.00,434.00
           C 827.40,437.44 828.27,438.08 831.00,440.00
             830.81,436.33 830.64,436.53 828.00,434.00 Z
           M 737.00,436.00
           C 737.00,436.00 736.00,436.00 736.00,436.00
             736.00,436.00 737.00,437.00 737.00,437.00
             737.00,437.00 737.00,436.00 737.00,436.00 Z
           M 839.00,439.00
           C 835.96,439.20 836.07,439.13 835.00,442.00
             835.00,442.00 839.00,439.00 839.00,439.00 Z
           M 847.00,464.00
           C 846.15,456.92 841.43,456.29 838.00,462.00
             838.00,462.00 847.00,464.00 847.00,464.00 Z
           M 781.00,464.00
           C 778.88,460.47 777.99,460.47 774.00,460.00
             775.67,464.29 776.56,464.29 781.00,464.00 Z
           M 711.00,467.00
           C 707.74,463.19 706.89,463.17 702.00,463.00
             704.41,466.81 706.60,467.65 711.00,467.00 Z
           M 692.00,473.00
           C 692.00,473.00 696.00,475.21 696.00,475.21
             704.91,479.38 703.58,467.42 695.10,470.62
             693.38,471.27 693.17,471.85 692.00,473.00 Z
           M 660.00,491.00
           C 660.00,491.00 644.00,495.00 644.00,495.00
             644.00,495.00 641.00,508.00 641.00,508.00
             641.00,508.00 644.00,512.00 644.00,512.00
             647.38,510.32 647.33,509.95 651.00,511.00
             655.82,503.26 659.33,500.31 660.00,491.00 Z
           M 821.00,505.00
           C 825.21,502.26 826.39,498.17 821.00,496.00
             821.00,496.00 820.00,497.00 820.00,497.00
             820.00,497.00 821.00,505.00 821.00,505.00 Z
           M 689.00,517.00
           C 690.15,513.23 693.40,499.76 687.00,499.03
             683.81,498.67 682.47,502.51 682.20,505.00
             681.55,511.00 684.88,513.50 689.00,517.00 Z
           M 726.00,722.00
           C 724.23,718.96 722.24,715.68 718.99,714.02
             713.64,711.31 707.33,714.14 706.00,720.00
             706.00,720.00 726.00,722.00 726.00,722.00 Z" />
</svg>
