<?xml version="1.0" encoding="UTF-8" standalone="no"?>
<!DOCTYPE svg PUBLIC "-//W3C//DTD SVG 20010904//EN"
              "http://www.w3.org/TR/2001/REC-SVG-20010904/DTD/svg10.dtd">

<svg xmlns="http://www.w3.org/2000/svg"
     width="16.3611in" height="13.8611in"
     viewBox="0 0 1178 998" pointer-events = "none">
  <path id="Selection"
        fill="currentColor" stroke="black" stroke-width="1" pointer-events = "visibleFill"
        d="M 601.00,644.00
           C 595.97,648.51 588.20,660.05 583.58,666.00
             583.58,666.00 541.54,721.00 541.54,721.00
             537.32,726.11 523.29,738.40 521.60,743.00
             520.88,744.94 521.00,747.91 521.00,750.00
             521.00,750.00 521.00,817.00 521.00,817.00
             521.06,827.08 523.48,821.89 525.87,831.00
             526.45,833.24 526.84,837.55 528.59,838.99
             528.59,838.99 542.28,843.52 542.28,843.52
             545.87,844.12 556.56,838.29 559.00,846.00
             559.00,846.00 563.00,846.00 563.00,846.00
             563.00,846.00 564.00,851.00 564.00,851.00
             564.00,851.00 569.00,847.00 569.00,847.00
             570.86,849.78 571.64,850.42 574.59,852.06
             580.79,855.50 583.44,851.84 589.00,849.00
             589.80,850.19 589.74,850.70 591.29,851.41
             592.95,852.16 595.06,851.90 596.83,851.92
             601.77,851.97 606.11,855.21 610.72,851.42
             613.66,848.99 613.48,845.52 614.98,843.21
             616.50,840.88 618.60,840.11 621.00,839.00
             621.00,839.00 620.00,844.00 620.00,844.00
             623.76,841.10 623.84,835.36 625.00,831.00
             625.00,831.00 628.00,832.00 628.00,832.00
             628.64,830.12 628.79,828.73 631.15,828.33
             631.15,828.33 643.04,830.65 643.04,830.65
             648.29,831.43 654.21,828.33 658.61,832.43
             662.56,836.11 662.79,844.67 670.00,847.25
             674.62,848.90 676.86,845.44 686.00,846.00
             685.11,848.44 683.58,851.92 685.03,854.41
             686.11,856.26 689.46,857.83 690.51,861.02
             691.19,863.07 690.39,865.90 690.00,868.00
             690.00,868.00 698.00,871.00 698.00,871.00
             698.00,871.00 695.00,871.00 695.00,871.00
             695.00,871.00 696.00,880.00 696.00,880.00
             696.00,880.00 703.00,877.00 703.00,877.00
             703.00,877.00 704.00,882.00 704.00,882.00
             704.00,882.00 718.00,882.00 718.00,882.00
             718.00,882.00 731.00,880.78 731.00,880.78
             731.00,880.78 743.00,880.12 743.00,880.12
             743.00,880.12 754.00,880.12 754.00,880.12
             754.00,880.12 760.68,881.87 760.68,881.87
             760.68,881.87 769.00,887.00 769.00,887.00
             769.00,887.00 771.00,892.00 771.00,892.00
             771.00,892.00 775.00,890.00 775.00,890.00
             775.00,890.00 776.00,891.00 776.00,891.00
             776.00,891.00 774.00,893.00 774.00,893.00
             774.00,893.00 774.00,894.00 774.00,894.00
             774.00,894.00 778.00,896.00 778.00,896.00
             778.00,896.00 785.00,905.00 785.00,905.00
             785.00,905.00 779.00,903.00 779.00,903.00
             779.00,903.00 778.00,906.00 778.00,906.00
             780.76,908.80 780.68,909.12 781.00,913.00
             781.00,913.00 768.00,909.00 768.00,909.00
             768.00,909.00 765.00,913.00 765.00,913.00
             765.00,913.00 764.00,908.00 764.00,908.00
             764.00,908.00 763.00,908.00 763.00,908.00
             763.00,908.00 761.00,910.00 761.00,910.00
             761.00,910.00 762.00,906.00 762.00,906.00
             762.00,906.00 758.00,906.00 758.00,906.00
             758.00,906.00 755.00,899.00 755.00,899.00
             755.00,899.00 749.00,901.00 749.00,901.00
             752.77,903.55 758.97,908.32 758.96,913.42
             758.96,915.72 755.28,922.52 754.92,928.00
             754.61,932.62 758.16,940.43 757.60,944.00
             756.87,948.64 749.88,955.00 748.95,956.59
             748.07,958.10 747.48,966.31 747.00,969.00
             756.72,974.91 737.09,973.02 739.66,979.74
             741.33,984.13 745.62,980.36 751.00,982.00
             753.11,974.97 756.17,975.97 760.23,971.40
             762.78,968.54 764.50,962.94 771.00,960.34
             776.17,958.27 780.62,959.67 783.46,958.18
             785.77,956.96 786.14,954.74 790.05,952.40
             795.43,949.18 802.88,947.30 809.00,946.00
             809.00,946.00 805.00,938.00 805.00,938.00
             797.89,940.37 798.72,941.31 791.00,940.00
             798.34,925.68 799.62,924.72 814.00,917.37
             821.80,913.39 825.20,911.12 834.00,914.00
             834.00,914.00 836.00,909.00 836.00,909.00
             836.00,909.00 833.00,907.00 833.00,907.00
             833.00,907.00 825.00,911.00 825.00,911.00
             834.06,903.15 833.70,907.89 844.00,900.63
             853.89,893.66 852.43,888.81 859.52,880.01
             863.74,874.77 866.67,874.76 869.00,868.00
             866.85,865.23 866.49,862.40 864.57,861.67
             859.60,859.78 851.21,868.17 847.58,870.72
             846.52,871.47 846.21,871.72 844.91,871.97
             844.91,871.97 834.00,873.06 834.00,873.06
             831.02,872.69 829.25,870.76 827.00,869.71
             827.00,869.71 820.00,867.81 820.00,867.81
             815.12,865.68 814.95,862.65 805.00,863.04
             801.57,863.17 795.56,864.61 792.58,863.82
             788.80,862.81 785.11,858.96 782.42,856.28
             777.70,851.55 772.79,846.52 770.58,840.00
             770.58,840.00 767.87,827.00 767.87,827.00
             767.87,827.00 754.87,774.00 754.87,774.00
             753.43,768.23 750.31,753.49 748.00,749.00
             748.00,749.00 748.00,756.00 748.00,756.00
             741.78,753.13 740.45,752.29 734.00,755.00
             734.69,753.48 735.34,752.91 735.20,751.00
             734.68,743.80 720.44,735.90 714.00,737.00
             714.00,737.00 715.00,731.00 715.00,731.00
             712.46,729.29 703.56,722.25 702.16,719.79
             701.11,717.20 702.29,714.70 702.16,712.00
             702.16,712.00 699.35,700.01 699.35,700.01
             698.05,695.97 695.43,694.67 694.43,690.96
             693.24,686.60 695.24,678.19 692.15,674.31
             689.18,670.59 678.44,671.90 674.00,672.00
             664.81,672.21 659.23,675.45 654.58,674.00
             651.03,672.90 648.25,670.23 645.00,668.56
             642.16,667.11 640.83,667.21 638.00,666.41
             631.14,664.46 625.41,661.24 618.00,663.00
             617.98,652.07 607.17,650.66 601.00,644.00 Z
           M 616.00,813.00
           C 615.85,812.89 614.25,812.43 613.88,810.75
             613.43,808.72 616.58,800.16 618.30,798.94
             622.37,796.05 625.95,798.12 626.00,803.00
             626.00,803.00 630.00,804.00 630.00,804.00
             630.00,804.00 629.00,818.00 629.00,818.00
             629.00,818.00 625.00,820.00 625.00,820.00
             625.00,820.00 614.00,817.00 614.00,817.00
             614.00,817.00 616.00,813.00 616.00,813.00 Z
           M 875.00,862.00
           C 875.00,862.00 869.00,861.00 869.00,861.00
             869.00,861.00 872.00,867.00 872.00,867.00
             872.00,867.00 875.00,862.00 875.00,862.00 Z
           M 742.00,884.00
           C 742.00,884.00 740.00,884.00 740.00,884.00
             740.00,884.00 739.00,888.00 739.00,888.00
             735.16,886.03 733.59,885.42 732.00,890.00
             727.55,888.90 725.26,887.66 721.00,890.00
             721.00,890.00 745.00,894.00 745.00,894.00
             746.61,890.34 747.15,889.52 745.00,886.00
             745.00,886.00 744.00,889.00 744.00,889.00
             744.00,889.00 742.00,884.00 742.00,884.00 Z" />
</svg>
