<?xml version="1.0" encoding="UTF-8" standalone="no"?>
<!DOCTYPE svg PUBLIC "-//W3C//DTD SVG 20010904//EN"
              "http://www.w3.org/TR/2001/REC-SVG-20010904/DTD/svg10.dtd">

<svg xmlns="http://www.w3.org/2000/svg"
     width="16.3611in" height="13.8611in"
     viewBox="0 0 1178 998" pointer-events = "none">
  <path id="Selection"
        fill="currentColor" stroke="black" stroke-width="1" pointer-events = "visibleFill"
        d="M 432.00,619.00
           C 434.65,611.73 436.28,592.53 437.03,584.00
             437.36,580.95 438.92,574.06 437.03,571.60
             435.69,569.97 432.90,569.98 431.00,569.72
             431.00,569.72 414.00,567.41 414.00,567.41
             414.00,567.41 373.00,560.20 373.00,560.20
             373.00,560.20 349.00,555.00 349.00,555.00
             349.00,555.00 347.00,566.00 347.00,566.00
             354.94,562.41 352.56,564.90 360.00,567.00
             360.00,567.00 358.00,570.00 358.00,570.00
             366.95,569.39 368.38,571.70 376.00,574.95
             379.90,576.61 380.61,575.86 384.00,579.00
             381.05,578.02 374.86,575.76 372.00,575.72
             367.41,575.66 367.52,578.14 357.00,576.62
             353.72,576.15 346.60,574.60 344.16,577.57
             342.97,579.03 340.07,592.20 339.37,595.00
             339.37,595.00 328.63,640.00 328.63,640.00
             328.63,640.00 304.63,740.00 304.63,740.00
             304.63,740.00 289.00,806.00 289.00,806.00
             289.00,806.00 322.00,813.00 322.00,813.00
             322.00,813.00 387.00,824.00 387.00,824.00
             387.00,824.00 411.00,826.98 411.00,826.98
             412.94,827.17 417.72,828.13 419.19,826.98
             421.20,825.37 421.00,816.62 421.00,814.00
             421.00,814.00 421.00,810.00 421.00,810.00
             421.00,810.00 422.00,793.00 422.00,793.00
             422.00,793.00 424.00,756.00 424.00,756.00
             424.00,756.00 425.00,737.00 425.00,737.00
             425.00,737.00 425.74,725.42 425.74,725.42
             425.74,725.42 427.00,693.00 427.00,693.00
             427.00,693.00 428.00,674.00 428.00,674.00
             428.04,664.62 429.34,651.24 431.00,642.00
             431.00,642.00 428.00,642.00 428.00,642.00
             428.00,642.00 429.00,645.00 429.00,645.00
             425.06,646.89 421.43,649.32 419.00,653.00
             419.00,653.00 416.00,651.00 416.00,651.00
             416.00,651.00 414.00,653.00 414.00,653.00
             414.00,653.00 419.00,644.00 419.00,644.00
             419.00,644.00 417.00,649.00 417.00,649.00
             421.51,646.92 428.26,640.72 423.00,636.00
             423.00,636.00 424.00,630.00 424.00,630.00
             422.65,626.28 428.48,619.99 432.00,619.00 Z" />
</svg>
