<?xml version="1.0" encoding="UTF-8" standalone="no"?>
<!DOCTYPE svg PUBLIC "-//W3C//DTD SVG 20010904//EN"
              "http://www.w3.org/TR/2001/REC-SVG-20010904/DTD/svg10.dtd">

<svg xmlns="http://www.w3.org/2000/svg"
     width="16.3611in" height="13.8611in"
     viewBox="0 0 1178 998" pointer-events = "none">
  <path id="Selection"
        fill="currentColor" stroke="black" stroke-width="1" pointer-events = "visibleFill"
        d="M 875.00,495.00
           C 870.66,502.16 874.71,509.60 883.00,510.00
             883.00,510.00 883.00,508.00 883.00,508.00
             883.00,508.00 880.00,508.00 880.00,508.00
             880.00,508.00 885.00,501.00 885.00,501.00
             885.00,501.00 882.00,502.00 882.00,502.00
             882.00,502.00 883.00,500.00 883.00,500.00
             883.00,500.00 882.00,499.00 882.00,499.00
             882.00,499.00 880.00,502.00 880.00,502.00
             878.83,499.52 878.72,499.94 876.00,500.00
             876.00,500.00 878.00,496.00 878.00,496.00
             878.00,496.00 875.00,495.00 875.00,495.00 Z
           M 887.00,503.00
           C 887.00,503.00 883.00,508.00 883.00,508.00
             889.63,507.89 889.92,510.07 886.00,515.00
             891.11,518.37 888.80,519.18 887.00,528.00
             892.98,530.36 893.50,532.19 900.00,530.00
             900.00,530.00 905.21,547.00 905.21,547.00
             905.21,547.00 906.36,553.83 906.36,553.83
             906.36,553.83 910.00,563.00 910.00,563.00
             915.70,565.21 914.73,565.86 921.00,565.00
             918.88,572.57 920.30,571.02 924.00,578.00
             924.00,578.00 930.00,577.00 930.00,577.00
             930.00,577.00 930.00,594.00 930.00,594.00
             930.00,594.00 934.00,596.00 934.00,596.00
             934.00,596.00 926.00,603.00 926.00,603.00
             926.00,603.00 931.00,606.00 931.00,606.00
             931.00,606.00 938.00,607.00 938.00,607.00
             938.00,607.00 936.00,605.00 936.00,605.00
             936.00,605.00 941.00,598.00 941.00,598.00
             942.35,601.91 944.36,603.24 948.00,605.00
             948.00,605.00 943.00,609.00 943.00,609.00
             943.00,609.00 945.00,610.00 945.00,610.00
             945.00,610.00 935.00,616.00 935.00,616.00
             932.77,613.07 932.55,613.21 929.00,614.00
             929.00,614.00 925.00,623.00 925.00,623.00
             925.00,623.00 919.00,624.00 919.00,624.00
             917.31,619.27 916.82,619.91 918.00,615.00
             918.00,615.00 922.00,616.00 922.00,616.00
             922.00,616.00 925.00,613.00 925.00,613.00
             923.97,610.13 924.04,610.29 926.00,608.00
             926.00,608.00 924.00,600.00 924.00,600.00
             917.26,601.90 919.26,600.78 913.00,600.00
             913.00,600.00 912.00,606.00 912.00,606.00
             912.00,606.00 908.42,607.45 908.42,607.45
             908.42,607.45 892.00,604.00 892.00,604.00
             892.00,604.00 897.00,614.00 897.00,614.00
             897.00,614.00 891.00,614.00 891.00,614.00
             891.00,614.00 892.00,622.00 892.00,622.00
             885.26,625.03 888.87,626.09 889.00,634.00
             894.56,636.23 894.61,637.26 897.96,638.81
             897.96,638.81 904.03,640.61 904.03,640.61
             907.89,642.75 908.35,648.10 908.00,652.00
             908.00,652.00 904.00,651.00 904.00,651.00
             904.00,651.00 906.00,655.00 906.00,655.00
             906.00,655.00 913.00,656.00 913.00,656.00
             913.00,656.00 914.00,646.00 914.00,646.00
             914.00,646.00 921.00,649.00 921.00,649.00
             921.14,657.69 924.66,659.67 931.00,664.06
             938.50,657.44 939.80,663.77 945.09,664.06
             949.40,664.52 948.46,661.97 955.00,664.06
             955.00,664.06 956.00,661.00 956.00,661.00
             952.07,657.23 951.81,652.16 949.99,647.00
             949.32,645.11 947.79,641.93 947.99,640.04
             948.28,637.34 950.47,636.75 952.00,631.00
             952.00,631.00 954.00,631.00 954.00,631.00
             954.00,631.00 960.00,635.00 960.00,635.00
             956.39,638.36 954.48,639.18 953.00,644.00
             959.85,645.10 960.07,648.21 964.00,648.05
             967.10,647.92 980.45,639.74 984.00,637.72
             984.00,637.72 1024.00,613.58 1024.00,613.58
             1024.00,613.58 1041.99,602.11 1041.99,602.11
             1046.72,600.71 1048.08,606.43 1053.00,611.00
             1053.00,611.00 1058.56,593.29 1058.56,593.29
             1058.88,591.00 1059.13,587.92 1057.13,586.29
             1055.39,584.88 1051.35,585.26 1049.00,585.00
             1052.85,584.17 1053.63,584.26 1056.00,581.00
             1056.00,581.00 1045.00,584.00 1045.00,584.00
             1045.00,584.00 1049.00,582.00 1049.00,582.00
             1049.00,582.00 1048.00,578.00 1048.00,578.00
             1048.00,578.00 1044.00,577.00 1044.00,577.00
             1044.00,577.00 1048.00,574.00 1048.00,574.00
             1048.00,574.00 1043.16,574.00 1043.16,574.00
             1043.35,572.32 1043.86,570.85 1043.16,569.11
             1041.71,564.00 1029.00,563.42 1025.23,566.11
             1022.72,567.89 1023.51,571.51 1022.00,576.00
             1022.00,576.00 1021.00,572.00 1021.00,572.00
             1021.00,572.00 1018.00,573.00 1018.00,573.00
             1018.68,571.50 1019.64,569.92 1019.49,568.18
             1019.18,564.81 1014.01,562.42 1011.00,562.60
             1006.85,562.85 1003.18,565.71 1001.00,569.00
             1001.00,569.00 1009.00,567.00 1009.00,567.00
             999.83,570.80 1000.63,575.00 997.92,582.83
             995.83,588.83 991.68,596.83 987.06,601.00
             987.06,601.00 987.06,588.96 987.06,588.96
             987.06,588.96 996.00,577.00 996.00,577.00
             996.00,577.00 995.00,576.00 995.00,576.00
             995.00,576.00 988.00,580.00 988.00,580.00
             998.89,573.24 998.16,565.07 1006.00,559.00
             1006.00,559.00 1005.00,556.00 1005.00,556.00
             1005.00,556.00 1007.00,553.00 1007.00,553.00
             1007.00,553.00 993.00,556.00 993.00,556.00
             992.25,558.98 987.71,559.59 985.16,558.28
             985.16,558.28 981.00,555.00 981.00,555.00
             981.00,555.00 979.00,559.00 979.00,559.00
             979.00,559.00 978.00,555.00 978.00,555.00
             978.00,555.00 975.00,569.00 975.00,569.00
             975.00,569.00 976.00,558.00 976.00,558.00
             976.00,558.00 970.00,561.00 970.00,561.00
             970.00,561.00 972.00,557.00 972.00,557.00
             972.00,557.00 967.00,565.00 967.00,565.00
             967.00,565.00 967.00,561.00 967.00,561.00
             967.00,561.00 963.00,568.00 963.00,568.00
             963.00,568.00 964.00,565.00 964.00,565.00
             964.00,565.00 960.00,555.00 960.00,555.00
             960.00,555.00 959.00,555.00 959.00,555.00
             959.00,555.00 957.00,557.00 957.00,557.00
             957.00,557.00 956.00,554.00 956.00,554.00
             956.00,554.00 953.00,555.00 953.00,555.00
             953.00,555.00 953.00,553.00 953.00,553.00
             953.00,553.00 947.00,555.00 947.00,555.00
             947.00,555.00 948.00,553.00 948.00,553.00
             948.00,553.00 943.00,554.00 943.00,554.00
             943.00,554.00 941.00,550.00 941.00,550.00
             941.00,550.00 933.00,553.00 933.00,553.00
             933.00,553.00 934.00,549.00 934.00,549.00
             934.00,549.00 929.00,550.00 929.00,550.00
             929.00,550.00 931.00,546.00 931.00,546.00
             931.00,546.00 927.00,547.00 927.00,547.00
             926.14,544.81 925.15,545.60 923.00,546.00
             923.00,546.00 933.00,542.00 933.00,542.00
             933.00,542.00 928.00,541.00 928.00,541.00
             928.00,541.00 931.00,539.00 931.00,539.00
             931.00,539.00 931.00,531.00 931.00,531.00
             931.00,531.00 922.00,533.00 922.00,533.00
             922.00,533.00 922.00,528.00 922.00,528.00
             922.00,528.00 913.00,530.00 913.00,530.00
             916.80,528.53 916.97,526.74 918.00,523.00
             915.40,521.73 913.43,519.96 911.00,522.00
             911.00,522.00 907.00,522.00 907.00,522.00
             907.00,522.00 909.00,518.00 909.00,518.00
             901.78,518.84 902.87,520.82 899.00,526.00
             899.00,526.00 902.00,519.00 902.00,519.00
             902.00,519.00 903.00,513.00 903.00,513.00
             903.00,513.00 900.00,511.00 900.00,511.00
             900.00,511.00 895.00,515.00 895.00,515.00
             895.00,515.00 893.00,520.00 893.00,520.00
             892.87,512.49 897.74,510.43 894.00,509.00
             894.00,509.00 895.00,506.00 895.00,506.00
             895.00,506.00 890.00,507.00 890.00,507.00
             890.00,507.00 887.00,503.00 887.00,503.00 Z
           M 914.00,519.00
           C 914.00,519.00 913.00,519.00 913.00,519.00
             913.00,519.00 914.00,520.00 914.00,520.00
             914.00,520.00 914.00,519.00 914.00,519.00 Z
           M 1070.00,596.00
           C 1070.00,596.00 1067.00,598.00 1067.00,598.00
             1067.00,598.00 1069.00,600.00 1069.00,600.00
             1069.00,600.00 1064.00,599.00 1064.00,599.00
             1062.51,602.51 1059.40,608.45 1059.11,612.00
             1058.85,618.82 1061.59,621.49 1059.11,629.00
             1059.11,629.00 1061.00,630.00 1061.00,630.00
             1061.00,630.00 1062.00,629.00 1062.00,629.00
             1059.35,634.76 1061.90,645.31 1066.00,650.00
             1063.30,654.25 1066.01,655.33 1070.00,656.00
             1070.00,656.00 1065.00,658.00 1065.00,658.00
             1065.18,663.11 1065.39,665.60 1071.00,663.00
             1071.00,663.00 1073.00,664.00 1073.00,664.00
             1073.00,664.00 1070.00,668.00 1070.00,668.00
             1070.00,668.00 1075.00,669.00 1075.00,669.00
             1066.47,670.14 1065.90,671.31 1069.00,683.00
             1069.00,683.00 1074.00,682.00 1074.00,682.00
             1074.00,682.00 1068.00,703.00 1068.00,703.00
             1074.69,707.23 1079.27,708.21 1082.00,699.00
             1082.00,699.00 1084.00,700.00 1084.00,700.00
             1084.00,700.00 1085.00,699.00 1085.00,699.00
             1085.00,699.00 1084.00,695.00 1084.00,695.00
             1084.00,695.00 1086.00,697.00 1086.00,697.00
             1086.00,697.00 1087.00,697.00 1087.00,697.00
             1087.00,697.00 1091.00,693.00 1091.00,693.00
             1095.25,693.36 1095.66,692.45 1099.00,690.00
             1099.00,690.00 1099.00,687.00 1099.00,687.00
             1099.00,687.00 1100.00,690.00 1100.00,690.00
             1100.00,690.00 1108.00,686.00 1108.00,686.00
             1108.00,686.00 1107.00,684.00 1107.00,684.00
             1107.00,684.00 1111.00,683.00 1111.00,683.00
             1111.00,683.00 1109.00,681.00 1109.00,681.00
             1109.00,681.00 1113.00,682.00 1113.00,682.00
             1113.00,682.00 1111.00,678.00 1111.00,678.00
             1111.00,678.00 1113.00,680.00 1113.00,680.00
             1113.00,680.00 1114.00,680.00 1114.00,680.00
             1114.00,680.00 1113.00,675.00 1113.00,675.00
             1113.00,675.00 1116.00,677.00 1116.00,677.00
             1116.00,677.00 1117.00,669.00 1117.00,669.00
             1117.00,669.00 1118.00,676.00 1118.00,676.00
             1118.00,676.00 1122.00,673.00 1122.00,673.00
             1122.00,673.00 1121.00,676.00 1121.00,676.00
             1121.00,676.00 1122.00,677.00 1122.00,677.00
             1122.00,677.00 1126.00,677.00 1126.00,677.00
             1126.00,677.00 1124.00,670.00 1124.00,670.00
             1128.22,669.26 1128.17,668.78 1130.00,665.00
             1130.00,665.00 1131.00,669.00 1131.00,669.00
             1131.00,669.00 1134.00,665.00 1134.00,665.00
             1134.00,665.00 1131.35,674.00 1131.35,674.00
             1131.35,674.00 1131.35,681.96 1131.35,681.96
             1131.35,681.96 1127.00,690.00 1127.00,690.00
             1134.70,690.99 1136.52,685.23 1137.00,679.00
             1137.00,679.00 1135.00,679.00 1135.00,679.00
             1135.00,679.00 1136.00,670.00 1136.00,670.00
             1141.39,668.57 1139.02,659.07 1138.00,655.00
             1138.00,655.00 1150.00,660.00 1150.00,660.00
             1149.45,665.38 1150.00,672.01 1155.00,675.00
             1155.00,675.00 1157.00,662.00 1157.00,662.00
             1158.10,665.12 1157.87,665.74 1161.00,667.00
             1160.85,670.94 1161.23,671.71 1165.00,673.00
             1165.00,673.00 1166.00,668.00 1166.00,668.00
             1166.00,668.00 1170.00,669.00 1170.00,669.00
             1170.00,669.00 1165.35,655.00 1165.35,655.00
             1165.35,655.00 1162.27,647.22 1162.27,647.22
             1162.27,647.22 1158.00,644.00 1158.00,644.00
             1158.00,644.00 1159.00,655.00 1159.00,655.00
             1159.00,655.00 1153.00,652.00 1153.00,652.00
             1153.00,652.00 1150.00,638.00 1150.00,638.00
             1147.30,650.72 1148.44,645.02 1151.00,657.00
             1151.00,657.00 1142.00,654.00 1142.00,654.00
             1142.00,654.00 1143.00,648.00 1143.00,648.00
             1143.00,648.00 1139.00,651.00 1139.00,651.00
             1139.00,651.00 1136.00,648.00 1136.00,648.00
             1136.00,648.00 1136.00,646.00 1136.00,646.00
             1141.29,644.06 1141.45,642.32 1141.00,637.00
             1144.58,634.52 1143.63,632.90 1141.00,630.00
             1141.00,630.00 1141.00,635.00 1141.00,635.00
             1141.00,635.00 1137.00,634.00 1137.00,634.00
             1137.00,634.00 1137.00,641.00 1137.00,641.00
             1137.00,641.00 1135.00,638.00 1135.00,638.00
             1135.00,638.00 1131.00,646.00 1131.00,646.00
             1131.00,646.00 1134.00,639.00 1134.00,639.00
             1134.00,639.00 1131.00,640.00 1131.00,640.00
             1131.00,640.00 1131.00,636.00 1131.00,636.00
             1129.05,637.86 1129.56,637.77 1127.00,637.00
             1127.00,637.00 1125.00,639.00 1125.00,639.00
             1125.00,639.00 1127.00,623.00 1127.00,623.00
             1122.58,623.00 1118.15,621.88 1117.00,627.00
             1117.00,627.00 1114.00,627.00 1114.00,627.00
             1114.00,627.00 1114.00,631.00 1114.00,631.00
             1114.00,631.00 1110.00,628.00 1110.00,628.00
             1109.88,631.70 1110.04,635.69 1106.00,637.00
             1106.00,637.00 1107.00,643.00 1107.00,643.00
             1107.00,643.00 1103.00,637.00 1103.00,637.00
             1103.00,637.00 1100.00,639.00 1100.00,639.00
             1100.00,639.00 1099.00,636.00 1099.00,636.00
             1099.00,636.00 1099.00,640.00 1099.00,640.00
             1094.06,639.74 1093.71,639.80 1091.00,644.00
             1091.00,644.00 1090.00,637.00 1090.00,637.00
             1090.00,637.00 1088.00,641.00 1088.00,641.00
             1088.00,641.00 1091.00,629.00 1091.00,629.00
             1091.00,629.00 1085.00,630.00 1085.00,630.00
             1085.00,630.00 1083.00,634.00 1083.00,634.00
             1083.00,634.00 1083.00,630.00 1083.00,630.00
             1083.00,630.00 1081.00,630.00 1081.00,630.00
             1081.00,630.00 1080.00,648.00 1080.00,648.00
             1080.00,648.00 1075.73,638.00 1075.73,638.00
             1075.73,638.00 1074.00,619.00 1074.00,619.00
             1074.00,619.00 1071.00,615.00 1071.00,615.00
             1071.00,615.00 1073.00,617.00 1073.00,617.00
             1073.00,617.00 1074.00,617.00 1074.00,617.00
             1073.80,612.67 1073.71,609.54 1071.00,606.00
             1071.00,606.00 1070.00,609.00 1070.00,609.00
             1070.00,609.00 1065.00,605.00 1065.00,605.00
             1065.00,605.00 1072.00,602.00 1072.00,602.00
             1072.00,602.00 1070.00,596.00 1070.00,596.00 Z" />
</svg>
