<?xml version="1.0" encoding="UTF-8" standalone="no"?>
<!DOCTYPE svg PUBLIC "-//W3C//DTD SVG 20010904//EN"
              "http://www.w3.org/TR/2001/REC-SVG-20010904/DTD/svg10.dtd">

<svg xmlns="http://www.w3.org/2000/svg"
     width="16.3611in" height="13.8611in"
     viewBox="0 0 1178 998" pointer-events = "none">
  <path id="Selection"
        fill="currentColor" stroke="black" stroke-width="1" pointer-events = "visibleFill"
        d="M 450.00,124.00
           C 450.00,124.00 435.59,128.31 435.59,128.31
             435.59,128.31 434.00,131.00 434.00,131.00
             437.36,130.66 437.96,130.16 440.00,133.00
             440.00,133.00 444.00,131.00 444.00,131.00
             444.00,131.00 448.00,134.00 448.00,134.00
             448.00,134.00 450.00,124.00 450.00,124.00 Z
           M 426.00,135.00
           C 426.00,135.00 422.00,136.00 422.00,136.00
             422.00,136.00 424.00,143.00 424.00,143.00
             424.00,143.00 428.00,142.00 428.00,142.00
             428.00,142.00 426.00,135.00 426.00,135.00 Z
           M 446.00,139.11
           C 446.00,139.11 442.00,139.11 442.00,139.11
             440.05,139.00 436.86,138.95 435.02,139.11
             427.35,140.98 428.56,150.48 432.38,152.97
             434.51,154.35 442.58,154.75 443.45,149.98
             443.88,147.64 442.23,145.78 441.00,144.00
             444.42,142.50 444.78,142.57 446.00,139.11 Z
           M 410.00,147.00
           C 410.00,147.00 398.57,143.62 398.57,143.62
             398.57,143.62 385.00,152.18 385.00,152.18
             385.00,152.18 368.00,159.00 368.00,159.00
             368.00,159.00 367.00,166.00 367.00,166.00
             370.72,165.93 371.06,165.76 373.00,169.00
             373.00,169.00 378.00,164.00 378.00,164.00
             378.00,164.00 377.00,174.00 377.00,174.00
             385.39,172.08 381.86,169.79 387.00,164.00
             387.00,164.00 386.00,170.00 386.00,170.00
             386.00,170.00 391.00,167.00 391.00,167.00
             391.00,167.00 391.00,161.00 391.00,161.00
             391.00,161.00 394.00,162.00 394.00,162.00
             396.12,158.62 396.15,158.21 400.00,157.00
             396.92,162.27 394.87,163.88 397.00,170.00
             397.00,170.00 399.00,170.00 399.00,170.00
             399.00,170.00 401.00,164.00 401.00,164.00
             407.08,164.39 408.39,163.08 408.00,157.00
             408.00,157.00 411.00,158.00 411.00,158.00
             409.18,152.74 410.03,152.09 415.00,150.00
             415.00,150.00 413.00,143.00 413.00,143.00
             413.00,143.00 409.00,144.00 409.00,144.00
             409.00,144.00 410.00,147.00 410.00,147.00 Z
           M 422.00,165.00
           C 419.20,162.24 418.88,162.32 415.00,162.00
             417.13,165.54 418.00,165.68 422.00,165.00 Z
           M 416.00,171.00
           C 416.00,171.00 406.00,171.00 406.00,171.00
             406.00,171.00 406.00,174.00 406.00,174.00
             406.00,174.00 411.00,178.00 411.00,178.00
             405.94,175.45 405.69,175.15 400.00,175.00
             400.00,175.00 398.00,180.00 398.00,180.00
             398.00,180.00 409.00,184.00 409.00,184.00
             400.42,183.60 397.91,180.40 393.00,186.00
             393.00,186.00 406.00,188.00 406.00,188.00
             403.71,188.53 400.09,189.74 398.00,189.72
             395.84,189.86 393.20,188.85 391.15,189.72
             388.05,190.83 386.95,196.14 395.00,196.00
             395.00,196.00 397.00,202.00 397.00,202.00
             397.00,202.00 398.00,199.00 398.00,199.00
             398.00,199.00 400.00,200.00 400.00,200.00
             400.00,200.00 401.00,199.00 401.00,199.00
             401.00,199.00 400.00,204.00 400.00,204.00
             404.36,202.46 405.40,201.74 405.00,197.00
             405.00,197.00 407.00,199.00 407.00,199.00
             407.00,199.00 408.00,199.00 408.00,199.00
             408.00,199.00 409.00,195.00 409.00,195.00
             409.00,195.00 413.00,196.00 413.00,196.00
             413.00,196.00 410.00,202.00 410.00,202.00
             410.00,202.00 408.00,204.00 408.00,204.00
             412.83,203.94 413.27,204.25 417.00,201.00
             417.00,201.00 417.00,205.00 417.00,205.00
             417.00,205.00 426.00,204.00 426.00,204.00
             419.92,211.18 418.93,207.79 413.00,208.46
             413.00,208.46 402.00,211.00 402.00,211.00
             403.80,220.42 409.36,222.12 418.00,219.84
             420.78,219.11 423.94,218.19 426.06,216.17
             429.74,212.67 430.69,203.96 432.00,199.00
             430.65,198.51 427.81,197.67 426.85,196.70
             424.46,194.27 427.96,193.11 422.00,189.00
             422.00,189.00 425.00,188.00 425.00,188.00
             422.98,182.90 422.18,177.63 416.00,179.00
             416.00,179.00 416.00,171.00 416.00,171.00 Z
           M 395.00,173.00
           C 395.00,173.00 381.00,180.00 381.00,180.00
             381.00,180.00 381.00,182.00 381.00,182.00
             388.35,184.58 392.10,179.24 395.00,173.00 Z
           M 365.00,213.00
           C 365.06,209.30 362.01,202.10 358.73,200.02
             358.73,200.02 339.00,195.00 339.00,195.00
             339.00,195.00 336.40,209.70 336.40,209.70
             336.40,209.70 324.00,221.00 324.00,221.00
             324.00,221.00 325.00,226.00 325.00,226.00
             325.00,226.00 320.00,225.00 320.00,225.00
             317.39,235.42 310.94,230.46 307.00,242.00
             310.19,244.00 310.01,244.79 311.73,248.00
             318.68,260.98 312.63,258.27 315.00,269.00
             315.00,269.00 329.00,265.00 329.00,265.00
             329.00,265.00 330.00,268.00 330.00,268.00
             330.00,268.00 336.59,265.99 336.59,265.99
             336.59,265.99 345.00,252.00 345.00,252.00
             352.34,254.65 352.42,249.39 358.04,246.28
             358.04,246.28 378.00,239.75 378.00,239.75
             381.08,238.94 385.96,238.91 386.56,234.89
             386.90,232.62 384.82,228.30 384.01,226.00
             382.47,221.63 379.79,211.87 373.17,213.84
             371.17,214.44 369.42,216.56 368.00,218.00
             368.00,218.00 369.00,212.00 369.00,212.00
             369.00,212.00 365.00,213.00 365.00,213.00 Z
           M 392.00,241.00
           C 383.23,242.76 373.99,243.87 366.00,247.99
             363.83,249.10 359.54,250.51 358.83,253.04
             358.49,254.27 359.67,257.59 360.00,259.00
             352.84,259.51 349.81,262.04 348.00,269.00
             348.00,269.00 352.00,272.00 352.00,272.00
             352.00,272.00 357.00,271.00 357.00,271.00
             357.00,271.00 357.00,275.00 357.00,275.00
             357.00,275.00 352.00,274.00 352.00,274.00
             353.08,277.01 353.04,276.81 356.00,278.00
             356.00,278.00 356.00,276.00 356.00,276.00
             356.00,276.00 358.00,276.00 358.00,276.00
             362.22,281.57 365.68,275.97 374.00,282.00
             374.00,282.00 367.00,282.00 367.00,282.00
             367.00,282.00 368.00,282.00 368.00,282.00
             368.00,282.00 369.00,284.00 369.00,284.00
             364.17,282.63 363.34,283.25 358.72,283.16
             352.66,283.04 343.84,282.69 348.97,291.90
             352.59,298.40 358.42,295.71 360.00,300.00
             360.00,300.00 377.99,303.22 377.99,303.22
             377.99,303.22 394.00,316.00 394.00,316.00
             383.11,318.18 381.13,314.04 372.00,310.79
             367.00,309.00 352.83,307.08 348.00,309.00
             363.76,314.25 386.07,321.79 402.00,325.00
             402.00,325.00 410.63,288.00 410.63,288.00
             412.37,281.01 415.12,274.86 412.00,268.00
             412.00,268.00 408.00,273.00 408.00,273.00
             406.02,270.90 405.75,271.38 403.00,272.00
             403.00,272.00 401.00,271.00 401.00,271.00
             403.13,268.89 407.72,266.53 408.22,263.85
             409.09,259.23 395.64,246.71 395.00,259.00
             395.00,259.00 394.00,260.00 394.00,260.00
             394.00,260.00 386.00,260.00 386.00,260.00
             390.45,252.42 395.81,250.38 392.00,241.00 Z
           M 222.00,251.00
           C 220.61,252.25 219.22,253.89 217.24,254.05
             211.79,254.46 203.33,248.82 204.00,259.00
             204.00,259.00 201.00,257.00 201.00,257.00
             201.94,261.87 202.55,262.01 201.00,267.00
             201.00,267.00 197.00,258.00 197.00,258.00
             197.00,258.00 182.88,276.96 182.88,276.96
             182.88,276.96 179.33,285.04 179.33,285.04
             179.33,285.04 174.00,294.00 174.00,294.00
             174.00,294.00 191.00,305.00 191.00,305.00
             188.46,309.03 186.12,311.09 187.00,316.00
             181.83,318.94 181.79,321.53 180.00,327.00
             180.00,327.00 184.00,327.00 184.00,327.00
             184.00,327.00 189.00,334.00 189.00,334.00
             184.74,337.16 186.68,338.21 184.15,341.67
             180.72,346.37 176.77,344.68 177.00,352.00
             169.17,357.03 176.41,365.61 177.57,371.04
             178.32,374.59 176.70,376.77 176.94,379.99
             177.14,382.74 178.55,384.46 178.83,386.28
             179.78,392.45 175.52,398.37 174.65,401.09
             174.65,401.09 173.80,405.83 173.80,405.83
             173.08,408.10 171.72,409.01 171.21,412.04
             171.21,412.04 171.21,419.00 171.21,419.00
             170.85,421.02 169.53,423.18 169.61,424.87
             169.73,427.55 172.14,428.19 173.44,431.09
             174.66,433.82 174.76,439.90 175.38,442.99
             176.67,449.40 182.94,451.55 176.00,459.00
             176.00,459.00 176.00,466.00 176.00,466.00
             176.00,466.00 186.00,468.00 186.00,468.00
             187.29,470.54 188.05,472.07 191.02,473.00
             193.71,473.84 197.43,472.38 198.64,475.28
             199.45,477.22 197.90,480.02 197.50,482.00
             196.89,485.04 196.46,495.86 198.57,498.04
             200.69,500.22 211.58,504.63 215.00,506.25
             215.00,506.25 258.00,524.19 258.00,524.19
             320.13,547.83 373.44,559.35 439.00,568.00
             439.00,568.00 445.84,507.00 445.84,507.00
             445.84,507.00 450.00,472.00 450.00,472.00
             450.00,472.00 403.00,454.81 403.00,454.81
             403.00,454.81 381.21,446.19 381.21,446.19
             376.53,442.63 373.99,431.90 370.37,428.82
             366.86,425.85 358.33,426.53 353.32,421.73
             353.32,421.73 337.58,398.00 337.58,398.00
             337.58,398.00 309.69,355.00 309.69,355.00
             307.46,351.53 302.57,345.08 303.01,341.00
             303.01,341.00 312.72,317.00 312.72,317.00
             316.04,309.30 318.49,305.23 309.96,299.76
             307.48,298.17 304.72,297.11 302.00,296.00
             297.11,303.58 295.21,303.45 287.00,301.00
             287.00,301.00 293.00,294.00 293.00,294.00
             293.00,294.00 290.00,293.00 290.00,293.00
             290.00,293.00 295.00,284.00 295.00,284.00
             295.00,284.00 283.00,291.00 283.00,291.00
             283.00,291.00 281.00,294.00 281.00,294.00
             281.00,294.00 283.00,297.00 283.00,297.00
             283.00,297.00 279.00,298.00 279.00,298.00
             277.37,294.16 275.29,290.25 275.13,286.00
             274.82,277.84 278.62,277.62 276.00,263.00
             270.92,264.85 272.53,267.38 275.00,271.00
             275.00,271.00 267.00,270.00 267.00,270.00
             267.00,270.00 267.00,274.00 267.00,274.00
             267.00,274.00 257.00,276.00 257.00,276.00
             257.00,276.00 258.00,272.00 258.00,272.00
             247.35,269.41 247.94,272.42 239.00,276.00
             242.13,271.88 242.90,270.11 248.00,268.25
             255.54,265.49 258.71,269.31 260.00,262.00
             260.00,262.00 250.91,260.72 250.91,260.72
             250.91,260.72 245.00,263.00 245.00,263.00
             245.00,263.00 243.90,261.77 243.90,261.77
             243.90,261.77 230.00,260.00 230.00,260.00
             224.79,263.71 224.20,262.17 218.00,262.00
             218.00,262.00 222.00,259.00 222.00,259.00
             222.00,259.00 220.00,255.00 220.00,255.00
             220.00,255.00 222.00,251.00 222.00,251.00 Z
           M 417.00,257.00
           C 417.00,257.00 415.00,257.00 415.00,257.00
             415.00,257.00 415.00,261.00 415.00,261.00
             415.00,261.00 417.00,257.00 417.00,257.00 Z
           M 249.00,362.00
           C 249.00,362.00 254.00,365.00 254.00,365.00
             254.00,365.00 279.00,366.82 279.00,366.82
             279.00,366.82 288.00,365.68 288.00,365.68
             288.00,365.68 300.71,366.56 300.71,366.56
             300.71,366.56 308.00,373.00 308.00,373.00
             301.18,373.90 295.85,373.60 291.00,379.00
             291.00,379.00 305.58,384.92 305.58,384.92
             305.58,384.92 317.00,381.00 317.00,381.00
             317.00,381.00 314.00,386.00 314.00,386.00
             314.00,386.00 317.00,387.00 317.00,387.00
             317.00,387.00 312.00,394.00 312.00,394.00
             312.00,394.00 309.00,393.00 309.00,393.00
             309.00,393.00 305.00,398.00 305.00,398.00
             305.00,398.00 310.00,398.00 310.00,398.00
             310.00,398.00 308.00,402.00 308.00,402.00
             308.00,402.00 300.37,400.72 300.37,400.72
             300.37,400.72 294.90,396.38 294.90,396.38
             294.90,396.38 287.00,397.00 287.00,397.00
             287.00,397.00 290.00,404.80 290.00,404.80
             290.00,404.80 286.00,404.80 286.00,404.80
             286.00,404.80 268.00,409.00 268.00,409.00
             268.00,409.00 268.00,404.00 268.00,404.00
             271.98,404.47 275.82,403.14 278.89,400.44
             280.33,399.16 282.31,396.64 279.71,395.32
             274.60,392.73 268.97,400.56 266.79,401.67
             261.18,404.53 253.64,396.27 251.00,392.00
             251.00,392.00 260.00,392.00 260.00,392.00
             261.01,386.28 265.61,386.46 270.00,383.00
             270.00,383.00 266.00,378.00 266.00,378.00
             266.00,378.00 280.00,383.00 280.00,383.00
             280.00,383.00 280.00,381.00 280.00,381.00
             280.00,381.00 267.00,372.00 267.00,372.00
             267.00,372.00 263.00,375.00 263.00,375.00
             263.00,375.00 264.00,372.00 264.00,372.00
             257.17,371.36 257.63,370.10 252.00,367.00
             251.60,368.41 251.62,370.21 250.00,369.00
             250.00,369.00 248.00,371.00 248.00,371.00
             247.31,366.52 247.14,366.22 249.00,362.00 Z
           M 301.00,472.00
           C 301.00,472.00 303.00,472.00 303.00,472.00
             304.57,474.93 310.84,484.44 313.99,484.92
             315.20,485.10 316.01,484.46 317.00,484.00
             317.70,493.72 324.57,501.94 335.00,497.93
             343.77,494.55 344.51,489.84 350.09,486.84
             357.72,482.74 371.29,486.40 374.00,495.00
             374.00,495.00 369.00,497.00 369.00,497.00
             369.00,497.00 370.00,493.00 370.00,493.00
             370.00,493.00 363.00,493.00 363.00,493.00
             363.00,493.00 366.00,494.00 366.00,494.00
             366.00,494.00 354.00,498.00 354.00,498.00
             354.00,498.00 343.00,501.00 343.00,501.00
             341.66,507.44 329.23,513.17 323.00,514.00
             317.59,506.55 315.90,519.58 309.98,519.44
             309.98,519.44 305.28,518.71 305.28,518.71
             299.28,518.20 292.33,518.60 287.10,515.11
             284.47,513.35 283.77,511.55 281.63,509.63
             275.85,504.46 276.59,507.73 273.00,499.00
             277.18,502.10 279.02,505.31 282.00,501.00
             285.75,502.86 286.91,503.28 289.00,507.00
             289.00,507.00 292.00,506.00 292.00,506.00
             292.00,506.00 291.00,503.00 291.00,503.00
             291.00,503.00 292.00,502.00 292.00,502.00
             292.00,502.00 294.00,503.00 294.00,503.00
             295.90,499.50 299.32,493.99 303.00,499.00
             303.00,499.00 309.00,497.00 309.00,497.00
             309.00,497.00 307.00,488.00 307.00,488.00
             307.00,488.00 304.00,487.00 304.00,487.00
             304.00,487.00 306.00,481.00 306.00,481.00
             306.00,481.00 302.00,481.00 302.00,481.00
             302.00,481.00 301.00,472.00 301.00,472.00 Z" />
</svg>
