<?xml version="1.0" encoding="UTF-8" standalone="no"?>
<!DOCTYPE svg PUBLIC "-//W3C//DTD SVG 20010904//EN"
              "http://www.w3.org/TR/2001/REC-SVG-20010904/DTD/svg10.dtd">

<svg xmlns="http://www.w3.org/2000/svg"
     width="16.3611in" height="13.8611in"
     viewBox="0 0 1178 998" pointer-events = "none">
  <path id="Selection"
        fill="currentColor" stroke="black" stroke-width="1" pointer-events = "visibleFill"
        d="M 748.00,478.00
           C 748.00,478.00 739.00,487.00 739.00,487.00
             739.00,487.00 741.00,489.00 741.00,489.00
             733.45,487.65 732.32,487.04 727.00,493.00
             727.00,493.00 729.00,489.09 729.00,489.09
             724.03,489.00 711.79,487.11 708.28,489.09
             700.97,493.30 702.68,503.58 708.28,508.19
             709.94,509.45 712.15,510.23 714.00,511.00
             714.00,511.00 712.00,514.00 712.00,514.00
             713.99,523.69 713.17,520.90 711.00,530.00
             711.00,530.00 718.00,527.00 718.00,527.00
             718.00,527.00 716.00,533.00 716.00,533.00
             716.00,533.00 721.00,533.00 721.00,533.00
             718.23,539.20 721.76,538.55 722.00,545.00
             722.00,545.00 727.00,544.00 727.00,544.00
             727.00,544.00 725.00,551.00 725.00,551.00
             725.00,551.00 723.00,554.00 723.00,554.00
             723.49,557.24 722.83,558.61 726.00,560.00
             726.00,560.00 719.83,575.20 719.83,575.20
             719.83,575.20 719.83,580.00 719.83,580.00
             733.26,584.86 743.35,590.58 751.05,603.00
             754.07,607.88 756.50,619.29 760.00,622.00
             760.00,622.00 759.00,620.00 759.00,620.00
             759.00,620.00 762.00,624.00 762.00,624.00
             762.00,624.00 768.00,626.00 768.00,626.00
             768.00,626.00 768.00,628.00 768.00,628.00
             768.00,628.00 759.00,630.00 759.00,630.00
             757.10,642.32 751.49,652.97 742.93,661.96
             738.23,666.89 732.09,670.13 729.00,675.00
             729.00,675.00 734.45,680.59 734.45,680.59
             734.45,680.59 739.22,684.32 739.22,684.32
             739.22,684.32 744.00,690.00 744.00,690.00
             742.64,695.99 748.11,709.65 753.00,713.00
             753.00,713.00 758.24,724.02 758.24,724.02
             758.24,724.02 757.00,737.00 757.00,737.00
             757.00,737.00 755.00,739.00 755.00,739.00
             759.01,742.51 759.61,743.74 759.00,749.00
             756.03,744.61 754.93,743.87 750.00,742.00
             749.86,747.22 755.52,766.56 757.13,773.00
             757.13,773.00 769.13,821.00 769.13,821.00
             773.16,837.15 773.36,847.50 788.01,858.53
             794.34,863.29 802.39,860.22 810.00,860.73
             816.33,861.14 817.25,864.32 823.00,866.00
             823.00,866.00 824.00,863.00 824.00,863.00
             824.00,863.00 832.00,871.00 832.00,871.00
             840.30,869.97 836.98,868.12 846.00,870.00
             849.74,865.48 857.01,859.41 863.00,858.53
             866.43,858.03 867.98,859.25 871.00,859.24
             871.00,859.24 881.00,859.24 881.00,859.24
             880.96,853.43 881.76,843.91 884.31,839.00
             885.86,836.02 888.76,833.57 890.81,830.83
             890.81,830.83 896.70,822.14 896.70,822.14
             899.93,818.44 902.33,818.94 905.51,814.94
             910.28,808.92 911.27,802.79 913.50,796.00
             917.22,784.71 918.00,788.08 918.00,775.00
             918.00,775.00 914.00,772.93 914.00,772.93
             915.35,773.18 916.15,773.65 917.57,772.93
             921.43,770.75 921.89,759.74 921.00,756.00
             921.00,756.00 926.00,751.00 926.00,751.00
             926.53,746.52 927.13,746.20 931.00,744.00
             929.05,737.07 937.17,737.29 939.50,731.83
             941.00,728.62 938.87,726.65 939.50,721.04
             939.87,716.28 942.56,710.91 944.00,705.88
             945.70,706.13 946.03,706.46 947.83,705.88
             947.83,705.88 959.00,698.71 959.00,698.71
             959.00,698.71 966.00,695.37 966.00,695.37
             966.00,695.37 979.00,688.25 979.00,688.25
             979.00,688.25 985.83,685.89 985.83,685.89
             989.66,683.89 987.68,683.14 999.00,678.14
             1005.68,675.19 1007.55,675.98 1010.00,674.85
             1012.56,673.68 1015.60,670.40 1018.00,668.52
             1020.99,666.16 1027.36,662.45 1029.36,659.70
             1030.61,657.98 1035.10,642.28 1035.28,640.00
             1035.65,635.46 1034.84,629.63 1038.00,626.00
             1038.00,626.00 1037.00,623.00 1037.00,623.00
             1042.09,623.66 1042.46,621.57 1043.00,617.00
             1051.10,614.30 1047.98,609.44 1045.00,604.00
             1038.26,605.65 1031.02,611.81 1025.00,615.58
             1025.00,615.58 983.00,641.00 983.00,641.00
             979.92,642.76 964.29,651.80 962.06,651.99
             957.61,652.36 959.95,648.22 953.00,647.00
             953.00,647.00 957.77,661.51 957.77,661.51
             957.77,661.51 957.00,667.00 957.00,667.00
             957.00,667.00 950.00,665.00 950.00,665.00
             950.00,665.00 941.00,668.00 941.00,668.00
             941.00,668.00 940.00,664.00 940.00,664.00
             940.00,664.00 936.00,666.00 936.00,666.00
             936.00,666.00 936.00,665.00 936.00,665.00
             936.00,665.00 934.00,664.00 934.00,664.00
             932.41,665.00 931.96,665.55 930.00,666.06
             920.83,668.40 920.54,657.08 916.00,652.00
             915.54,654.82 915.22,657.19 911.94,657.97
             907.70,658.99 901.66,655.20 902.53,651.11
             902.87,649.50 903.96,648.97 905.00,648.00
             905.00,648.00 903.00,642.00 903.00,642.00
             897.73,642.56 890.79,639.01 887.65,634.63
             885.65,631.83 887.48,631.24 883.00,625.00
             883.00,625.00 885.00,620.00 885.00,620.00
             885.00,620.00 888.00,620.00 888.00,620.00
             888.00,620.00 889.00,616.00 889.00,616.00
             889.00,616.00 881.00,612.00 881.00,612.00
             884.09,606.73 885.91,609.85 893.00,611.00
             893.00,611.00 886.00,599.00 886.00,599.00
             893.36,600.55 896.16,604.20 904.00,602.00
             904.00,602.00 907.00,605.00 907.00,605.00
             910.61,597.93 912.36,596.55 920.00,599.00
             923.49,596.45 924.96,597.03 929.00,598.00
             925.22,587.75 929.54,587.37 924.00,584.00
             924.00,584.00 925.00,581.00 925.00,581.00
             925.00,581.00 921.00,581.00 921.00,581.00
             920.28,575.89 919.45,574.63 915.00,572.00
             915.00,572.00 916.00,569.00 916.00,569.00
             911.18,568.48 906.07,565.48 908.00,560.00
             901.26,554.44 904.57,554.71 902.49,548.00
             902.49,548.00 898.00,535.00 898.00,535.00
             894.17,534.69 886.23,532.01 885.03,527.86
             884.42,525.79 885.58,521.24 886.00,519.00
             886.00,519.00 878.00,513.00 878.00,513.00
             878.00,513.00 872.00,516.00 872.00,516.00
             870.91,512.33 870.49,511.98 873.00,509.00
             873.00,509.00 864.58,501.44 864.58,501.44
             864.58,501.44 859.00,493.00 859.00,493.00
             857.09,503.78 856.00,501.83 866.00,506.00
             866.00,506.00 861.00,506.00 861.00,506.00
             861.00,506.00 864.00,509.00 864.00,509.00
             864.00,509.00 861.00,514.00 861.00,514.00
             861.00,514.00 866.00,515.00 866.00,515.00
             866.00,515.00 864.00,519.00 864.00,519.00
             864.00,519.00 863.00,521.00 863.00,521.00
             863.00,521.00 861.00,524.00 861.00,524.00
             861.00,524.00 866.00,526.00 866.00,526.00
             866.00,526.00 864.00,530.00 864.00,530.00
             862.57,525.93 861.04,525.78 857.00,525.00
             857.10,538.26 855.00,530.46 849.00,547.00
             849.00,547.00 847.00,543.00 847.00,543.00
             847.00,543.00 845.00,549.00 845.00,549.00
             845.37,543.98 845.42,542.87 842.00,539.00
             842.00,539.00 841.00,552.00 841.00,552.00
             841.66,546.07 840.48,539.28 834.63,536.12
             832.67,535.13 831.04,535.40 829.02,536.12
             823.39,537.95 822.37,541.58 822.00,547.00
             822.00,547.00 819.00,544.00 819.00,544.00
             819.00,544.00 816.00,545.00 816.00,545.00
             817.55,541.02 817.79,540.92 816.00,537.00
             816.00,537.00 822.00,541.00 822.00,541.00
             822.00,541.00 821.00,529.00 821.00,529.00
             821.00,529.00 815.00,531.00 815.00,531.00
             815.00,531.00 813.00,526.00 813.00,526.00
             813.00,526.00 815.00,522.00 815.00,522.00
             815.00,522.00 809.79,518.06 809.79,518.06
             809.79,518.06 794.00,520.00 794.00,520.00
             797.78,519.57 808.16,518.06 808.39,512.98
             808.50,510.45 805.73,508.63 804.80,504.00
             803.58,497.88 806.82,496.99 801.00,492.00
             801.00,492.00 803.00,497.00 803.00,497.00
             803.00,497.00 801.00,500.00 801.00,500.00
             801.00,500.00 796.00,495.00 796.00,495.00
             790.61,497.11 782.39,500.76 777.49,495.67
             775.07,493.15 775.12,492.11 776.00,489.00
             776.00,489.00 772.00,489.00 772.00,489.00
             772.00,489.00 769.00,491.00 769.00,491.00
             769.00,491.00 771.00,489.00 771.00,489.00
             771.00,489.00 770.00,488.00 770.00,488.00
             770.00,488.00 768.00,489.00 768.00,489.00
             765.43,485.15 764.06,486.37 761.00,489.00
             761.00,489.00 761.00,482.00 761.00,482.00
             755.67,482.23 752.53,480.65 748.00,478.00 Z
           M 851.00,634.00
           C 855.04,624.62 858.64,626.43 867.00,624.00
             867.00,624.00 868.00,630.00 868.00,630.00
             868.00,630.00 874.00,632.00 874.00,632.00
             874.00,632.00 869.00,632.00 869.00,632.00
             869.00,632.00 871.00,637.00 871.00,637.00
             871.00,637.00 865.00,635.00 865.00,635.00
             862.68,631.14 861.30,631.25 857.00,631.00
             857.00,631.00 861.00,633.00 861.00,633.00
             861.00,633.00 861.00,639.00 861.00,639.00
             861.00,639.00 865.00,638.00 865.00,638.00
             865.00,638.00 865.00,643.00 865.00,643.00
             865.00,643.00 870.00,643.00 870.00,643.00
             870.00,643.00 867.00,649.00 867.00,649.00
             867.00,649.00 862.00,649.00 862.00,649.00
             862.00,649.00 862.00,645.00 862.00,645.00
             862.00,645.00 857.00,647.00 857.00,647.00
             857.00,647.00 857.00,643.00 857.00,643.00
             857.00,643.00 850.00,642.00 850.00,642.00
             850.00,642.00 856.00,636.00 856.00,636.00
             856.00,636.00 851.00,634.00 851.00,634.00 Z
           M 775.00,672.00
           C 775.00,672.00 780.00,672.00 780.00,672.00
             780.00,672.00 781.00,677.00 781.00,677.00
             781.00,677.00 777.00,678.00 777.00,678.00
             777.00,678.00 778.00,681.00 778.00,681.00
             778.00,681.00 775.00,684.00 775.00,684.00
             775.00,684.00 784.00,682.00 784.00,682.00
             784.00,682.00 779.00,685.00 779.00,685.00
             779.00,685.00 783.00,684.00 783.00,684.00
             777.10,690.95 769.14,693.82 761.00,689.00
             761.00,689.00 773.00,678.00 773.00,678.00
             773.00,678.00 770.00,676.00 770.00,676.00
             770.00,676.00 776.00,675.00 776.00,675.00
             776.00,675.00 775.00,672.00 775.00,672.00 Z
           M 737.00,683.00
           C 737.00,683.00 736.00,683.00 736.00,683.00
             736.00,683.00 737.00,684.00 737.00,684.00
             737.00,684.00 737.00,683.00 737.00,683.00 Z
           M 1022.00,696.17
           C 1013.27,692.73 994.93,693.58 986.00,696.17
             980.64,698.00 978.78,697.56 975.00,702.00
             975.00,702.00 986.00,702.00 986.00,702.00
             990.55,702.57 991.70,704.51 996.58,704.77
             1004.79,705.22 1016.52,702.26 1022.00,696.17 Z
           M 990.00,721.00
           C 970.02,715.23 959.11,726.60 946.87,740.58
             938.24,750.42 928.26,763.57 923.96,776.00
             923.96,776.00 922.47,784.00 922.47,784.00
             921.56,787.97 917.56,801.97 915.67,804.96
             914.05,807.51 905.35,816.70 903.00,818.74
             903.00,818.74 897.72,822.97 897.72,822.97
             897.72,822.97 885.31,841.17 885.31,841.17
             882.18,846.71 882.62,856.36 881.35,858.54
             878.24,863.83 872.87,866.69 871.00,873.00
             871.00,873.00 906.00,860.31 906.00,860.31
             906.00,860.31 918.00,856.00 918.00,856.00
             918.23,849.37 919.96,847.70 926.00,845.00
             926.00,845.00 928.00,840.00 928.00,840.00
             928.00,840.00 929.25,828.00 929.25,828.00
             929.25,828.00 927.45,821.00 927.45,821.00
             927.45,821.00 927.45,807.00 927.45,807.00
             927.45,807.00 931.00,786.03 931.00,786.03
             932.22,786.07 933.75,786.27 934.96,786.03
             936.79,785.75 937.98,785.04 939.19,783.64
             944.57,777.49 937.13,774.10 941.07,768.62
             946.53,761.02 951.96,764.46 956.00,762.22
             960.50,759.72 963.83,753.51 969.00,753.00
             969.00,753.00 975.09,748.30 975.09,748.30
             975.09,748.30 983.78,746.40 983.78,746.40
             983.78,746.40 993.00,732.00 993.00,732.00
             991.65,726.07 990.78,725.13 985.00,724.00
             985.00,724.00 990.00,721.00 990.00,721.00 Z
           M 927.00,845.00
           C 927.00,845.00 926.00,845.00 926.00,845.00
             926.00,845.00 927.00,846.00 927.00,846.00
             927.00,846.00 927.00,845.00 927.00,845.00 Z" />
</svg>
