<?xml version="1.0" encoding="UTF-8" standalone="no"?>
<!DOCTYPE svg PUBLIC "-//W3C//DTD SVG 20010904//EN"
              "http://www.w3.org/TR/2001/REC-SVG-20010904/DTD/svg10.dtd">

<svg xmlns="http://www.w3.org/2000/svg"
     width="16.3611in" height="13.8611in"
     viewBox="0 0 1178 998" pointer-events = "none">
  <path id="Selection"
        fill="currentColor" stroke="black" stroke-width="1"
        pointer-events = "visibleFill"
        d="M 179.00,220.00
           C 173.95,223.94 170.09,229.24 165.84,234.00
             165.84,234.00 142.84,260.00 142.84,260.00
             142.84,260.00 68.72,344.00 68.72,344.00
             68.72,344.00 43.95,372.00 43.95,372.00
             39.44,377.08 34.92,379.93 37.00,387.00
             37.00,387.00 40.00,386.00 40.00,386.00
             41.84,392.82 46.11,392.32 52.00,395.00
             52.00,395.00 48.00,399.00 48.00,399.00
             49.65,404.18 53.85,406.70 58.00,410.00
             58.00,410.00 82.00,428.37 82.00,428.37
             110.46,449.52 161.80,482.13 194.00,496.00
             194.13,489.82 193.65,482.57 196.00,477.00
             196.00,477.00 172.00,468.00 172.00,468.00
             172.00,468.00 174.16,459.00 174.16,459.00
             174.16,459.00 177.00,450.00 177.00,450.00
             170.48,445.92 172.79,438.68 171.52,434.05
             170.51,430.37 167.21,428.94 166.41,425.99
             165.72,423.43 167.43,421.37 168.03,419.00
             169.47,413.28 166.78,411.22 172.00,406.00
             172.00,406.00 170.00,397.00 170.00,397.00
             170.00,397.00 176.00,395.00 176.00,395.00
             174.02,385.31 173.21,380.62 176.00,371.00
             176.00,371.00 170.00,369.00 170.00,369.00
             170.00,369.00 171.37,361.04 171.37,361.04
             171.37,361.04 170.06,355.00 170.06,355.00
             170.06,355.00 173.44,346.30 173.44,346.30
             173.44,346.30 181.43,341.15 181.43,341.15
             181.43,341.15 183.00,333.00 183.00,333.00
             177.71,329.31 174.00,327.49 180.00,322.00
             180.17,317.61 182.89,312.10 186.00,309.00
             184.20,302.25 177.18,297.63 171.00,295.00
             171.00,295.00 176.70,285.00 176.70,285.00
             176.70,285.00 183.01,273.00 183.01,273.00
             183.01,273.00 193.59,258.00 193.59,258.00
             193.59,258.00 190.04,246.00 190.04,246.00
             190.04,246.00 186.77,230.01 186.77,230.01
             186.77,230.01 179.00,220.00 179.00,220.00 Z" />
</svg>
