<?xml version="1.0" encoding="UTF-8" standalone="no"?>
<!DOCTYPE svg PUBLIC "-//W3C//DTD SVG 20010904//EN"
              "http://www.w3.org/TR/2001/REC-SVG-20010904/DTD/svg10.dtd">

<svg xmlns="http://www.w3.org/2000/svg"
     width="16.3611in" height="13.8611in"
     viewBox="0 0 1178 998" pointer-events = "none">
  <path id="Selection"
        fill="currentColor" stroke="black" stroke-width="1" pointer-events = "visibleFill"
        d="M 995.00,750.00
           C 995.00,750.00 988.00,750.00 988.00,750.00
             988.00,750.00 984.00,758.00 984.00,758.00
             982.29,756.91 979.91,755.18 978.00,754.67
             975.36,753.96 967.44,754.65 965.34,756.40
             962.62,758.66 962.08,762.44 956.84,765.07
             953.04,766.98 950.93,765.78 948.09,766.62
             945.70,767.33 943.90,769.45 942.00,771.00
             942.00,771.00 943.74,779.00 943.74,779.00
             943.74,779.00 937.00,790.00 937.00,790.00
             943.70,788.01 944.05,782.89 949.04,782.78
             955.16,782.63 957.93,787.27 960.26,792.00
             960.26,792.00 971.00,816.00 971.00,816.00
             971.00,816.00 978.00,815.00 978.00,815.00
             978.00,815.00 979.00,816.00 979.00,816.00
             979.00,816.00 978.00,819.00 978.00,819.00
             980.47,821.77 981.90,825.52 985.00,821.00
             985.00,821.00 987.00,823.00 987.00,823.00
             987.00,823.00 988.00,823.00 988.00,823.00
             988.00,823.00 992.00,823.00 992.00,823.00
             992.00,823.00 996.00,818.00 996.00,818.00
             1000.09,817.14 1000.32,815.63 1002.00,812.00
             1007.93,810.87 1009.13,806.67 1012.06,802.00
             1015.85,795.98 1021.19,792.63 1015.00,786.00
             1015.00,786.00 1021.00,789.00 1021.00,789.00
             1021.91,782.69 1022.63,782.28 1026.00,777.00
             1015.36,778.43 1014.93,781.62 1007.00,772.00
             1001.05,770.87 1002.21,768.95 1001.00,764.00
             1001.00,764.00 993.00,768.00 993.00,768.00
             997.66,756.26 994.95,760.51 995.00,750.00 Z
           M 1027.00,776.00
           C 1027.00,776.00 1026.00,776.00 1026.00,776.00
             1026.00,776.00 1027.00,777.00 1027.00,777.00
             1027.00,777.00 1027.00,776.00 1027.00,776.00 Z" />
</svg>
