<?xml version="1.0" encoding="UTF-8" standalone="no"?>
<!DOCTYPE svg PUBLIC "-//W3C//DTD SVG 20010904//EN"
              "http://www.w3.org/TR/2001/REC-SVG-20010904/DTD/svg10.dtd">

<svg xmlns="http://www.w3.org/2000/svg"
     width="16.3611in" height="13.8611in"
     viewBox="0 0 1178 998" pointer-events = "none">
  <path id="Selection"
        fill="currentColor" stroke="black" stroke-width="1" pointer-events = "visibleFill"
        d="M 1064.00,731.00
           C 1060.41,738.80 1062.90,744.70 1062.55,749.83
             1062.35,752.89 1060.83,755.91 1061.78,759.00
             1063.59,764.89 1071.87,770.13 1075.00,760.00
             1075.00,760.00 1070.00,763.00 1070.00,763.00
             1070.00,763.00 1071.00,759.00 1071.00,759.00
             1068.62,758.39 1068.74,757.23 1069.62,754.99
             1070.48,752.78 1071.99,751.48 1072.29,748.93
             1072.74,745.07 1069.71,736.38 1069.00,732.00
             1069.00,732.00 1064.00,731.00 1064.00,731.00 Z
           M 1084.00,742.00
           C 1084.00,742.00 1079.00,743.00 1079.00,743.00
             1079.00,743.00 1076.00,746.00 1076.00,746.00
             1076.00,746.00 1075.00,755.00 1075.00,755.00
             1075.00,755.00 1078.00,750.00 1078.00,750.00
             1078.00,750.00 1076.00,762.00 1076.00,762.00
             1081.92,760.10 1084.11,756.01 1083.00,750.00
             1083.00,750.00 1087.00,746.00 1087.00,746.00
             1087.00,746.00 1084.00,747.00 1084.00,747.00
             1084.00,747.00 1084.00,742.00 1084.00,742.00 Z
           M 1058.00,767.00
           C 1054.02,771.92 1053.24,775.18 1047.00,778.00
             1047.00,778.00 1048.00,776.00 1048.00,776.00
             1038.46,777.58 1042.97,780.74 1032.00,780.00
             1032.00,780.00 1026.00,781.00 1026.00,781.00
             1026.00,781.00 1018.00,801.00 1018.00,801.00
             1018.00,801.00 1022.00,801.00 1022.00,801.00
             1024.70,796.14 1036.60,790.92 1042.00,789.00
             1038.39,792.33 1031.14,796.61 1034.00,802.00
             1034.00,802.00 1029.00,803.00 1029.00,803.00
             1029.00,803.00 1028.00,800.00 1028.00,800.00
             1023.01,803.76 1019.41,809.32 1016.84,815.00
             1014.83,819.41 1016.47,821.34 1012.00,824.00
             1012.90,834.02 1008.73,836.12 1018.00,846.00
             1018.00,846.00 1019.00,845.00 1019.00,845.00
             1019.00,845.00 1018.00,843.00 1018.00,843.00
             1018.00,843.00 1027.00,848.00 1027.00,848.00
             1027.00,848.00 1030.00,847.00 1030.00,847.00
             1030.00,847.00 1029.00,841.00 1029.00,841.00
             1029.00,841.00 1031.00,838.00 1031.00,838.00
             1031.00,838.00 1035.00,838.00 1035.00,838.00
             1034.87,834.31 1037.71,822.62 1040.00,820.00
             1036.48,814.42 1038.45,813.00 1042.00,808.00
             1042.00,808.00 1043.00,812.00 1043.00,812.00
             1043.00,812.00 1049.00,810.00 1049.00,810.00
             1049.00,810.00 1045.00,805.00 1045.00,805.00
             1045.00,805.00 1052.00,804.00 1052.00,804.00
             1052.00,804.00 1051.00,801.00 1051.00,801.00
             1051.00,801.00 1053.00,802.00 1053.00,802.00
             1053.00,802.00 1052.00,799.00 1052.00,799.00
             1052.00,799.00 1057.00,799.00 1057.00,799.00
             1057.00,799.00 1056.00,796.00 1056.00,796.00
             1059.39,794.83 1059.59,794.55 1060.00,791.00
             1064.84,789.90 1067.46,783.89 1070.00,780.00
             1070.00,780.00 1068.00,778.00 1068.00,778.00
             1068.00,778.00 1074.00,777.00 1074.00,777.00
             1074.00,777.00 1073.00,774.00 1073.00,774.00
             1073.00,774.00 1078.00,770.00 1078.00,770.00
             1078.00,770.00 1070.00,774.00 1070.00,774.00
             1070.00,774.00 1072.00,768.00 1072.00,768.00
             1072.00,768.00 1065.00,767.00 1065.00,767.00
             1061.87,769.98 1061.18,769.84 1058.00,767.00 Z" />
</svg>
