<?xml version="1.0" encoding="UTF-8" standalone="no"?>
<!DOCTYPE svg PUBLIC "-//W3C//DTD SVG 20010904//EN"
              "http://www.w3.org/TR/2001/REC-SVG-20010904/DTD/svg10.dtd">

<svg xmlns="http://www.w3.org/2000/svg"
     width="16.3611in" height="13.8611in"
     viewBox="0 0 1178 998" pointer-events = "none">
  <path id="Selection"
        fill="currentColor" stroke="black" stroke-width="1" pointer-events = "visibleFill"
        d="M 1049.00,755.00
           C 1049.00,755.00 1035.57,763.75 1035.57,763.75
             1035.57,763.75 1028.00,767.00 1028.00,767.00
             1028.00,767.00 1024.00,766.00 1024.00,766.00
             1025.09,773.37 1027.30,772.39 1034.00,772.00
             1034.00,772.00 1037.00,766.00 1037.00,766.00
             1037.00,766.00 1036.00,769.00 1036.00,769.00
             1036.00,769.00 1041.00,768.00 1041.00,768.00
             1041.00,768.00 1040.00,771.00 1040.00,771.00
             1040.00,771.00 1047.00,770.00 1047.00,770.00
             1047.00,770.00 1047.00,766.00 1047.00,766.00
             1047.00,766.00 1043.00,765.00 1043.00,765.00
             1043.00,765.00 1049.00,755.00 1049.00,755.00 Z
           M 1014.00,759.00
           C 1011.45,762.95 1012.00,765.45 1012.00,770.00
             1012.00,770.00 1018.00,768.00 1018.00,768.00
             1018.00,768.00 1019.00,772.00 1019.00,772.00
             1019.00,772.00 1023.00,770.00 1023.00,770.00
             1023.00,770.00 1021.00,769.00 1021.00,769.00
             1021.00,769.00 1020.00,770.00 1020.00,770.00
             1019.96,766.43 1019.52,766.22 1016.00,766.00
             1016.00,766.00 1014.00,759.00 1014.00,759.00 Z" />
</svg>
